<?xml version="1.0" encoding="utf-8"?>
<!-- Generator: Adobe Illustrator 23.0.3, SVG Export Plug-In . SVG Version: 6.00 Build 0)  -->
<svg version="1.1" id="Layer_1" xmlns="http://www.w3.org/2000/svg" xmlns:xlink="http://www.w3.org/1999/xlink" x="0px" y="0px"
	 viewBox="0 0 1820.5 1592.9" style="enable-background:new 0 0 1820.5 1592.9;" xml:space="preserve">
<style type="text/css">
	.st0{fill:#DCE1E5;}
</style>
<path class="st0" d="M1090.8,1364.9V530H717.7v834.9c0,19.4,7,34.4,21,44.9c14,10.5,31.9,15.7,53.6,15.7h223.9
	c21.8,0,39.6-5.2,53.6-15.7S1090.8,1384.3,1090.8,1364.9z M559.1,380.8h227.4L639.6,193c-20.2-24.1-47-36.1-80.5-36.1
	c-31.1,0-57.5,10.9-79.3,32.6s-32.6,48.2-32.6,79.3s10.9,57.5,32.6,79.3S528,380.8,559.1,380.8z M1361.3,268.8
	c0-31.1-10.9-57.5-32.6-79.3c-21.8-21.8-48.2-32.6-79.3-32.6c-33.4,0-60.2,12-80.5,36.1l-145.8,187.7h226.2
	c31.1,0,57.5-10.9,79.3-32.6C1350.4,326.4,1361.3,299.9,1361.3,268.8z M1799.7,567.3v373.1c0,10.9-3.5,19.8-10.5,26.8
	c-7,7-15.9,10.5-26.8,10.5h-111.9v485.1c0,31.1-10.9,57.5-32.6,79.3c-21.8,21.8-48.2,32.6-79.3,32.6H269.9
	c-31.1,0-57.5-10.9-79.3-32.6s-32.6-48.2-32.6-79.3V977.8H46.1c-10.9,0-19.8-3.5-26.8-10.5c-7-7-10.5-15.9-10.5-26.8V567.3
	c0-10.9,3.5-19.8,10.5-26.8c7-7,15.9-10.5,26.8-10.5h513c-72.3,0-133.9-25.5-184.8-76.4s-76.4-112.5-76.4-184.8
	S323.4,134.9,374.3,84S486.8,7.6,559.1,7.6c83.2,0,148.5,29.9,195.9,89.8l149.2,192.4l149.2-192.4c47.4-59.9,112.7-89.8,195.9-89.8
	c72.3,0,133.9,25.5,184.8,76.4c50.9,50.9,76.4,112.5,76.4,184.8s-25.5,133.9-76.4,184.8c-50.9,50.9-112.5,76.4-184.8,76.4h513
	c10.9,0,19.8,3.5,26.8,10.5C1796.2,547.5,1799.7,556.5,1799.7,567.3z"/>
</svg>
