<?xml version="1.0" ?><!DOCTYPE svg  PUBLIC '-//W3C//DTD SVG 1.1//EN'  'http://www.w3.org/Graphics/SVG/1.1/DTD/svg11.dtd'><svg style="enable-background:new 0 0 512 512;" version="1.1" viewBox="0 0 512 512" xml:space="preserve" xmlns="http://www.w3.org/2000/svg" xmlns:xlink="http://www.w3.org/1999/xlink"><style type="text/css">
	.st0{fill:#F7E646;}
	.st1{fill:#F4DC31;}
	.st2{fill:#F7EA72;}
	.st3{fill:#F2F2F2;}
	.st4{fill:#FF6161;}
	.st5{fill:#F98A8A;}
	.st6{fill:none;stroke:#D5D4D6;stroke-width:14;stroke-linecap:round;stroke-linejoin:round;stroke-miterlimit:10;}
	.st7{fill:#ED4343;}
	.st8{fill:#F4E134;}
	.st9{fill:#F9ED5A;}
	.st10{fill:#FFFFFF;}
	.st11{fill:#9E327A;}
	.st12{fill:#84266A;}
	.st13{fill:#7BFF84;}
	.st14{fill:#81D3F7;}
	.st15{fill:#5DC4E8;}
	.st16{fill:#4BDD4B;}
	.st17{fill:#62EF66;}
	.st18{fill:#3EAECC;}
	.st19{fill:#D5D4D6;}
	.st20{fill:#D2EFF9;}
	.st21{fill:#A1D5E2;}
	.st22{fill:#35B2D3;}
	.st23{fill:#61C3E5;}
	.st24{fill:#C13434;}
	.st25{fill:none;stroke:#3D0256;stroke-width:14;stroke-linecap:round;stroke-linejoin:round;stroke-miterlimit:10;}
	.st26{fill:#F4E890;}
	.st27{fill:#F9F1AA;}
	.st28{fill:#BFAE49;}
	.st29{fill:#40AECC;}
	.st30{fill:#E2C413;}
	.st31{fill:#EBF9FC;}
	.st32{fill:#7A105C;}
	.st33{fill:#D3B005;}
	.st34{fill:#540F44;}
	.st35{fill:#681053;}
	.st36{fill:#D33535;}
	.st37{fill:#E84343;}
	.st38{fill:#2F96B2;}
	.st39{fill:#D84C4C;}
	.st40{fill:#714091;}
	.st41{fill:#5B174B;}
</style><g><g id="guide"/><g id="icon"><g><polygon class="st20" points="406,16 106,16 16,156.1 496,156.1     "/><polygon class="st15" points="288,16 198,156.1 496,156.1 406,16     "/><polygon class="st21" points="256,496 16,156.1 496,156.1     "/><polygon class="st22" points="256,496 496,156.1 256,156.1     "/><polygon class="st23" points="315,16 256,16 197,16 126.5,156.1 256,496 385.5,156.1     "/><polygon class="st20" points="16,156.1 126.5,156.1 197,16 106,16     "/><polygon class="st15" points="385.5,156.1 496,156.1 406,16 315,16     "/><polygon class="st14" points="197,16 315,16 385.5,156.1 126.5,156.1     "/></g></g></g></svg>