<?xml version="1.0" encoding="utf-8"?>
<!-- Generator: Adobe Illustrator 23.0.3, SVG Export Plug-In . SVG Version: 6.00 Build 0)  -->
<svg version="1.1" id="Layer_1" xmlns="http://www.w3.org/2000/svg" xmlns:xlink="http://www.w3.org/1999/xlink" x="0px" y="0px"
	 viewBox="0 0 10.2 18" style="enable-background:new 0 0 10.2 18;" xml:space="preserve">
<style type="text/css">
	.st0{fill:#6C5893;}
	.st1{fill:none;}
</style>
<path class="st0" d="M5.5,7.9c-2.3-0.6-3-1.2-3-2.1c0-1.1,1-1.8,2.7-1.8C7,3.9,7.6,4.8,7.7,6h2.2C9.8,4.3,8.8,2.7,6.7,2.2V0h-3v2.2
	C1.7,2.6,0.2,3.8,0.2,5.8c0,2.3,1.9,3.5,4.7,4.1c2.5,0.6,3,1.5,3,2.4c0,0.7-0.5,1.8-2.7,1.8c-2.1,0-2.9-0.9-3-2.1H0
	c0.1,2.2,1.8,3.4,3.7,3.8V18h3v-2.1c1.9-0.4,3.5-1.5,3.5-3.6C10.2,9.5,7.8,8.5,5.5,7.9z"/>
<path class="st1" d="M-6.3-3h24v24h-24V-3z"/>
</svg>
