<?xml version="1.0" ?><!DOCTYPE svg  PUBLIC '-//W3C//DTD SVG 1.1//EN'  'http://www.w3.org/Graphics/SVG/1.1/DTD/svg11.dtd'><svg height="60px" id="Layer_1" style="enable-background:new 0 0 60 60;" version="1.1" viewBox="0 0 60 60" width="60px" xml:space="preserve" xmlns="http://www.w3.org/2000/svg" xmlns:xlink="http://www.w3.org/1999/xlink"><style type="text/css">
	.st0{fill:#C2E4F8;}
	.st1{fill:#0A94E3;}
	.st2{fill:#FFFFFF;}
	.st3{fill:#ABCFD3;}
	.st4{fill-rule:evenodd;clip-rule:evenodd;fill:#FFFFFF;}
</style><path class="st0" d="M50.5074539,43h-34c-1.104599,0-1.7600994-0.895401-1.4640989-2l5.8947992-22  c0.2959995-1.1046009,1.4314003-2,2.5359001-2h34c1.1046028,0,1.7601013,0.8953991,1.4640999,2L53.043354,41  C52.7473526,42.104599,51.6119537,43,50.5074539,43z"/><path class="st2" d="M16.5074291,43h34c0.5760498,0,1.1574707-0.2470703,1.6268921-0.6367188L40.5532494,30h-7.125  L15.2404623,42.3967285C15.5040731,42.7680664,15.9470053,43,16.5074291,43z"/><path class="st1" d="M52.078125,43.4140625c-0.2685547,0-0.5361328-0.1074219-0.7324219-0.3193359L39.8212891,30.6806641  c-0.3759766-0.4052734-0.3525391-1.0380859,0.0517578-1.4130859c0.4033203-0.3759766,1.0380859-0.3535156,1.4130859,0.0517578  l11.5244141,12.4140625c0.3759766,0.4052734,0.3525391,1.0380859-0.0517578,1.4130859  C52.5664062,43.3251953,52.3222656,43.4140625,52.078125,43.4140625z"/><path class="st1" d="M15.2519531,43.4140625c-0.3193359,0-0.6328125-0.1523438-0.8271484-0.4365234  c-0.3115234-0.4560547-0.1943359-1.078125,0.2626953-1.3896484l18.1777344-12.4140625  c0.4550781-0.3085938,1.0771484-0.1933594,1.3896484,0.2626953c0.3115234,0.4560547,0.1943359,1.078125-0.2626953,1.3896484  L15.8144531,43.2402344C15.6425781,43.3574219,15.4462891,43.4140625,15.2519531,43.4140625z"/><path class="st2" d="M58.7251549,17.5905991l-20.959301,14.324501c-0.9123993,0.6268997-2.0000877,0.6268997-2.5764999,0  l-13.2828999-14.324501"/><path class="st1" d="M36.3525391,33.3847656c-0.7324219,0-1.4150391-0.265625-1.8994141-0.7929688L21.1728516,18.2705078  c-0.375-0.4042969-0.3515625-1.0371094,0.0537109-1.4130859c0.4042969-0.3769531,1.0361328-0.3525391,1.4130859,0.0537109  l13.2832031,14.3242188c0.1992188,0.2167969,0.7421875,0.2236328,1.2763672-0.1445312L58.1611328,16.765625  c0.4570312-0.3115234,1.0791016-0.1943359,1.3896484,0.2607422c0.3125,0.4560547,0.1953125,1.078125-0.2607422,1.3896484  L38.3300781,32.7402344C37.703125,33.171875,37.0078125,33.3847656,36.3525391,33.3847656z"/><path class="st1" d="M14.9912109,22h-5c-0.5527344,0-1-0.4472656-1-1s0.4472656-1,1-1h5c0.5527344,0,1,0.4472656,1,1  S15.5439453,22,14.9912109,22z"/><path class="st1" d="M50.5078125,44h-34c-0.8271484,0-1.5683594-0.3476562-2.0332031-0.953125  c-0.4785156-0.6230469-0.6230469-1.4638672-0.3974609-2.3056641l5.8955078-22C20.3847656,17.2041016,21.921875,16,23.4736328,16h34  c0.8271484,0,1.5683594,0.3476562,2.0332031,0.953125c0.4785156,0.6230469,0.6230469,1.4638672,0.3974609,2.3056641l-5.8955078,22  C53.5966797,42.7958984,52.0595703,44,50.5078125,44z M23.4736328,18c-0.65625,0-1.3896484,0.5878906-1.5693359,1.2587891  l-5.8955078,22c-0.0634766,0.2363281-0.0439453,0.4443359,0.0527344,0.5703125C16.1699219,41.9707031,16.3642578,42,16.5078125,42  h34c0.65625,0,1.3896484-0.5878906,1.5693359-1.2587891l5.8955078-22c0.0634766-0.2363281,0.0439453-0.4443359-0.0527344-0.5712891  C57.8115234,18.0292969,57.6171875,18,57.4736328,18H23.4736328z"/><path class="st1" d="M12.9912109,30h-8c-0.5527344,0-1-0.4472656-1-1s0.4472656-1,1-1h8c0.5527344,0,1,0.4472656,1,1  S13.5439453,30,12.9912109,30z"/><path class="st1" d="M10.9912109,38h-10c-0.5527344,0-1-0.4472656-1-1s0.4472656-1,1-1h10c0.5527344,0,1,0.4472656,1,1  S11.5439453,38,10.9912109,38z"/></svg>