<?xml version="1.0" encoding="utf-8"?>
<!-- Generator: Adobe Illustrator 23.0.3, SVG Export Plug-In . SVG Version: 6.00 Build 0)  -->
<svg version="1.1" id="Layer_1" xmlns:serif="http://www.serif.com/"
	 xmlns="http://www.w3.org/2000/svg" xmlns:xlink="http://www.w3.org/1999/xlink" x="0px" y="0px" viewBox="0 0 500 500"
	 style="enable-background:new 0 0 500 500;" xml:space="preserve">
<style type="text/css">
	.st0{clip-path:url(#SVGID_2_);}
	.st1{fill-rule:evenodd;clip-rule:evenodd;fill:#E8ECEF;}
	.st2{fill:#020000;fill-opacity:0.5;}
</style>
<g>
	<defs>
		<rect id="SVGID_1_" x="51.6" y="0.2" width="396.8" height="496"/>
	</defs>
	<clipPath id="SVGID_2_">
		<use xlink:href="#SVGID_1_"  style="overflow:visible;"/>
	</clipPath>
	<g class="st0">
		<path class="st1" d="M448.4,167c0-64.7-52.5-117.2-117.2-117.2c-51.2,0-111.2,0-162.4,0c-64.7,0-117.2,52.5-117.2,117.2
			c0,51.2,0,111.2,0,162.4c0,64.7,52.5,117.2,117.2,117.2c51.2,0,111.2,0,162.4,0c64.7,0,117.2-52.5,117.2-117.2
			C448.4,278.2,448.4,218.2,448.4,167z"/>
		<path class="st2" d="M336.5,310.5l21.8-23L250,185.9L141.7,287.5l21.8,23l86.5-81L336.5,310.5z"/>
	</g>
</g>
</svg>
