<svg xmlns="http://www.w3.org/2000/svg" viewBox="0 0 186.73 159.32"><defs><style>.cls-1{fill:#7d4199;}.cls-2{fill:#231f20;}.cls-3{fill:#fff;}</style></defs><title>Asset 1</title><g id="Layer_2" data-name="Layer 2"><g id="Layer_2-2" data-name="Layer 2"><path class="cls-1" d="M101.42,157.45c-2.94,1.33-3.46,1.57-3.53,1.61a2.42,2.42,0,0,1-1.08.26,2.35,2.35,0,0,1-1.4-.46,2.26,2.26,0,0,1-.91-1.28l-2,1.27-1.94-1.27a2.33,2.33,0,0,1-.92,1.29,2.37,2.37,0,0,1-2.47.19l-3.54-1.61,1.44,1.87-6.59-1.81c-.15,0-14.78-4.06-24.35-9a77.29,77.29,0,0,1-15.12-10.88v6.9l-3.69-4.16h0a74.68,74.68,0,0,1-8.15-9.31,30.82,30.82,0,0,1-3.77-7l-.7,3.14-2.87-5.94c-2.86-5.9-3.34-13.31-3.31-18l-6.25,4.51,1.42-6a105.89,105.89,0,0,1,6.49-18l-3.68,1.42L17,80c9.31-19.5,23.06-27.67,23.65-28C63.84,37.16,81.89,33.7,89.18,32.91v-.16l1.88-.11h.48c.25,0,.6,0,1,0s.72,0,1,0H94l2,.1v.18c7.28.81,25.3,4.3,48.44,19.16,13.05,8.7,20.37,21.25,23.58,28l2.48,5.2-3.68-1.42a106.81,106.81,0,0,1,6.48,18l1.42,6-6.24-4.51c0,4.66-.46,12.07-3.31,18l-2.87,5.94-.66-3a33.09,33.09,0,0,1-3.81,6.79,75.14,75.14,0,0,1-8.25,9.41l0,0-.09.08-4.32,2.79v-5a74.09,74.09,0,0,1-14.26,10.1c-9.56,4.92-24.2,8.95-24.34,9l-6.6,1.81Zm-24.17-8,8.25,3.77-.69-4.88,7.31,4.81,7.3-4.81-.69,4.88,8.25-3.77,4.1-1.87,1.57,2-.93,1.23a121,121,0,0,0,16.73-6.7c9-4.71,17.57-13.61,17.65-13.7l4-4.14V132l.83.24c1-1.22,2-2.48,3-3.77,3.85-5.13,5.5-13.23,5.57-13.57l.22-1.15,3.28,0a52.07,52.07,0,0,0,.77-14.81l-.57-5.13,3.9,2.81a131,131,0,0,0-6.78-15.92l-2.82-5.39,3.65,1.4C152.73,62.43,142.16,56,142.05,56c-24-15.4-41.75-18.17-48.28-18.64l-1.86-.09-.46.07c-6.6.49-24.42,3.26-48.34,18.62A63.77,63.77,0,0,0,24,76.69l3.65-1.4-2.82,5.38A127.66,127.66,0,0,0,18.05,96.6l3.89-2.81-.56,5.14a53,53,0,0,0,.57,13.8h2.58l.19,1h1l-.46,2.19c.75,2.89,2.38,8.1,5.1,11.78,1.23,1.66,2.52,3.27,3.85,4.81v-6.28l4,4.13c.08.1,8.63,9,17.65,13.71a121.28,121.28,0,0,0,16.73,6.7l-.93-1.23,1.57-2Z"/><path class="cls-1" d="M66.62,76.89s-2,5.28,1.22,17.07l.41,2.23s-12.8,0-16.25-13c0,0,6.09-9.14,15.44-8.53Z"/><path class="cls-1" d="M66.83,94.16S70.08,91.93,70.48,84s-3-9.55-3-9.55,5.28,1.22,7.92,7.72,1.83,8.94,1.83,8.94-3.86,5.08-8.94,5.29"/><path class="cls-1" d="M115.5,76.89s2,5.28-1.22,17.07l-.41,2.23s12.8,0,16.25-13c0,0-6.09-9.14-15.44-8.53Z"/><path class="cls-1" d="M115.29,94.16S112,91.93,111.64,84s3-9.55,3-9.55-5.28,1.22-7.92,7.72-1.83,8.94-1.83,8.94,3.86,5.08,8.94,5.29"/><polygon class="cls-2" points="98.11 99.14 94.66 98.32 90.59 100.15 90.19 100.15 86.13 98.32 82.67 99.14 79.62 98.32 82.67 101.37 85.52 100.56 88.77 103.2 87.95 104.42 90.39 107.42 92.83 104.42 92.02 103.2 95.27 100.56 98.11 101.37 101.16 98.32 98.11 99.14"/><path class="cls-3" d="M40.52,89l.3,5.18h1.63s-.31,4.88,0,4.88,2.54.4,2.54.4l.71,3.46,2.13-.2.61,4.57L51.79,106,51,111.12l4.16-.92,1.43,5.69,3.25-2.64,3,3.55,1.33-2.13,1.32,3.45,1.93-2.53-1.33-.11.11-.81s-11-3.15-13.72-7.31l.11-.92-3-2.13A50.86,50.86,0,0,1,40.52,89Z"/><path class="cls-3" d="M89.68,112.14l-2.54,8S84,115.29,84,114.07C84,114.07,86.33,113.16,89.68,112.14Z"/><polyline class="cls-3" points="83.99 113.97 82.16 118.94 80.33 114.88"/><path class="cls-3" d="M79.73,115.19S77.8,118.64,78,125.75c0,0-3.15-5.08-2.74-10.16"/><path class="cls-3" d="M71.19,116.1a7.82,7.82,0,0,0,2.34,4.17S73.94,117,75,116"/><path class="cls-3" d="M67.23,115.69a7.82,7.82,0,0,0,2.34,4.17s.41-3.25,1.42-4.27"/><path class="cls-3" d="M90.2,110.92h0a44.88,44.88,0,0,1-24.74,4.22l.09.78,1.62-.6,1.36-.52-1.43-.26c-.1,0-10.66-2.08-15-8l-.38.64,1.63.21.23-.77c-.14-.07-14-7.48-13.79-29.5H39c-.2,22.53,14.1,30.15,14.24,30.22l.24-.76-1.63-.2-.93-.12.55.76c4.52,6.15,15.05,8.2,15.49,8.28l-.06-.78-1.63.61-1.52.57,1.61.22a45.69,45.69,0,0,0,25.24-4.32Z"/><path class="cls-3" d="M140.47,89l-.31,5.18h-1.62s.3,4.88,0,4.88-2.54.4-2.54.4l-.71,3.46-2.14-.2-.61,4.57L129.19,106l.81,5.08-4.16-.92-1.42,5.69-3.25-2.64-3,3.55-1.32-2.13-1.32,3.45-1.93-2.53,1.32-.11-.1-.81s11-3.15,13.71-7.31l-.1-.92,3-2.13A50.86,50.86,0,0,0,140.47,89Z"/><path class="cls-3" d="M91.3,112.14l2.54,8S97,115.29,97,114.07C97,114.07,94.66,113.16,91.3,112.14Z"/><polyline class="cls-3" points="96.99 113.97 98.82 118.94 100.65 114.88"/><path class="cls-3" d="M101.26,115.19s1.93,3.45,1.73,10.56c0,0,3.14-5.08,2.74-10.16"/><path class="cls-3" d="M109.79,116.1a7.76,7.76,0,0,1-2.33,4.17S107.05,117,106,116"/><path class="cls-3" d="M113.75,115.69a7.76,7.76,0,0,1-2.33,4.17s-.41-3.25-1.43-4.27"/><path class="cls-3" d="M90.4,111.64A45.69,45.69,0,0,0,115.63,116l1.61-.21-1.52-.57-1.62-.61-.07.78c.45-.08,11-2.13,15.49-8.28l.56-.76-.94.11-1.62.21.23.76c.15-.07,14.44-7.69,14.24-30.23h-.81c.2,22-13.66,29.43-13.8,29.5l.24.76,1.62-.2-.38-.64c-4.32,5.89-14.87,7.94-15,8l-1.43.27,1.36.51,1.63.61.09-.78a44.82,44.82,0,0,1-24.74-4.22Z"/><polygon class="cls-3" points="42.65 100.53 44.01 100.46 44.21 102.49 42.65 100.53"/><polygon class="cls-3" points="45.36 104.05 46.85 103.84 47.26 107.43 45.22 104.18 45.36 104.05"/><polyline class="cls-3" points="48.41 108.45 50.1 111.23 50.64 107.3"/><polyline class="cls-3" points="51.66 112.38 54.64 111.77 55.45 116.17"/><polyline class="cls-3" points="57.41 116.78 59.58 114.61 61.88 119.42"/><path class="cls-3" d="M63.1,119.15l1-2,1.62,3.12L67,118.2a6.5,6.5,0,0,0,3.11,3.45l.55-3.18a28,28,0,0,0,2.5,3.66c.75.68,1.15-1.76,1.15-1.76l.88,2.71s-8.46-.41-12.46-3.39"/><polygon class="cls-3" points="137.79 100.53 136.44 100.46 136.24 102.49 137.79 100.53"/><polygon class="cls-3" points="135.09 104.05 133.6 103.84 133.19 107.43 135.22 104.18 135.09 104.05"/><polyline class="cls-3" points="132.51 108.31 130.82 111.09 130.28 107.16"/><polyline class="cls-3" points="129.47 112.11 126.48 111.5 125.67 115.9"/><polyline class="cls-3" points="123.44 116.78 121.27 114.61 118.97 119.42"/><path class="cls-3" d="M117.61,119.08l-1-2L115,120.23l-1.28-2.1a6.58,6.58,0,0,1-3.12,3.46L110,118.4a27.33,27.33,0,0,1-2.51,3.66c-.74.68-1.15-1.76-1.15-1.76l-.88,2.71s8.47-.41,12.46-3.39"/><path class="cls-3" d="M79,121.86s.54-4.07.81-4a58.09,58.09,0,0,1,2.64,5.49l-3.66-.27"/><polyline class="cls-3" points="82.88 123.35 83.75 118.06 87.14 123.62 89.92 116.85 93.98 123.62 96.69 118.61 98.58 123.48"/><polyline class="cls-3" points="99.26 123.35 100.69 117.46 102.04 123.28"/><path class="cls-3" d="M63.68,43.4h0c.13.1,12.95,10.44,21.69,32.17l1.56-.39c0-.2-2.31-20.79-15.32-36l-1.24,1C83.05,55.06,85.3,75.15,85.32,75.35v.09l0,.08L86.88,75c-9-22.43-22.12-32.79-22.24-32.87Z"/><path class="cls-3" d="M122.19,42.13c-.13.1-13.28,10.68-22.19,32.83l1.56.39c0-.2,2.08-20,14.76-34.78l-1.23-1.06C102.07,54.7,100,75,99.94,75.19l1.57.38c8.75-21.76,21.56-32.07,21.69-32.17Z"/><polygon class="cls-3" points="86.94 35.82 92.09 76.15 93.7 76.15 98.85 35.55 97.24 35.35 92.09 76.15 93.7 76.15 88.56 35.62 86.94 35.82"/><path class="cls-3" d="M36.9,79.81h0c.1-.15,2.28-3.71,4.88-2.29l.39-.71c-2.63-1.44-5.05,1.06-6,2.58Z"/><path class="cls-3" d="M139.05,77.56h0c.11,0,2.77-.67,5.53,3.09l.65-.48c-3.11-4.24-6.26-3.44-6.39-3.4Z"/><path class="cls-1" d="M21.66,69.59,32,49.55l.45-.87-.75-.62c-8.53-7.16-21.65-9.9-22.21-10l-1.1-.23L8,38.91.17,66.54l-.17.6.39.49,10.29,13,.94,1.18,1-1.16,8.94-10.84.08-.1Zm-9.07,9.58L2.3,66.17l.22,1.09,7.85-27.63L9,40.49c.12,0,13.07,2.74,21.13,9.49l-.31-1.49L19.49,68.54l.14-.22L10.7,79.15Z"/><polygon class="cls-1" points="10.65 39.78 25.28 23.25 24.3 23.66 29.45 23.94 28.33 22.43 26.43 30.29 26.27 30.98 26.79 31.47 42.23 45.82 41.84 44.84 41.13 53.88 43.56 54.07 44.27 45.02 44.32 44.44 43.89 44.04 28.45 29.68 28.8 30.86 30.7 23 31.04 21.58 29.58 21.5 24.43 21.23 23.84 21.2 23.45 21.64 8.83 38.16 10.65 39.78"/><rect class="cls-1" x="30.54" y="46.83" width="12.85" height="0.81" transform="translate(-13.04 14.11) rotate(-18.44)"/><rect class="cls-1" x="23.15" y="68.12" width="0.81" height="4.82" transform="translate(-46.46 45.48) rotate(-51.85)"/><path class="cls-1" d="M29.62,24.17l18.69,8.4-.11-.07c.31.29,7.55,7.2,2.63,15.75l.71.4C56.78,39.54,48.83,32,48.75,31.9l0,0-.06,0L30,23.43Z"/><rect class="cls-1" x="17.05" y="37.59" width="0.81" height="26.06" transform="translate(-27.37 21.34) rotate(-37.82)"/><path class="cls-1" d="M167.24,68.52,157,48.47l-.3,1.49c8-6.75,21-9.46,21.13-9.49l-1.42-.86,7.85,27.63.22-1.09-10.29,13,1.89,0L167.1,68.3Zm8.81,12.11,10.29-13,.39-.49-.17-.6L178.7,38.91l-.31-1.09-1.1.23c-.56.11-13.68,2.85-22.21,10l-.75.62.45.87,10.29,20,.06.12.08.1,8.94,10.84,1,1.16Z"/><polygon class="cls-1" points="177.9 38.16 163.28 21.64 162.89 21.2 162.3 21.23 157.15 21.5 155.69 21.58 156.03 23 157.93 30.86 158.28 29.68 142.84 44.04 142.41 44.44 142.46 45.02 143.16 54.07 145.6 53.88 144.89 44.84 144.5 45.82 159.94 31.47 160.47 30.98 160.3 30.29 158.4 22.43 157.28 23.94 162.43 23.66 161.45 23.25 176.08 39.78 177.9 38.16"/><rect class="cls-1" x="149.36" y="40.81" width="0.81" height="12.85" transform="translate(57.6 174.38) rotate(-71.57)"/><rect class="cls-1" x="160.76" y="70.12" width="4.82" height="0.81" transform="translate(-8.71 115.87) rotate(-38.15)"/><path class="cls-1" d="M156.78,23.43l-18.69,8.4-.06,0-.05,0c-.08.08-8,7.64-2.78,16.75l.7-.4c-4.92-8.55,2.32-15.46,2.63-15.75l-.11.07,18.69-8.4Z"/><rect class="cls-1" x="156.24" y="50.21" width="26.06" height="0.81" transform="translate(25.49 153.29) rotate(-52.18)"/><path class="cls-1" d="M25.66,23.68h0c.61-.48,61.18-46.85,134.85-.74l1.29-2.07C122.54-3.7,87.22-2.16,64.5,3.45,39.88,9.54,24.31,21.64,24.16,21.76Z"/><path class="cls-1" d="M34.44,26.58h0A51.3,51.3,0,0,1,54,15.5l-1-.1,8.67,4.88.6.33.6-.33c.2-.12,21.25-11.51,61.36.1l.53.16.46-.3,6-3.79-1,.15c.13,0,13.69,3.81,22.07,10.09l1.46-2C145,18.18,131.44,14.4,130.87,14.25l-.52-.15-.46.29-6,3.8,1-.15c-41.19-11.92-62.36-.38-63.24.11h1.2l-8.67-4.87L53.76,13l-.49.15A53.07,53.07,0,0,0,32.71,24.85Z"/><rect class="cls-1" x="52.54" y="8.02" width="0.81" height="6.37" transform="translate(-1.17 11.5) rotate(-12.26)"/><rect class="cls-1" x="127.14" y="11.21" width="7.63" height="0.81" transform="translate(105.45 140.58) rotate(-83.88)"/></g></g></svg>