<?xml version="1.0" ?><svg height="60" id="Layout_1" viewBox="0 0 60 60" width="60" xmlns="http://www.w3.org/2000/svg"><title/><rect height="46" rx="2" ry="2" style="fill:#fff" width="58" x="0.999" y="6.99999"/><path d="M56.999,50h-54a1.99994,1.99994,0,0,1-2-2v3a1.99994,1.99994,0,0,0,2,2h54a1.99994,1.99994,0,0,0,2-2V48A1.99994,1.99994,0,0,1,56.999,50Z" style="fill:#2c4b75;opacity:0.2"/><path d="M56.999,7h-54a1.99994,1.99994,0,0,0-2,2v3a1.99994,1.99994,0,0,1,2-2h54a1.99994,1.99994,0,0,1,2,2V9A1.99994,1.99994,0,0,0,56.999,7Z" style="fill:#fff;opacity:0.75"/><rect height="46" rx="2" ry="2" style="fill:none" width="58" x="0.999" y="6.99999"/><path d="M56.999,54h-54a3.00328,3.00328,0,0,1-3-3V9a3.00328,3.00328,0,0,1,3-3h54a3.00328,3.00328,0,0,1,3,3V51A3.00328,3.00328,0,0,1,56.999,54Zm-54-46a1.00068,1.00068,0,0,0-1,1V51a1.00068,1.00068,0,0,0,1,1h54a1.00068,1.00068,0,0,0,1-1V9a1.00068,1.00068,0,0,0-1-1Z" style="fill:#6d6daa"/><path d="M56.999,54h-54a3.00328,3.00328,0,0,1-3-3V9a3.00328,3.00328,0,0,1,3-3h54a3.00328,3.00328,0,0,1,3,3V51A3.00328,3.00328,0,0,1,56.999,54Zm-54-46a1.00068,1.00068,0,0,0-1,1V51a1.00068,1.00068,0,0,0,1,1h54a1.00068,1.00068,0,0,0,1-1V9a1.00068,1.00068,0,0,0-1-1Z" style="fill:#6d6daa"/><path d="M10.2565,38.63082A13.02533,13.02533,0,1,1,18.999,42,13.01322,13.01322,0,0,1,10.2565,38.63082Z" style="fill:#2c4b75;opacity:0.2"/><path d="M10.929,35.89A12.02338,12.02338,0,1,1,18.999,39,12.0122,12.0122,0,0,1,10.929,35.89Z" style="fill:#eef6ff"/><path d="M26.539,35.74l.1.52a12.02338,12.02338,0,0,1-15.71-.37l.53-.15a9.508,9.508,0,0,1,4.54-1.88.58243.58243,0,0,0,.49-.59c-.02-.32-.02-.66-.02-1.01,0-.86-.96-1.77-1.02-2.89a4.55281,4.55281,0,0,1-.5-1.85.91931.91931,0,0,1,.23-.7c-.08-.42-.15-.87-.23-1.32a2.94863,2.94863,0,0,1,1.88-3.64c.3-.13.07-1.91.4-1.59.9.87,3.31,1.29,3.9,1.49,1.61.58,2.25,1.9,1.92,3.74-.08.45-.15.9-.23,1.32a.91931.91931,0,0,1,.23.7,4.55281,4.55281,0,0,1-.5,1.85c-.06,1.12-1.02,2.09-1.02,2.89,0,.35,0,.69-.02,1.01a.58243.58243,0,0,0,.49.59A9.508,9.508,0,0,1,26.539,35.74Z" style="fill:#c9c1f5"/><g style="opacity:0.5"><path d="M15.10941,26.42064A3.1637,3.1637,0,0,1,16.829,24.86c.3-.13.84-1.17993,1.17-.86.9.87006,2.54.56,3.13.76a2.82941,2.82941,0,0,1,1.7688,1.60785c.04962-.28735.09857-.572.15118-.86786.33-1.84-.31-3.16-1.92-3.74-.59-.2-3-.62-3.9-1.49005-.33-.31995-.1,1.46-.4,1.59a2.94862,2.94862,0,0,0-1.88,3.64C15.0048,25.81383,15.05656,26.11693,15.10941,26.42064Z" style="fill:#fff"/></g><path d="M26.639,33.26A11.987,11.987,0,0,1,7.10184,25.50444a12.00012,12.00012,0,1,0,23.79572.00916A11.99207,11.99207,0,0,1,26.639,33.26Z" style="fill:#2c4b75;opacity:0.2"/><path d="M18.999,18A11.99119,11.99119,0,0,1,30.89756,28.51359a12.00148,12.00148,0,1,0-23.79572-.00916A11.991,11.991,0,0,1,18.999,18Z" style="fill:#fff;opacity:0.75"/><path d="M26.53906,36.74023a.99764.99764,0,0,1-.65918-.248,8.631,8.631,0,0,0-4.05273-1.64648,1.59277,1.59277,0,0,1-1.31738-1.60937c.02051-.33008.01953-.64844.01953-.97656a3.767,3.767,0,0,1,.55566-1.7002,3.464,3.464,0,0,0,.46484-1.24219,1.01979,1.01979,0,0,1,.09668-.37891,3.65809,3.65809,0,0,0,.40234-1.41895.56071.56071,0,0,0-.00293-.06445,1.00265,1.00265,0,0,1-.209-.82227c.04688-.24316.08887-.49707.13281-.75488l.09473-.55273c.32715-1.82324-.57031-2.37109-1.27441-2.625-.09668-.03223-.29-.0791-.5293-.13867a16.61756,16.61756,0,0,1-2.335-.71973,1.21332,1.21332,0,0,1-.69922.93652,1.97371,1.97371,0,0,0-1.293,2.543l.09473.55664c.04395.25781.08594.51172.13281.75488a1.00265,1.00265,0,0,1-.209.82227.56071.56071,0,0,0-.00293.06445,3.65809,3.65809,0,0,0,.40234,1.41895,1.01979,1.01979,0,0,1,.09668.37891,3.19288,3.19288,0,0,0,.44922,1.18848,3.79482,3.79482,0,0,1,.57129,1.75391c0,.32813-.001.64648.01855.94531a1.60086,1.60086,0,0,1-1.31543,1.64063,8.63076,8.63076,0,0,0-4.05371,1.64648,1,1,0,0,1-1.31836-1.50391,10.184,10.184,0,0,1,4.6748-2.04785c-.00586-.21484-.00586-.44531-.00586-.68066a2.83627,2.83627,0,0,0-.34473-.82813,5.25885,5.25885,0,0,1-.65527-1.79883,5.38485,5.38485,0,0,1-.51953-2.11328,2.19355,2.19355,0,0,1,.17578-.9082c-.02344-.13184-.0459-.2666-.06836-.40137l-.0918-.53516A3.89075,3.89075,0,0,1,16.002,21.1543c.00586-.08984.01074-.18359.01465-.25586.03027-.61914.06543-1.32129.75781-1.59375a1.16024,1.16024,0,0,1,1.15039.24707,8.26921,8.26921,0,0,0,2.82227,1.06934c.30762.07715.55566.1416.70313.19141,2.06934.74512,3.00391,2.51563,2.583,4.86426l-.0918.5332c-.02246.13477-.04492.26953-.06836.40137a2.19355,2.19355,0,0,1,.17578.9082,5.38485,5.38485,0,0,1-.51953,2.11328,5.48574,5.48574,0,0,1-.665,1.8418,3.20963,3.20963,0,0,0-.335.78516c0,.23242,0,.46-.00586.68066a10.17385,10.17385,0,0,1,4.6748,2.04785,1,1,0,0,1-.65918,1.752Zm-10.12012-15.792-.02441.01172Z" style="fill:#6d6daa"/><g style="opacity:0.5"><path d="M46.999,16h-10a1,1,0,0,1,0-2h10a1,1,0,0,1,0,2Z" style="fill:#6d6daa"/><path d="M52.999,20h-16a1,1,0,0,1,0-2h16a1,1,0,0,1,0,2Z" style="fill:#6d6daa"/><path d="M52.999,24h-16a1,1,0,0,1,0-2h16a1,1,0,0,1,0,2Z" style="fill:#6d6daa"/><path d="M52.999,28h-16a1,1,0,0,1,0-2h16a1,1,0,0,1,0,2Z" style="fill:#6d6daa"/><path d="M52.999,32h-16a1,1,0,0,1,0-2h16a1,1,0,0,1,0,2Z" style="fill:#6d6daa"/><path d="M52.999,36h-16a1,1,0,0,1,0-2h16a1,1,0,0,1,0,2Z" style="fill:#6d6daa"/><path d="M52.999,40h-16a1,1,0,0,1,0-2h16a1,1,0,0,1,0,2Z" style="fill:#6d6daa"/><path d="M52.999,48h-12a1,1,0,0,1,0-2h12a1,1,0,0,1,0,2Z" style="fill:#6d6daa"/><path d="M16.999,48h-10a1,1,0,0,1,0-2h10a1,1,0,1,1,0,2Z" style="fill:#6d6daa"/><path d="M34.999,48h-12a1,1,0,0,1,0-2h12a1,1,0,0,1,0,2Z" style="fill:#6d6daa"/></g><path d="M18.999,40a12.99145,12.99145,0,0,1-8.74219-3.36914l-.002-.00293A13.02186,13.02186,0,1,1,18.999,40Zm-7.39746-4.85059A11.00576,11.00576,0,1,0,7.999,27,10.995,10.995,0,0,0,11.60156,35.14941Z" style="fill:#6d6daa"/></svg>