<?xml version="1.0" ?><!DOCTYPE svg  PUBLIC '-//W3C//DTD SVG 1.1//EN'  'http://www.w3.org/Graphics/SVG/1.1/DTD/svg11.dtd'><svg id="Icon_Set" style="enable-background:new 0 0 256 256;" version="1.1" viewBox="0 0 256 256" xml:space="preserve" xmlns="http://www.w3.org/2000/svg" xmlns:xlink="http://www.w3.org/1999/xlink"><style type="text/css">
	.st0{fill:#4C4372;}
	.st1{fill:#F1C48B;}
	.st2{fill:#7BABF3;}
	.st3{fill:#FD919F;}
	.st4{fill:#E0667D;}
	.st5{fill:#FFFFFF;}
	.st6{fill:#D4E7F8;}
	.st7{fill:#A0D1F2;}
</style><g><g><circle class="st1" cx="128" cy="128" r="103.873"/></g><g><path class="st5" d="M185.963,165.592h-4.549V60.172c0-6.967-5.648-12.615-12.615-12.615H79.726    c5.952,0,10.778,4.825,10.778,10.778v9.76v97.497v9.76c0,5.952,4.825,10.778,10.778,10.778h89.946    c5.952,0,10.778-4.825,10.778-10.778v-9.76H185.963z"/></g><g><path class="st6" d="M181.414,165.592V60.172c0-6.967-5.648-12.615-12.615-12.615h-3.061V186.13h25.489    c5.952,0,10.778-4.825,10.778-10.778v-9.76h-16.042H181.414z"/></g><g><path class="st3" d="M202.005,175.353v-9.76h-16.042h-4.549h-69.355v9.76c0,5.952-4.825,10.778-10.778,10.778h89.946    C197.18,186.13,202.005,181.305,202.005,175.353z"/></g><g><path class="st3" d="M90.503,68.095H68.948v-9.76c0-5.952,4.825-10.778,10.778-10.778l0,0c5.952,0,10.778,4.825,10.778,10.778    V68.095z"/></g><g><path class="st4" d="M185.963,165.592h-4.549h-0.964v9.76c0,5.952-4.825,10.778-10.778,10.778h21.555    c5.952,0,10.778-4.825,10.778-10.778v-9.76H185.963z"/></g><g><path class="st0" d="M90.503,71.095H68.948c-1.657,0-3-1.343-3-3v-9.76c0-7.598,6.181-13.778,13.777-13.778    c7.597,0,13.778,6.181,13.778,13.778v9.76C93.503,69.752,92.16,71.095,90.503,71.095z M71.948,65.095h15.555v-6.76    c0-4.289-3.489-7.778-7.778-7.778s-7.777,3.489-7.777,7.778V65.095z"/></g><g><path class="st0" d="M191.227,189.13h-89.946c-1.657,0-3-1.343-3-3s1.343-3,3-3c4.289,0,7.777-3.489,7.777-7.777v-9.761    c0-1.657,1.343-3,3-3h89.946c1.657,0,3,1.343,3,3v9.761C205.005,182.949,198.824,189.13,191.227,189.13z M112.648,183.13h78.579    c4.289,0,7.778-3.489,7.778-7.777v-6.761h-83.946v6.761C115.059,178.235,114.168,180.915,112.648,183.13z"/></g><g><path class="st0" d="M191.227,189.13h-89.946c-7.597,0-13.778-6.181-13.778-13.777V58.335c0-4.289-3.489-7.778-7.778-7.778    c-1.657,0-3-1.343-3-3s1.343-3,3-3h89.073c8.61,0,15.615,7.005,15.615,15.615v102.42h17.591c1.657,0,3,1.343,3,3v9.761    C205.005,182.949,198.824,189.13,191.227,189.13z M91.093,50.557c1.521,2.215,2.411,4.895,2.411,7.778v117.018    c0,4.288,3.489,7.777,7.778,7.777h89.946c4.289,0,7.778-3.489,7.778-7.777v-6.761h-17.591c-1.657,0-3-1.343-3-3V60.172    c0-5.302-4.313-9.615-9.615-9.615H91.093z"/></g><g><circle class="st3" cx="90.504" cy="121.172" r="36.508"/></g><g><path class="st4" d="M90.504,84.664c-1.902,0-3.77,0.146-5.594,0.427c17.508,2.692,30.914,17.821,30.914,36.082    c0,18.261-13.407,33.39-30.914,36.082c1.824,0.281,3.692,0.427,5.594,0.427c20.163,0,36.508-16.345,36.508-36.509    C127.012,101.009,110.666,84.664,90.504,84.664z"/></g><g><circle class="st5" cx="90.504" cy="121.172" r="25.32"/></g><g><path class="st3" d="M90.504,157.68c-2.732,0-5.389-0.309-7.949-0.878v47.692c0,4.39,3.559,7.949,7.949,7.949h0    c4.39,0,7.949-3.559,7.949-7.949v-47.692C95.893,157.371,93.235,157.68,90.504,157.68z"/></g><g><path class="st0" d="M90.503,215.443c-6.038,0-10.949-4.912-10.949-10.949v-47.692c0-0.91,0.413-1.771,1.123-2.34    c0.709-0.571,1.641-0.786,2.528-0.589c4.817,1.072,9.778,1.072,14.596,0c0.889-0.197,1.818,0.019,2.528,0.589    c0.71,0.569,1.123,1.43,1.123,2.34v47.692C101.453,210.531,96.541,215.443,90.503,215.443z M85.554,160.366v44.128    c0,2.729,2.22,4.949,4.949,4.949c2.729,0,4.95-2.22,4.95-4.949v-44.128C92.158,160.784,88.848,160.784,85.554,160.366z"/></g><g><path class="st0" d="M90.503,160.681c-21.785,0-39.508-17.724-39.508-39.509s17.723-39.508,39.508-39.508    s39.508,17.723,39.508,39.508S112.289,160.681,90.503,160.681z M90.503,87.664c-18.477,0-33.508,15.031-33.508,33.508    s15.032,33.509,33.508,33.509s33.508-15.032,33.508-33.509S108.98,87.664,90.503,87.664z"/></g><g><path class="st0" d="M90.503,149.492c-15.616,0-28.32-12.704-28.32-28.32s12.705-28.32,28.32-28.32s28.32,12.704,28.32,28.32    S106.119,149.492,90.503,149.492z M90.503,98.852c-12.308,0-22.32,10.013-22.32,22.32s10.013,22.32,22.32,22.32    s22.32-10.013,22.32-22.32S102.811,98.852,90.503,98.852z"/></g><g><path class="st0" d="M93.112,124.417v2.602c0,1.121-0.84,1.962-1.961,1.962c-1.041,0-1.961-0.841-1.961-1.962v-4.162    c0-0.04,0.04-0.04,0.04-0.08c-0.04-0.04-0.04-0.04-0.04-0.08c0-1.04,0.921-1.961,1.961-1.961c2.521,0,4.563-2.001,4.563-4.482    c0-2.521-2.041-4.483-4.563-4.483c-1.641,0-3.082,0.881-3.842,2.202c-0.561,0.96-1.761,1.28-2.722,0.72    c-0.92-0.561-1.241-1.721-0.681-2.682c1.441-2.481,4.163-4.162,7.245-4.162c4.643,0,8.445,3.762,8.445,8.405    C99.596,120.215,96.834,123.537,93.112,124.417z M93.112,133.183v0.721c0,1.12-0.84,1.961-1.961,1.961    c-1.041,0-1.961-0.841-1.961-1.961v-0.721c0-1.081,0.921-1.961,1.961-1.961C92.271,131.222,93.112,132.102,93.112,133.183z"/></g><g><path class="st0" d="M165.738,72.765h-56.573c-1.657,0-3-1.343-3-3s1.343-3,3-3h56.573c1.657,0,3,1.343,3,3    S167.395,72.765,165.738,72.765z"/></g><g><path class="st0" d="M165.738,92.621h-36.076c-1.657,0-3-1.343-3-3s1.343-3,3-3h36.076c1.657,0,3,1.343,3,3    S167.395,92.621,165.738,92.621z"/></g><g><path class="st0" d="M165.738,112.478h-25.827c-1.657,0-3-1.343-3-3s1.343-3,3-3h25.827c1.657,0,3,1.343,3,3    S167.395,112.478,165.738,112.478z"/></g><g><path class="st0" d="M165.738,132.335h-25.827c-1.657,0-3-1.343-3-3s1.343-3,3-3h25.827c1.657,0,3,1.343,3,3    S167.395,132.335,165.738,132.335z"/></g><g><path class="st0" d="M165.738,152.191h-36.076c-1.657,0-3-1.343-3-3s1.343-3,3-3h36.076c1.657,0,3,1.343,3,3    S167.395,152.191,165.738,152.191z"/></g></g></svg>