<?xml version="1.0" encoding="utf-8"?>
<!-- Generator: Adobe Illustrator 23.0.3, SVG Export Plug-In . SVG Version: 6.00 Build 0)  -->
<svg version="1.1" id="Icon_Set" xmlns="http://www.w3.org/2000/svg" xmlns:xlink="http://www.w3.org/1999/xlink" x="0px" y="0px"
	 viewBox="0 0 256 256" style="enable-background:new 0 0 256 256;" xml:space="preserve">
<style type="text/css">
	.st0{fill:#D870ED;}
	.st1{fill:#FFFFFF;}
	.st2{fill:#D4E7F8;}
	.st3{fill:#FD919F;}
	.st4{fill:#E0667D;}
	.st5{fill:#4C4372;}
</style>
<g>
	<g>
		<circle class="st0" cx="128" cy="128" r="103.9"/>
	</g>
	<g>
		<path class="st1" d="M186,165.6h-4.5V60.2c0-7-5.6-12.6-12.6-12.6H79.7c6,0,10.8,4.8,10.8,10.8v9.8v97.5v9.8
			c0,6,4.8,10.8,10.8,10.8h89.9c6,0,10.8-4.8,10.8-10.8v-9.8L186,165.6L186,165.6z"/>
	</g>
	<g>
		<path class="st2" d="M181.4,165.6V60.2c0-7-5.6-12.6-12.6-12.6h-3.1v138.6h25.5c6,0,10.8-4.8,10.8-10.8v-9.8h-16L181.4,165.6
			L181.4,165.6z"/>
	</g>
	<g>
		<path class="st3" d="M202,175.4v-9.8h-16h-4.5h-69.4v9.8c0,6-4.8,10.8-10.8,10.8h89.9C197.2,186.1,202,181.3,202,175.4z"/>
	</g>
	<g>
		<path class="st3" d="M90.5,68.1H68.9v-9.8c0-6,4.8-10.8,10.8-10.8l0,0c6,0,10.8,4.8,10.8,10.8L90.5,68.1L90.5,68.1z"/>
	</g>
	<g>
		<path class="st4" d="M186,165.6h-4.5h-1v9.8c0,6-4.8,10.8-10.8,10.8h21.6c6,0,10.8-4.8,10.8-10.8v-9.8H186z"/>
	</g>
	<g>
		<path class="st5" d="M90.5,71.1H68.9c-1.7,0-3-1.3-3-3v-9.8c0-7.6,6.2-13.8,13.8-13.8c7.6,0,13.8,6.2,13.8,13.8v9.8
			C93.5,69.8,92.2,71.1,90.5,71.1z M71.9,65.1h15.6v-6.8c0-4.3-3.5-7.8-7.8-7.8s-7.8,3.5-7.8,7.8V65.1z"/>
	</g>
	<g>
		<path class="st5" d="M191.2,189.1h-89.9c-1.7,0-3-1.3-3-3s1.3-3,3-3c4.3,0,7.8-3.5,7.8-7.8v-9.8c0-1.7,1.3-3,3-3H202
			c1.7,0,3,1.3,3,3v9.8C205,182.9,198.8,189.1,191.2,189.1z M112.6,183.1h78.6c4.3,0,7.8-3.5,7.8-7.8v-6.8h-83.9v6.8
			C115.1,178.2,114.2,180.9,112.6,183.1z"/>
	</g>
	<g>
		<path class="st5" d="M191.2,189.1h-89.9c-7.6,0-13.8-6.2-13.8-13.8v-117c0-4.3-3.5-7.8-7.8-7.8c-1.7,0-3-1.3-3-3s1.3-3,3-3h89.1
			c8.6,0,15.6,7,15.6,15.6v102.4H202c1.7,0,3,1.3,3,3v9.8C205,182.9,198.8,189.1,191.2,189.1z M91.1,50.6c1.5,2.2,2.4,4.9,2.4,7.8
			v117c0,4.3,3.5,7.8,7.8,7.8h89.9c4.3,0,7.8-3.5,7.8-7.8v-6.8h-17.6c-1.7,0-3-1.3-3-3V60.2c0-5.3-4.3-9.6-9.6-9.6H91.1z"/>
	</g>
	<g>
		<circle class="st3" cx="90.5" cy="121.2" r="36.5"/>
	</g>
	<g>
		<path class="st4" d="M90.5,84.7c-1.9,0-3.8,0.1-5.6,0.4c17.5,2.7,30.9,17.8,30.9,36.1s-13.4,33.4-30.9,36.1
			c1.8,0.3,3.7,0.4,5.6,0.4c20.2,0,36.5-16.3,36.5-36.5C127,101,110.7,84.7,90.5,84.7z"/>
	</g>
	<g>
		<circle class="st1" cx="90.5" cy="121.2" r="25.3"/>
	</g>
	<g>
		<path class="st3" d="M90.5,157.7c-2.7,0-5.4-0.3-7.9-0.9v47.7c0,4.4,3.6,7.9,7.9,7.9l0,0c4.4,0,7.9-3.6,7.9-7.9v-47.7
			C95.9,157.4,93.2,157.7,90.5,157.7z"/>
	</g>
	<g>
		<path class="st5" d="M90.5,215.4c-6,0-10.9-4.9-10.9-10.9v-47.7c0-0.9,0.4-1.8,1.1-2.3c0.7-0.6,1.6-0.8,2.5-0.6
			c4.8,1.1,9.8,1.1,14.6,0c0.9-0.2,1.8,0,2.5,0.6c0.7,0.6,1.1,1.4,1.1,2.3v47.7C101.5,210.5,96.5,215.4,90.5,215.4z M85.6,160.4
			v44.1c0,2.7,2.2,4.9,4.9,4.9s4.9-2.2,4.9-4.9v-44.1C92.2,160.8,88.8,160.8,85.6,160.4z"/>
	</g>
	<g>
		<path class="st5" d="M90.5,160.7C68.7,160.7,51,143,51,121.2s17.7-39.5,39.5-39.5S130,99.4,130,121.2S112.3,160.7,90.5,160.7z
			 M90.5,87.7c-18.5,0-33.5,15-33.5,33.5s15,33.5,33.5,33.5s33.5-15,33.5-33.5S109,87.7,90.5,87.7z"/>
	</g>
	<g>
		<path class="st5" d="M90.5,149.5c-15.6,0-28.3-12.7-28.3-28.3s12.7-28.3,28.3-28.3s28.3,12.7,28.3,28.3S106.1,149.5,90.5,149.5z
			 M90.5,98.9c-12.3,0-22.3,10-22.3,22.3s10,22.3,22.3,22.3s22.3-10,22.3-22.3S102.8,98.9,90.5,98.9z"/>
	</g>
	<g>
		<path class="st5" d="M93.1,124.4v2.6c0,1.1-0.8,2-2,2c-1,0-2-0.8-2-2v-4.2c0,0,0,0,0-0.1c0,0,0,0,0-0.1c0-1,0.9-2,2-2
			c2.5,0,4.6-2,4.6-4.5c0-2.5-2-4.5-4.6-4.5c-1.6,0-3.1,0.9-3.8,2.2c-0.6,1-1.8,1.3-2.7,0.7c-0.9-0.6-1.2-1.7-0.7-2.7
			c1.4-2.5,4.2-4.2,7.2-4.2c4.6,0,8.4,3.8,8.4,8.4C99.6,120.2,96.8,123.5,93.1,124.4z M93.1,133.2v0.7c0,1.1-0.8,2-2,2
			c-1,0-2-0.8-2-2v-0.7c0-1.1,0.9-2,2-2C92.3,131.2,93.1,132.1,93.1,133.2z"/>
	</g>
	<g>
		<path class="st5" d="M165.7,72.8h-56.6c-1.7,0-3-1.3-3-3s1.3-3,3-3h56.6c1.7,0,3,1.3,3,3S167.4,72.8,165.7,72.8z"/>
	</g>
	<g>
		<path class="st5" d="M165.7,92.6h-36.1c-1.7,0-3-1.3-3-3s1.3-3,3-3h36.1c1.7,0,3,1.3,3,3S167.4,92.6,165.7,92.6z"/>
	</g>
	<g>
		<path class="st5" d="M165.7,112.5h-25.8c-1.7,0-3-1.3-3-3s1.3-3,3-3h25.8c1.7,0,3,1.3,3,3S167.4,112.5,165.7,112.5z"/>
	</g>
	<g>
		<path class="st5" d="M165.7,132.3h-25.8c-1.7,0-3-1.3-3-3s1.3-3,3-3h25.8c1.7,0,3,1.3,3,3S167.4,132.3,165.7,132.3z"/>
	</g>
	<g>
		<path class="st5" d="M165.7,152.2h-36.1c-1.7,0-3-1.3-3-3s1.3-3,3-3h36.1c1.7,0,3,1.3,3,3S167.4,152.2,165.7,152.2z"/>
	</g>
</g>
</svg>
