<?xml version="1.0" encoding="utf-8"?>
<!-- Generator: Adobe Illustrator 23.0.3, SVG Export Plug-In . SVG Version: 6.00 Build 0)  -->
<svg version="1.1" id="Icon_Set" xmlns="http://www.w3.org/2000/svg" xmlns:xlink="http://www.w3.org/1999/xlink" x="0px" y="0px"
	 viewBox="0 0 256 256" style="enable-background:new 0 0 256 256;" xml:space="preserve">
<style type="text/css">
	.st0{fill:#F1C4F9;}
	.st1{fill:#7BABF3;}
	.st2{fill:#D4E7F8;}
	.st3{fill:#A0D1F2;}
	.st4{fill:#FD919F;}
	.st5{fill:#E0667D;}
	.st6{fill:#4C4372;}
</style>
<g>
	<g>
		<circle class="st0" cx="128" cy="128" r="103.9"/>
	</g>
	<g>
		<path class="st1" d="M64,97l6.9,20.4c0.4-6,5.3-10.7,11.4-10.7l0,0c6.3,0,11.4,5.1,11.4,11.4v11.4h68.6v-11.4
			c0-6.3,5.1-11.4,11.4-11.4l0,0c6.1,0,11,4.7,11.4,10.7L192,97L64,97L64,97z"/>
	</g>
	<g>
		<path class="st2" d="M180.4,57.9H75.6C69.2,57.9,64,63,64,69.4V97h128V69.4C192,63,186.8,57.9,180.4,57.9z"/>
	</g>
	<g>
		<rect x="64" y="129.5" class="st2" width="128" height="68.7"/>
	</g>
	<g>
		<rect x="173.7" y="129.5" class="st3" width="18.3" height="68.7"/>
	</g>
	<g>
		<path class="st3" d="M180.4,57.9h-19.3c6.4,0,11.6,5.2,11.6,11.6V97H192V69.4C192,63,186.8,57.9,180.4,57.9z"/>
	</g>
	<g>
		<rect x="64" y="77.5" class="st4" width="128" height="19.5"/>
	</g>
	<g>
		<rect x="172.7" y="77.5" class="st5" width="19.3" height="19.5"/>
	</g>
	<g>
		<rect x="64" y="129.5" class="st4" width="51.7" height="17.7"/>
	</g>
	<g>
		<rect x="140.3" y="129.5" class="st4" width="51.7" height="17.7"/>
	</g>
	<g>
		<rect x="173.7" y="129.5" class="st5" width="18.3" height="17.7"/>
	</g>
	<g>
		<path class="st3" d="M128,164.9L128,164.9c-6.8,0-12.3-5.5-12.3-12.3v-23.1h24.7v23.1C140.3,159.4,134.8,164.9,128,164.9z"/>
	</g>
	<g>
		<path class="st3" d="M140.5,97h-25v-7c0-6.9,5.6-12.5,12.5-12.5l0,0c6.9,0,12.5,5.6,12.5,12.5V97z"/>
	</g>
	<g>
		<path class="st3" d="M64,177.3L64,177.3c10.1,0,18.3,8.2,18.3,18.3v2.5H64V177.3z"/>
	</g>
	<g>
		<path class="st1" d="M192,177.3L192,177.3c-10.1,0-18.3,8.2-18.3,18.3v2.5H192L192,177.3L192,177.3z"/>
	</g>
	<g>
		<path class="st5" d="M105.1,115L105.1,115c-6.3,0-11.4,5.1-11.4,11.4v3.1h22.9v-3.1C116.6,120.1,111.5,115,105.1,115z"/>
	</g>
	<g>
		<path class="st5" d="M128,106.6L128,106.6c-6.3,0-11.4,5.1-11.4,11.4v11.4h22.9v-11.4C139.4,111.7,134.3,106.6,128,106.6z"/>
	</g>
	<g>
		<path class="st5" d="M150.9,115L150.9,115c-6.3,0-11.4,5.1-11.4,11.4v3.1h22.9v-3.1C162.3,120.1,157.2,115,150.9,115z"/>
	</g>
	<g>
		<path class="st5" d="M173.7,106.6L173.7,106.6c-6.3,0-11.4,5.1-11.4,11.4v11.4h22.9v-11.4C185.2,111.7,180,106.6,173.7,106.6z"/>
	</g>
	<g>
		<path class="st5" d="M82.3,106.6L82.3,106.6c-6.3,0-11.4,5.1-11.4,11.4v11.4h22.9v-11.4C93.7,111.7,88.6,106.6,82.3,106.6z"/>
	</g>
	<g>
		<path class="st6" d="M192,201.1H64c-1.7,0-3-1.3-3-3v-68.7c0-1.7,1.3-3,3-3h128c1.7,0,3,1.3,3,3v68.7
			C195,199.8,193.7,201.1,192,201.1z M67,195.1h122v-62.7H67V195.1z"/>
	</g>
	<g>
		<path class="st6" d="M192,100H64c-1.7,0-3-1.3-3-3V69.4c0-8,6.5-14.6,14.6-14.6h104.9c8,0,14.6,6.5,14.6,14.6V97
			C195,98.7,193.7,100,192,100z M67,94h122V69.4c0-4.7-3.8-8.6-8.6-8.6H75.6c-4.7,0-8.6,3.8-8.6,8.6V94z"/>
	</g>
	<g>
		<path class="st6" d="M128,167.9c-8.5,0-15.3-6.9-15.3-15.3v-23.1c0-1.7,1.3-3,3-3h24.7c1.7,0,3,1.3,3,3v23.1
			C143.3,161,136.5,167.9,128,167.9z M118.7,132.5v20.1c0,5.2,4.2,9.3,9.3,9.3s9.3-4.2,9.3-9.3v-20.1H118.7z"/>
	</g>
	<g>
		<path class="st6" d="M140.5,100h-25c-1.7,0-3-1.3-3-3v-7c0-8.5,7-15.5,15.5-15.5s15.5,7,15.5,15.5v7
			C143.5,98.7,142.2,100,140.5,100z M118.5,94h19v-4c0-5.2-4.3-9.5-9.5-9.5s-9.5,4.3-9.5,9.5V94z"/>
	</g>
	<g>
		<path class="st6" d="M116.6,132.5H93.7c-1.7,0-3-1.3-3-3v-3.1c0-8,6.5-14.4,14.4-14.4s14.4,6.5,14.4,14.4v3.1
			C119.6,131.1,118.2,132.5,116.6,132.5z M96.7,126.5h16.9v-0.1c0-4.6-3.8-8.4-8.4-8.4C100.5,118,96.7,121.7,96.7,126.5L96.7,126.5z
			"/>
	</g>
	<g>
		<path class="st6" d="M139.4,132.5h-22.9c-1.7,0-3-1.3-3-3v-11.4c0-8,6.5-14.4,14.4-14.4s14.4,6.5,14.4,14.4v11.4
			C142.4,131.1,141.1,132.5,139.4,132.5z M119.6,126.5h16.9v-8.4c0-4.6-3.8-8.4-8.4-8.4s-8.4,3.8-8.4,8.4
			C119.6,118.1,119.6,126.5,119.6,126.5z"/>
	</g>
	<g>
		<path class="st6" d="M162.3,132.5h-22.9c-1.7,0-3-1.3-3-3v-3.1c0-8,6.5-14.4,14.4-14.4s14.4,6.5,14.4,14.4v3.1
			C165.3,131.1,164,132.5,162.3,132.5z M142.4,126.5h16.9v-0.1c0-4.6-3.8-8.4-8.4-8.4S142.4,121.7,142.4,126.5L142.4,126.5
			L142.4,126.5z"/>
	</g>
	<g>
		<path class="st6" d="M185.2,132.5h-22.9c-1.7,0-3-1.3-3-3v-11.4c0-8,6.5-14.4,14.4-14.4c8,0,14.4,6.5,14.4,14.4v11.4
			C188.2,131.1,186.8,132.5,185.2,132.5z M165.3,126.5h16.9v-8.4c0-4.6-3.8-8.4-8.4-8.4s-8.4,3.8-8.4,8.4L165.3,126.5L165.3,126.5z"
			/>
	</g>
	<g>
		<path class="st6" d="M82.3,201.1H64c-1.7,0-3-1.3-3-3v-20.8c0-1.7,1.3-3,3-3c11.7,0,21.3,9.5,21.3,21.3v2.5
			C85.3,199.8,83.9,201.1,82.3,201.1z M67,195.1h12.3c-0.2-7.2-5.4-13.2-12.3-14.5V195.1z"/>
	</g>
	<g>
		<path class="st6" d="M192,201.1h-18.3c-1.7,0-3-1.3-3-3v-2.5c0-11.7,9.5-21.3,21.3-21.3c1.7,0,3,1.3,3,3v20.8
			C195,199.8,193.7,201.1,192,201.1z M176.7,195.1H189v-14.5C182.2,182,176.9,187.9,176.7,195.1z"/>
	</g>
	<g>
		<path class="st6" d="M132.8,140.8c0-2.7-2.2-4.8-4.8-4.8c-2.7,0-4.8,2.2-4.8,4.8c0,1.8,1,3.3,2.4,4.1v6.4c0,1.4,1.1,2.5,2.5,2.5
			c1.4,0,2.5-1.1,2.5-2.5v-6.4C131.9,144.1,132.8,142.6,132.8,140.8z"/>
	</g>
	<g>
		<path class="st6" d="M162.3,132.5H93.7c-1.7,0-3-1.3-3-3v-11.4c0-4.6-3.8-8.4-8.4-8.4c-4.4,0-8.1,3.5-8.4,7.9
			c-0.1,1.4-1.2,2.6-2.6,2.8c-1.4,0.2-2.8-0.7-3.2-2L61.2,98c-0.3-0.9-0.2-1.9,0.4-2.7S63,94,64,94h128c1,0,1.9,0.5,2.4,1.3
			s0.7,1.8,0.4,2.7l-6.9,20.4c-0.5,1.4-1.8,2.2-3.2,2c-1.4-0.2-2.5-1.4-2.6-2.8c-0.3-4.4-4-7.9-8.4-7.9c-4.6,0-8.4,3.8-8.4,8.4v11.4
			C165.3,131.1,164,132.5,162.3,132.5z M96.7,126.5h62.6v-8.4c0-8,6.5-14.4,14.4-14.4c4.4,0,8.4,2,11.1,5.2l3-8.9H68.2l3,8.9
			c2.7-3.2,6.7-5.2,11.1-5.2c8,0,14.4,6.5,14.4,14.4L96.7,126.5L96.7,126.5z"/>
	</g>
	<g>
		<path class="st6" d="M93.7,132.5H70.8c-1.7,0-3-1.3-3-3v-11.4c0-8,6.5-14.4,14.4-14.4s14.4,6.5,14.4,14.4v11.4
			C96.7,131.1,95.4,132.5,93.7,132.5z M73.8,126.5h16.9v-8.4c0-4.6-3.8-8.4-8.4-8.4s-8.4,3.8-8.4,8.4L73.8,126.5L73.8,126.5z"/>
	</g>
	<g>
		<path class="st6" d="M192,100H64c-1.7,0-3-1.3-3-3V77.5c0-1.7,1.3-3,3-3h128c1.7,0,3,1.3,3,3V97C195,98.7,193.7,100,192,100z
			 M67,94h122V80.5H67V94z"/>
	</g>
	<g>
		<path class="st6" d="M115.7,150.2H64c-1.7,0-3-1.3-3-3v-17.7c0-1.7,1.3-3,3-3l51.7,0c0.8,0,1.6,0.3,2.1,0.9
			c0.6,0.6,0.9,1.3,0.9,2.1v17.7C118.7,148.8,117.3,150.2,115.7,150.2z M67,144.2h45.7v-11.7l-45.7,0V144.2z"/>
	</g>
	<g>
		<path class="st6" d="M192,150.2h-51.7c-1.7,0-3-1.3-3-3v-17.7c0-0.8,0.3-1.6,0.9-2.1s1.3-0.9,2.1-0.9l0,0l51.7,0c1.7,0,3,1.3,3,3
			v17.7C195,148.8,193.7,150.2,192,150.2z M143.3,144.2H189v-11.7l-45.7,0V144.2z"/>
	</g>
</g>
</svg>
