<?xml version="1.0" encoding="utf-8"?>
<!-- Generator: Adobe Illustrator 23.0.3, SVG Export Plug-In . SVG Version: 6.00 Build 0)  -->
<svg version="1.1" id="Layer_1" xmlns="http://www.w3.org/2000/svg" xmlns:xlink="http://www.w3.org/1999/xlink" x="0px" y="0px"
	 viewBox="0 0 64 64" style="enable-background:new 0 0 64 64;" xml:space="preserve">
<style type="text/css">
	.st0{fill:#3C4752;}
	.st1{fill:#8B33BB;}
</style>
<g>
	<path class="st0" d="M62.7,56.2l-11-11l-0.5-0.5c-0.3-0.3-0.7-0.5-1.1-0.5c-0.4,0-0.8,0.2-1.1,0.5l-0.5,0.5L45.2,42
		c2.8-3.5,4.5-8,4.5-12.9c0-11.4-9.2-20.6-20.6-20.6S8.6,17.8,8.6,29.2c0,11.4,9.2,20.6,20.6,20.6c4.9,0,9.3-1.7,12.9-4.5l1,1
		l1.6,1.6l0.6,0.6L44.8,49c-0.3,0.3-0.5,0.7-0.5,1.1c0,0.4,0.2,0.8,0.5,1.1l0.5,0.5l0,0l11,11c0.8,0.8,2,1.3,3.2,1.3
		c1.3,0,2.4-0.5,3.2-1.3c0.8-0.8,1.3-2,1.3-3.2C64,58.2,63.5,57,62.7,56.2z M29.2,44.1c-8.3,0-15-6.7-15-15c0-8.3,6.7-15,15-15
		c8.3,0,15,6.7,15,15C44.1,37.4,37.4,44.1,29.2,44.1z"/>
	<path class="st1" d="M33.7,53.9C33.7,53.9,33.7,53.9,33.7,53.9l0-3.3c-1.5,0.3-3,0.5-4.5,0.5c-12.1,0-21.9-9.8-21.9-21.9
		c0-12.1,9.8-21.9,21.9-21.9c12.1,0,21.9,9.8,21.9,21.9c0,1.6-0.2,3.1-0.5,4.5h3.3l4.4-1.5v-6l-4.4-1.5v0c-0.2-1.4-0.6-2.7-1-3.9
		l3.1-3.5l-3-5.2l-4.6,0.9l0,0c-0.4-0.5-0.9-1-1.4-1.5c-0.5-0.5-1-1-1.5-1.4l0,0l0.9-4.6l-5.2-3l-3.5,3.1C36.3,5,35,4.7,33.7,4.4h0
		L32.2,0h-6l-1.5,4.4h0C23.3,4.7,22,5,20.7,5.5l-3.5-3.1l-5.2,3l0.9,4.6l0,0c-0.5,0.4-1,0.9-1.5,1.4c-0.5,0.5-1,1-1.4,1.5l0,0
		L5.4,12l-3,5.2l3.1,3.5C5,22,4.7,23.3,4.4,24.6v0L0,26.2v6l4.4,1.5v0C4.7,35,5,36.4,5.5,37.6l-3.1,3.5l3,5.2l4.6-0.9l0,0
		c0.4,0.5,0.9,1,1.4,1.5c0.5,0.5,1,1,1.5,1.4L12,52.9l5.2,3l3.5-3.1c1.3,0.5,2.6,0.8,3.9,1l0,0l1.5,4.4h6L33.7,53.9L33.7,53.9
		L33.7,53.9z"/>
</g>
</svg>
