<?xml version="1.0" ?><svg enable-background="new 0 0 64 64" id="Layer_1" version="1.1" viewBox="0 0 64 64" xml:space="preserve" xmlns="http://www.w3.org/2000/svg" xmlns:xlink="http://www.w3.org/1999/xlink"><g><path d="M59.714,53.896l-9.907-9.905l-0.434-0.436c-0.262-0.263-0.62-0.424-1.019-0.424   c-0.4,0-0.758,0.16-1.019,0.421l-0.455,0.456l-2.928-2.931c2.558-3.186,4.09-7.232,4.089-11.636   c0.002-10.272-8.327-18.601-18.6-18.601c-10.273,0-18.601,8.33-18.601,18.601c0,10.273,8.328,18.599,18.601,18.602   c4.404-0.001,8.449-1.533,11.636-4.091l0.94,0.942l1.439,1.43l0.553,0.558l-0.457,0.457c-0.26,0.257-0.422,0.618-0.422,1.018   c0,0.396,0.162,0.76,0.422,1.018l0.437,0.436l-0.001,0.001l9.907,9.905c0.745,0.744,1.773,1.203,2.91,1.203   s2.166-0.459,2.909-1.201c0.745-0.744,1.206-1.775,1.206-2.913C60.921,55.67,60.459,54.637,59.714,53.896z M29.44,42.966   c-7.47,0-13.526-6.055-13.526-13.526c0-7.468,6.057-13.525,13.526-13.525c7.468,0,13.524,6.058,13.524,13.525   C42.965,36.91,36.908,42.966,29.44,42.966z" fill="#3C4752"/><path d="M33.529,51.798c0.001,0,0.001,0,0.003,0v-2.961c-1.321,0.279-2.688,0.425-4.091,0.425   c-10.947,0-19.822-8.874-19.822-19.821c0-10.944,8.875-19.821,19.822-19.821c10.948,0,19.822,8.877,19.822,19.821   c0,1.402-0.147,2.769-0.424,4.087h2.972l3.99-1.364v-5.45l-4.001-1.365v0.004c-0.221-1.221-0.54-2.405-0.948-3.55l2.778-3.18   L50.905,13.9l-4.146,0.819l0.013,0.022c-0.404-0.472-0.824-0.93-1.263-1.368c-0.44-0.441-0.897-0.862-1.37-1.265l0.023,0.015   l0.819-4.146L40.258,5.25l-3.183,2.78c-1.144-0.409-2.329-0.724-3.549-0.951h0.004l-1.363-3.997h-5.454L25.35,7.079h0.004   c-1.219,0.226-2.408,0.542-3.553,0.951l-3.18-2.78L13.9,7.976l0.819,4.146l0.024-0.015c-0.475,0.403-0.933,0.823-1.372,1.265   c-0.44,0.439-0.86,0.896-1.264,1.368l0.016-0.022L7.974,13.9l-2.727,4.723l2.781,3.18c-0.406,1.145-0.727,2.329-0.95,3.55v-0.004   L3.08,26.714v5.452l3.999,1.367v-0.005c0.222,1.222,0.544,2.407,0.95,3.548l-2.781,3.183l2.728,4.723l4.146-0.818l-0.016-0.024   c0.404,0.474,0.825,0.931,1.264,1.37c0.438,0.439,0.896,0.859,1.368,1.259L13.9,50.903l4.723,2.728l3.178-2.781   c1.145,0.409,2.331,0.726,3.549,0.948l0,0l1.363,4h5.454l1.365-4L33.529,51.798L33.529,51.798z" fill="#2F7ABF"/></g></svg>