<?xml version="1.0" ?><svg enable-background="new 0 0 64 64" id="Layer_1" version="1.1" viewBox="0 0 64 64" xml:space="preserve" xmlns="http://www.w3.org/2000/svg" xmlns:xlink="http://www.w3.org/1999/xlink"><g><path d="M32,1.25C15.044,1.25,1.25,15.044,1.25,32S15.044,62.75,32,62.75c16.955,0,30.75-13.794,30.75-30.75   S48.956,1.25,32,1.25z M32,58.509C17.383,58.509,5.491,46.617,5.491,32S17.383,5.491,32,5.491S58.509,17.383,58.509,32   S46.617,58.509,32,58.509z" fill="#3C4752"/><path d="M32,56.469c7.882,0,14.904-3.747,19.383-9.553c-0.146-1.459-0.317-2.648-0.514-3.105   c-0.816-1.89-1.872-3.609-3.711-4.68c-0.825-0.48-1.683-0.916-2.561-1.291c-1.329-0.568-2.671-1.107-4.01-1.654   c1.505-0.048,2.967-0.404,4.081-0.825c-0.094-0.039-0.164-0.07-0.235-0.096c-1.256-0.456-2.289-1.198-2.97-2.369   c-0.313-0.539-0.529-1.1-0.671-1.677h0.612c0.569,0.029,0.817-0.214,1.02-0.7c1.026-2.463,1.291-5.018,0.964-7.645   c-0.388-3.109-1.358-5.975-3.291-8.405c-0.054-0.081-0.11-0.162-0.169-0.242c-0.445-0.607-0.949-1.123-1.503-1.562   c-0.94-0.89-1.991-1.641-3.31-1.823c-0.678-0.093-1.365-0.153-2.054-0.185c-0.058-0.01-0.116-0.018-0.174-0.028   c-0.587,0-1.174,0-1.761,0c-0.019,0.004-0.037,0.009-0.056,0.014c-0.375,0.012-0.748,0.029-1.12,0.056   c-1.668,0.119-3.063,0.873-4.277,1.923c-0.63,0.474-1.178,1.024-1.621,1.672c-2.043,2.486-3.052,5.434-3.441,8.639   c-0.322,2.654-0.061,5.241,1.046,7.701c0.106,0.234,0.405,0.547,0.61,0.544h1.013c-0.531,1.928-1.694,3.352-3.691,4.107   c-0.057,0.022-0.11,0.053-0.256,0.123c1.416,0.44,2.799,0.769,4.135,0.79c-1.829,0.761-3.663,1.509-5.478,2.302   c-1.915,0.836-3.316,2.234-4.279,4.089c-0.369,0.711-0.686,2.484-0.943,4.521C17.251,52.806,24.205,56.469,32,56.469z    M25.136,36.044c1.02-0.218,2.006-0.679,2.951-1.483c0.746,0.422,1.441,0.842,2.161,1.215c1.154,0.598,2.333,0.606,3.496,0.021   c0.652-0.328,1.283-0.697,1.933-1.053c1.014,0.838,2.249,1.252,3.52,1.392C30.968,44.018,25.136,36.044,25.136,36.044z    M24.83,20.266c0.084-0.756,0.224-1.468,0.403-2.134c0.125-0.463,0.544-0.796,1.023-0.777c0.003,0,0.007,0,0.01,0   c1.656,0.072,3.306-0.037,4.929-0.406c0.54-0.123,1.059-0.276,1.556-0.462c0.341,0.256,0.694,0.503,1.056,0.742   c0.941,0.623,1.899,1.243,2.733,1.991c0.841,0.754,1.538,1.668,2.302,2.514c0.284-1.631-1.1-2.507-1.817-3.698   c1.012,0.64,1.848,1.388,2.415,2.314l0.216,0.385c0.331,0.654,0.535,1.392,0.582,2.237c0.012,0.201,0.015,0.4,0.012,0.598   c0.005,0.23-0.114,0.952-0.261,1.752c-0.634,3.443-2.545,6.543-5.397,8.574c-0.092,0.066-0.186,0.131-0.281,0.195   c-1.601,1.09-2.959,0.854-4.65-0.037C22.834,30.459,24.83,20.266,24.83,20.266z" fill="#2F7ABF"/></g></svg>