<?xml version="1.0" encoding="utf-8"?>
<!-- Generator: Adobe Illustrator 23.0.3, SVG Export Plug-In . SVG Version: 6.00 Build 0)  -->
<svg version="1.1" id="Layer_1" xmlns="http://www.w3.org/2000/svg" xmlns:xlink="http://www.w3.org/1999/xlink" x="0px" y="0px"
	 viewBox="0 0 64 64" style="enable-background:new 0 0 64 64;" xml:space="preserve">
<style type="text/css">
	.st0{fill:#3C4752;}
	.st1{fill:#8B33BB;}
</style>
<g>
	<path class="st0" d="M32,0C14.4,0,0,14.4,0,32s14.4,32,32,32c17.6,0,32-14.4,32-32S49.6,0,32,0z M32,59.6
		C16.8,59.6,4.4,47.2,4.4,32S16.8,4.4,32,4.4S59.6,16.8,59.6,32S47.2,59.6,32,59.6z"/>
	<path class="st1" d="M32,57.5c8.2,0,15.5-3.9,20.2-9.9c-0.2-1.5-0.3-2.8-0.5-3.2c-0.8-2-1.9-3.8-3.9-4.9c-0.9-0.5-1.8-1-2.7-1.3
		c-1.4-0.6-2.8-1.2-4.2-1.7c1.6,0,3.1-0.4,4.2-0.9c-0.1,0-0.2-0.1-0.2-0.1c-1.3-0.5-2.4-1.2-3.1-2.5c-0.3-0.6-0.6-1.1-0.7-1.7h0.6
		c0.6,0,0.9-0.2,1.1-0.7c1.1-2.6,1.3-5.2,1-8c-0.4-3.2-1.4-6.2-3.4-8.7c-0.1-0.1-0.1-0.2-0.2-0.3c-0.5-0.6-1-1.2-1.6-1.6
		c-1-0.9-2.1-1.7-3.4-1.9c-0.7-0.1-1.4-0.2-2.1-0.2c-0.1,0-0.1,0-0.2,0c-0.6,0-1.2,0-1.8,0c0,0,0,0-0.1,0c-0.4,0-0.8,0-1.2,0.1
		c-1.7,0.1-3.2,0.9-4.5,2c-0.7,0.5-1.2,1.1-1.7,1.7c-2.1,2.6-3.2,5.7-3.6,9c-0.3,2.8-0.1,5.5,1.1,8c0.1,0.2,0.4,0.6,0.6,0.6h1.1
		c-0.6,2-1.8,3.5-3.8,4.3c-0.1,0-0.1,0.1-0.3,0.1c1.5,0.5,2.9,0.8,4.3,0.8c-1.9,0.8-3.8,1.6-5.7,2.4c-2,0.9-3.5,2.3-4.5,4.3
		c-0.4,0.7-0.7,2.6-1,4.7C16.7,53.7,23.9,57.5,32,57.5z M24.9,36.2c1.1-0.2,2.1-0.7,3.1-1.5c0.8,0.4,1.5,0.9,2.2,1.3
		c1.2,0.6,2.4,0.6,3.6,0c0.7-0.3,1.3-0.7,2-1.1c1.1,0.9,2.3,1.3,3.7,1.4C30.9,44.5,24.9,36.2,24.9,36.2z M24.5,19.8
		c0.1-0.8,0.2-1.5,0.4-2.2c0.1-0.5,0.6-0.8,1.1-0.8c0,0,0,0,0,0c1.7,0.1,3.4,0,5.1-0.4c0.6-0.1,1.1-0.3,1.6-0.5
		c0.4,0.3,0.7,0.5,1.1,0.8c1,0.6,2,1.3,2.8,2.1c0.9,0.8,1.6,1.7,2.4,2.6c0.3-1.7-1.1-2.6-1.9-3.8c1.1,0.7,1.9,1.4,2.5,2.4l0.2,0.4
		c0.3,0.7,0.6,1.4,0.6,2.3c0,0.2,0,0.4,0,0.6c0,0.2-0.1,1-0.3,1.8c-0.7,3.6-2.6,6.8-5.6,8.9c-0.1,0.1-0.2,0.1-0.3,0.2
		c-1.7,1.1-3.1,0.9-4.8,0C22.5,30.4,24.5,19.8,24.5,19.8z"/>
</g>
</svg>
