<?xml version="1.0" encoding="utf-8"?>
<!-- Generator: Adobe Illustrator 23.0.3, SVG Export Plug-In . SVG Version: 6.00 Build 0)  -->
<svg version="1.1" id="Layer_1" xmlns="http://www.w3.org/2000/svg" xmlns:xlink="http://www.w3.org/1999/xlink" x="0px" y="0px"
	 viewBox="0 0 64 64" style="enable-background:new 0 0 64 64;" xml:space="preserve">
<style type="text/css">
	.st0{fill:#8B33BB;}
	.st1{fill:#3C4752;}
</style>
<g>
	<g>
		<path class="st0" d="M46.9,40.6L46.9,40.6c0-0.6,0-1.3,0-1.9h0l0-4.9c0-1.6,0-3.3,0-4.9c0-2-1.1-3.4-3-3.9
			c-1.9-0.4-3.7-0.9-5.6-1.4l-0.8-0.2c-1.4-0.3-2.8-0.7-4.2-1c-0.8-0.2-1.7-0.2-2.5,0c-1.5,0.4-3.1,0.8-4.5,1.1
			c-1.8,0.4-4,1-6.1,1.5c-1.9,0.5-3,1.9-3,3.9l0,1.7c0,3.3,0,6.8,0,10.2c0,3.5,1.1,6.6,3.3,9.4c2.4,3,5.6,5.2,9.9,7.1
			c0.5,0.2,1,0.3,1.6,0.3c0.6,0,1.1-0.1,1.7-0.3c3.7-1.6,6.6-3.6,9-6C45.6,48.2,47,44.6,46.9,40.6z M40.4,49.3
			c-2.2,2.3-4.9,4.1-8.4,5.6c-4.1-1.8-7-3.9-9.2-6.6c-1.8-2.2-2.7-4.6-2.6-7.3c0.1-3.9,0-7.9,0-11.8l0-1.4c2.2-0.5,4.4-1.1,6.5-1.6
			c1.7-0.4,3.4-0.9,5.1-1.3c0.1,0,0.3,0,0.4,0c1.7,0.4,3.5,0.9,5.2,1.3c2.1,0.5,4.2,1.1,6.4,1.6c0,1.7,0,3.4,0,5.1v0.4l0,1.6
			c0,0.6,0,1.2,0,1.8c0,1.3,0,2.7,0,4.1C43.9,44,42.8,46.8,40.4,49.3z"/>
		<g>
			<path class="st0" d="M36.3,28.8c-0.9-0.2-1.8-0.5-2.8-0.7L22.6,39.1c0,0.5,0,1,0,1.6c0,1.3,0.2,2.5,0.7,3.6l14.9-14.9
				C37.6,29.2,36.9,29,36.3,28.8z"/>
			<path class="st0" d="M41.4,34.5v-0.4c0-1.3,0-2.7,0-4.1c-0.2,0-0.3-0.1-0.5-0.1L24.6,46.4c0,0,0.1,0.1,0.1,0.1
				c0.8,1,1.8,1.9,2.9,2.7l13.8-13.8L41.4,34.5z"/>
			<path class="st0" d="M22.6,35.7l7.4-7.4c-0.8,0.2-1.5,0.4-2.3,0.6c-1.7,0.4-3.4,0.9-5.2,1.3l0,1.1C22.6,32.7,22.6,34.2,22.6,35.7
				z"/>
			<path class="st0" d="M41.4,38.8L29.6,50.5c0.7,0.4,1.5,0.8,2.4,1.2c2.8-1.2,4.9-2.7,6.7-4.5c1.9-2,2.8-4.2,2.7-6.7
				C41.4,39.9,41.4,39.4,41.4,38.8z"/>
		</g>
	</g>
	<g>
		<path class="st1" d="M58,6.3H6C5,6.3,4.1,7.2,4.1,8.3v38.6c0,1.1,0.9,1.9,1.9,1.9H15c-0.5-1.1-0.9-2.2-1.2-3.4H7.3V14.6h49.4v30.8
			h-6.5c-0.3,1.2-0.7,2.3-1.2,3.4H58c1.1,0,1.9-0.9,1.9-1.9V8.3C59.9,7.2,59,6.3,58,6.3z M9,12.4c-1.1,0-1.9-0.9-1.9-1.9
			C7.1,9.4,8,8.5,9,8.5c1.1,0,1.9,0.9,1.9,1.9C11,11.5,10.1,12.4,9,12.4z M14.3,12.4c-1.1,0-1.9-0.9-1.9-1.9c0-1.1,0.9-1.9,1.9-1.9
			s1.9,0.9,1.9,1.9C16.2,11.5,15.4,12.4,14.3,12.4z M19.5,12.4c-1.1,0-1.9-0.9-1.9-1.9c0-1.1,0.9-1.9,1.9-1.9c1.1,0,1.9,0.9,1.9,1.9
			C21.5,11.5,20.6,12.4,19.5,12.4z M54.8,12.4H31.5c-1.1,0-1.9-0.9-1.9-1.9c0-0.5,0.2-1,0.6-1.4s0.8-0.6,1.4-0.6h23.2
			c1.1,0,1.9,0.9,1.9,1.9C56.7,11.5,55.9,12.4,54.8,12.4z"/>
	</g>
</g>
</svg>
