<?xml version="1.0" ?><svg enable-background="new 0 0 64 64" id="Layer_1" version="1.1" viewBox="0 0 64 64" xml:space="preserve" xmlns="http://www.w3.org/2000/svg" xmlns:xlink="http://www.w3.org/1999/xlink"><g><g><path d="M46.865,40.591L46.865,40.591c-0.025-0.64-0.031-1.295-0.031-1.949h0.024l-0.001-4.888    c-0.003-1.6-0.006-3.253,0.011-4.868c0.022-1.972-1.101-3.425-3.005-3.887c-1.855-0.449-3.746-0.922-5.574-1.38l-0.814-0.204    c-1.383-0.346-2.813-0.705-4.221-1.05c-0.809-0.199-1.694-0.201-2.488-0.005c-1.547,0.379-3.088,0.765-4.521,1.124    c-1.775,0.444-3.984,0.997-6.088,1.505c-1.904,0.459-3.036,1.927-3.027,3.926l0.009,1.739c0.018,3.347,0.036,6.808-0.013,10.196    c-0.049,3.482,1.07,6.636,3.326,9.375c2.434,2.953,5.592,5.214,9.938,7.117c0.48,0.21,1.029,0.32,1.587,0.32    c0.573,0,1.146-0.116,1.659-0.336c3.668-1.579,6.604-3.554,8.975-6.038C45.586,48.174,47.018,44.573,46.865,40.591z     M40.354,49.319c-2.173,2.276-4.908,4.116-8.358,5.621c-4.053-1.802-6.97-3.888-9.166-6.551c-1.796-2.181-2.651-4.575-2.612-7.326    c0.056-3.934,0.034-7.928,0.014-11.789l-0.006-1.437c2.17-0.527,4.361-1.074,6.484-1.605c1.673-0.419,3.401-0.852,5.101-1.269    c0.111-0.027,0.275-0.025,0.399,0.005c1.73,0.427,3.49,0.866,5.193,1.293c2.085,0.522,4.238,1.061,6.371,1.58    c-0.016,1.715-0.013,3.447-0.009,5.124v0.441l-0.002,1.563c0,0.602-0.006,1.205-0.013,1.809c-0.013,1.343-0.027,2.729,0.027,4.111    C43.896,44.022,42.776,46.779,40.354,49.319z" fill="#2F7ABF"/><g><path d="M36.309,28.844c-0.905-0.227-1.831-0.458-2.756-0.688L22.616,39.093c-0.004,0.522-0.01,1.042-0.017,1.562     c-0.018,1.283,0.208,2.468,0.684,3.579L38.2,29.317C37.565,29.159,36.933,29,36.309,28.844z" fill="#2F7ABF"/><path d="M41.385,34.545v-0.352c-0.002-1.338-0.005-2.72,0.007-4.088c-0.152-0.037-0.304-0.074-0.456-0.111     L24.57,46.361c0.037,0.047,0.075,0.093,0.113,0.14c0.817,0.991,1.759,1.881,2.86,2.696l13.842-13.842L41.385,34.545z" fill="#2F7ABF"/><path d="M22.627,35.668l7.412-7.412c-0.759,0.189-1.517,0.379-2.26,0.565c-1.694,0.424-3.442,0.861-5.173,1.281     l0.005,1.146C22.618,32.704,22.626,34.182,22.627,35.668z" fill="#2F7ABF"/><path d="M41.365,38.787L29.617,50.536c0.734,0.416,1.525,0.812,2.38,1.192c2.752-1.201,4.935-2.669,6.669-4.485     c1.933-2.027,2.826-4.227,2.73-6.727C41.373,39.938,41.366,39.361,41.365,38.787z" fill="#2F7ABF"/></g></g><g><path d="M57.951,6.333H6.049c-1.074,0-1.948,0.871-1.948,1.948v38.562c0,1.077,0.873,1.948,1.948,1.948h8.922    c-0.517-1.085-0.92-2.208-1.203-3.371H7.281V14.606h49.437V45.42h-6.495c-0.285,1.156-0.692,2.281-1.211,3.371h8.94    c1.074,0,1.948-0.871,1.948-1.948V8.281C59.898,7.204,59.025,6.333,57.951,6.333z M9.043,12.402c-1.068,0-1.932-0.864-1.932-1.93    c0-1.068,0.864-1.934,1.932-1.934c1.066,0,1.932,0.867,1.932,1.934C10.975,11.537,10.108,12.402,9.043,12.402z M14.286,12.402    c-1.068,0-1.93-0.864-1.93-1.93c0-1.068,0.862-1.934,1.93-1.934s1.932,0.867,1.932,1.934    C16.218,11.537,15.354,12.402,14.286,12.402z M19.53,12.402c-1.063,0-1.93-0.864-1.93-1.93c0-1.068,0.867-1.934,1.93-1.934    c1.068,0,1.934,0.867,1.934,1.934C21.464,11.537,20.598,12.402,19.53,12.402z M54.785,12.402H31.54    c-1.068,0-1.932-0.864-1.932-1.932c0-0.533,0.217-1.017,0.566-1.366c0.349-0.349,0.831-0.566,1.366-0.566h23.245    c1.068,0,1.932,0.867,1.932,1.932C56.717,11.537,55.853,12.402,54.785,12.402z" fill="#3C4752"/></g></g></svg>