<?xml version="1.0" ?><svg enable-background="new 0 0 64 64" id="Layer_1" version="1.1" viewBox="0 0 64 64" xml:space="preserve" xmlns="http://www.w3.org/2000/svg" xmlns:xlink="http://www.w3.org/1999/xlink"><g><path d="M42.382,7.083h-2.729c-0.237-0.593-0.712-1.305-1.305-1.78c-1.068-1.068-2.61-1.78-4.272-1.78h-4.272   c-2.492,0-4.628,1.543-5.458,3.56h-2.729c-1.305,0-2.373,1.068-2.373,2.373v4.628c0,1.305,1.068,2.373,2.373,2.373h20.646   c1.305,0,2.373-1.068,2.373-2.373V9.456C44.755,8.151,43.687,7.083,42.382,7.083z M32.059,10.049c-1.305,0-2.373-1.068-2.373-2.373   s1.068-2.373,2.373-2.373c1.305,0,2.373,1.068,2.373,2.373S33.365,10.049,32.059,10.049z" fill="#3C4752"/><path d="M53.773,10.405h-6.865v2.492h3.899c0.831,0.119,1.543,0.831,1.543,1.661v40.461   c0,0.917-0.744,1.661-1.661,1.661h-29.07h-7.86c-1.098,0-1.988-0.89-1.988-1.988v-7.86v-0.119V14.558   c0-0.917,0.744-1.661,1.661-1.661h3.543v-2.492h-6.628c-1.376,0-2.492,1.116-2.492,2.492v45.089c0,1.376,1.116,2.492,2.492,2.492   h43.309c1.376,0,2.492-1.116,2.492-2.492V12.897C56.146,11.473,55.078,10.405,53.773,10.405z" fill="#3C4752"/><g><g><path d="M41.904,32.033c-3.156,0-5.724-2.568-5.724-5.724s2.568-5.724,5.724-5.724     c3.156,0,5.724,2.568,5.724,5.724S45.061,32.033,41.904,32.033z M41.904,22.431c-2.138,0-3.878,1.74-3.878,3.878     s1.74,3.878,3.878,3.878s3.878-1.74,3.878-3.878S44.042,22.431,41.904,22.431z" fill="#2F7ABF"/><path d="M23.702,26.309l3.022-3.022c0.444-0.444,0.444-1.163,0-1.606c-0.444-0.443-1.163-0.443-1.606,0     l-3.022,3.022l-3.022-3.022c-0.444-0.444-1.163-0.444-1.606,0c-0.444,0.444-0.444,1.163,0,1.606l3.022,3.022l-3.022,3.022     c-0.444,0.444-0.444,1.163,0,1.606c0.222,0.222,0.512,0.333,0.803,0.333c0.291,0,0.581-0.111,0.803-0.333l3.022-3.022     l3.022,3.022c0.222,0.222,0.512,0.333,0.803,0.333c0.291,0,0.581-0.111,0.803-0.333c0.444-0.444,0.444-1.163,0-1.606     L23.702,26.309z" fill="#2F7ABF"/></g><g><path d="M43.51,46.233l3.022-3.022c0.444-0.444,0.444-1.163,0-1.606c-0.444-0.443-1.163-0.443-1.606,0     l-3.022,3.022l-3.022-3.022c-0.444-0.444-1.163-0.444-1.606,0c-0.444,0.444-0.444,1.163,0,1.606l3.022,3.022l-3.022,3.022     c-0.444,0.444-0.444,1.163,0,1.606c0.222,0.222,0.512,0.333,0.803,0.333c0.291,0,0.581-0.111,0.803-0.333l3.022-3.022     l3.022,3.022c0.222,0.222,0.512,0.333,0.803,0.333s0.581-0.111,0.803-0.333c0.444-0.444,0.444-1.163,0-1.606L43.51,46.233z" fill="#2F7ABF"/><path d="M39.444,36.108l-1.15-3.88c-0.106-0.361-0.487-0.566-0.847-0.46l-3.907,1.158     c-0.361,0.107-0.567,0.486-0.46,0.847c0.107,0.361,0.487,0.566,0.847,0.46l1.918-0.568c-2.131,3.489-3.508,3.79-4.027,3.744     c-0.358-0.032-0.636-0.221-1.061-0.527c-0.542-0.39-1.217-0.876-2.209-0.851c-1.721,0.043-3.217,1.576-4.617,4.78     c-0.576-0.195-1.193-0.302-1.835-0.302c-3.157,0-5.724,2.568-5.724,5.724c0,3.157,2.568,5.724,5.724,5.724     s5.724-2.568,5.724-5.724c0-1.695-0.741-3.22-1.914-4.269c1.448-3.43,2.475-3.657,2.697-3.664     c0.208-0.005,0.402,0.119,0.827,0.424c0.502,0.362,1.19,0.857,2.186,0.946c2.023,0.18,4.017-1.352,6.076-4.676l0.445,1.5     c0.097,0.33,0.422,0.53,0.751,0.482c0.032-0.005,0.064-0.012,0.095-0.021C39.344,36.848,39.551,36.469,39.444,36.108z      M25.974,46.233c0,2.138-1.74,3.878-3.878,3.878s-3.878-1.74-3.878-3.878c0-2.138,1.74-3.878,3.878-3.878     c0.4,0,0.786,0.061,1.15,0.174c0.775,0.242,1.447,0.721,1.93,1.352C25.676,44.533,25.974,45.348,25.974,46.233z" fill="#2F7ABF"/></g></g></g></svg>