<?xml version="1.0" encoding="utf-8"?>
<!-- Generator: Adobe Illustrator 23.0.3, SVG Export Plug-In . SVG Version: 6.00 Build 0)  -->
<svg version="1.1" id="Layer_1" xmlns="http://www.w3.org/2000/svg" xmlns:xlink="http://www.w3.org/1999/xlink" x="0px" y="0px"
	 viewBox="0 0 64 64" style="enable-background:new 0 0 64 64;" xml:space="preserve">
<style type="text/css">
	.st0{fill:#3C4752;}
	.st1{fill:#8B33BB;}
</style>
<g>
	<path class="st0" d="M43.7,4h-3.1c-0.3-0.7-0.8-1.5-1.5-2c-1.2-1.2-2.9-2-4.8-2h-4.8c-2.8,0-5.2,1.7-6.1,4h-3.1
		c-1.5,0-2.7,1.2-2.7,2.7v5.2c0,1.5,1.2,2.7,2.7,2.7h23.2c1.5,0,2.7-1.2,2.7-2.7V6.7C46.3,5.2,45.1,4,43.7,4z M32.1,7.3
		c-1.5,0-2.7-1.2-2.7-2.7S30.6,2,32.1,2c1.5,0,2.7,1.2,2.7,2.7S33.5,7.3,32.1,7.3z"/>
	<path class="st0" d="M56.5,7.7h-7.7v2.8h4.4c0.9,0.1,1.7,0.9,1.7,1.9v45.5c0,1-0.8,1.9-1.9,1.9H20.3h-8.8c-1.2,0-2.2-1-2.2-2.2
		v-8.8v-0.1V12.4c0-1,0.8-1.9,1.9-1.9h4V7.7H7.7c-1.5,0-2.8,1.3-2.8,2.8v50.7c0,1.5,1.3,2.8,2.8,2.8h48.7c1.5,0,2.8-1.3,2.8-2.8
		V10.5C59.1,8.9,57.9,7.7,56.5,7.7z"/>
	<g>
		<g>
			<path class="st1" d="M43.1,32c-3.5,0-6.4-2.9-6.4-6.4s2.9-6.4,6.4-6.4c3.5,0,6.4,2.9,6.4,6.4S46.7,32,43.1,32z M43.1,21.2
				c-2.4,0-4.4,2-4.4,4.4s2,4.4,4.4,4.4s4.4-2,4.4-4.4S45.5,21.2,43.1,21.2z"/>
			<path class="st1" d="M22.7,25.6l3.4-3.4c0.5-0.5,0.5-1.3,0-1.8s-1.3-0.5-1.8,0l-3.4,3.4l-3.4-3.4c-0.5-0.5-1.3-0.5-1.8,0
				c-0.5,0.5-0.5,1.3,0,1.8l3.4,3.4L15.7,29c-0.5,0.5-0.5,1.3,0,1.8c0.2,0.2,0.6,0.4,0.9,0.4c0.3,0,0.7-0.1,0.9-0.4l3.4-3.4l3.4,3.4
				c0.2,0.2,0.6,0.4,0.9,0.4s0.7-0.1,0.9-0.4c0.5-0.5,0.5-1.3,0-1.8L22.7,25.6z"/>
		</g>
		<g>
			<path class="st1" d="M44.9,48l3.4-3.4c0.5-0.5,0.5-1.3,0-1.8c-0.5-0.5-1.3-0.5-1.8,0l-3.4,3.4l-3.4-3.4c-0.5-0.5-1.3-0.5-1.8,0
				c-0.5,0.5-0.5,1.3,0,1.8l3.4,3.4l-3.4,3.4c-0.5,0.5-0.5,1.3,0,1.8c0.2,0.2,0.6,0.4,0.9,0.4s0.7-0.1,0.9-0.4l3.4-3.4l3.4,3.4
				c0.2,0.2,0.6,0.4,0.9,0.4c0.3,0,0.7-0.1,0.9-0.4c0.5-0.5,0.5-1.3,0-1.8L44.9,48z"/>
			<path class="st1" d="M40.4,36.6l-1.3-4.4c-0.1-0.4-0.5-0.6-1-0.5L33.7,33c-0.4,0.1-0.6,0.5-0.5,1c0.1,0.4,0.5,0.6,1,0.5l2.2-0.6
				c-2.4,3.9-3.9,4.3-4.5,4.2c-0.4,0-0.7-0.2-1.2-0.6c-0.6-0.4-1.4-1-2.5-1c-1.9,0-3.6,1.8-5.2,5.4c-0.6-0.2-1.3-0.3-2.1-0.3
				c-3.5,0-6.4,2.9-6.4,6.4c0,3.5,2.9,6.4,6.4,6.4s6.4-2.9,6.4-6.4c0-1.9-0.8-3.6-2.2-4.8c1.6-3.9,2.8-4.1,3-4.1
				c0.2,0,0.5,0.1,0.9,0.5c0.6,0.4,1.3,1,2.5,1.1c2.3,0.2,4.5-1.5,6.8-5.3l0.5,1.7c0.1,0.4,0.5,0.6,0.8,0.5c0,0,0.1,0,0.1,0
				C40.3,37.4,40.5,37,40.4,36.6z M25.2,48c0,2.4-2,4.4-4.4,4.4s-4.4-2-4.4-4.4c0-2.4,2-4.4,4.4-4.4c0.4,0,0.9,0.1,1.3,0.2
				c0.9,0.3,1.6,0.8,2.2,1.5C24.9,46.1,25.2,47,25.2,48z"/>
		</g>
	</g>
</g>
</svg>
