<?xml version="1.0" ?><svg enable-background="new 0 0 64 64" id="Layer_1" version="1.1" viewBox="0 0 64 64" xml:space="preserve" xmlns="http://www.w3.org/2000/svg" xmlns:xlink="http://www.w3.org/1999/xlink"><g><path d="M57.67,11H6.33c-1.064,0-1.927,0.863-1.927,1.927v38.147C4.403,52.137,5.266,53,6.33,53h51.34   c1.064,0,1.927-0.863,1.927-1.927V12.927C59.597,11.863,58.734,11,57.67,11z M19.665,13.181c1.056,0,1.912,0.856,1.912,1.912   c0,1.054-0.856,1.91-1.912,1.91c-1.054,0-1.91-0.856-1.91-1.91C17.756,14.037,18.612,13.181,19.665,13.181z M14.478,13.181   c1.056,0,1.91,0.856,1.91,1.912c0,1.054-0.854,1.91-1.91,1.91c-1.056,0-1.91-0.856-1.91-1.91   C12.568,14.037,13.422,13.181,14.478,13.181z M9.291,13.181c1.054,0,1.91,0.856,1.91,1.912c0,1.054-0.856,1.91-1.91,1.91   c-1.056,0-1.912-0.856-1.912-1.91C7.379,14.037,8.235,13.181,9.291,13.181z M56.451,49.665H7.547V19.184h48.904V49.665z    M56.451,15.092c0,1.055-0.856,1.911-1.911,1.911H31.544c-1.055,0-1.911-0.856-1.911-1.911v0c0-1.055,0.856-1.911,1.911-1.911   H54.54C55.595,13.181,56.451,14.037,56.451,15.092L56.451,15.092z" fill="#3C4752"/><g><path d="M34.459,30.876h-4.933c-1.669,0-3.027-1.358-3.027-3.027v-2.22c0-1.669,1.358-3.027,3.027-3.027h4.933    c1.669,0,3.027,1.358,3.027,3.027v2.22C37.486,29.518,36.128,30.876,34.459,30.876z" fill="#2F7ABF"/><path d="M20.62,46.382h-3.904c-1.321,0-2.395-1.075-2.395-2.395V42.23c0-1.321,1.075-2.395,2.395-2.395h3.904    c1.321,0,2.395,1.075,2.395,2.395v1.757C23.016,45.308,21.941,46.382,20.62,46.382z" fill="#2F7ABF"/><path d="M33.948,46.382h-3.904c-1.321,0-2.395-1.075-2.395-2.395V42.23c0-1.321,1.075-2.395,2.395-2.395h3.904    c1.321,0,2.395,1.075,2.395,2.395v1.757C36.344,45.308,35.269,46.382,33.948,46.382z" fill="#2F7ABF"/><path d="M47.276,46.382h-3.904c-1.321,0-2.395-1.075-2.395-2.395V42.23c0-1.321,1.075-2.395,2.395-2.395h3.904    c1.321,0,2.395,1.075,2.395,2.395v1.757C49.672,45.308,48.597,46.382,47.276,46.382z" fill="#2F7ABF"/><path d="M45.364,34.683H32.678v-1.5c0-0.377-0.305-0.682-0.682-0.682s-0.682,0.305-0.682,0.682v1.5H18.628    c-0.377,0-0.682,0.305-0.682,0.682v2.183c0,0.377,0.305,0.682,0.682,0.682s0.682-0.305,0.682-0.682v-1.5h12.004v1.5    c0,0.377,0.305,0.682,0.682,0.682s0.682-0.305,0.682-0.682v-1.5h12.004v1.5c0,0.377,0.305,0.682,0.682,0.682    c0.377,0,0.682-0.305,0.682-0.682v-2.183C46.046,34.989,45.741,34.683,45.364,34.683z" fill="#2F7ABF"/></g></g></svg>