<?xml version="1.0" ?><svg enable-background="new 0 0 64 64" id="Layer_1" version="1.1" viewBox="0 0 64 64" xml:space="preserve" xmlns="http://www.w3.org/2000/svg" xmlns:xlink="http://www.w3.org/1999/xlink"><g><path d="M46.732,41.551c-5.06,0-9.699-1.679-13.463-4.396v9.647c0,7.478,6.054,13.532,13.532,13.532   c7.478,0,13.532-6.054,13.532-13.532v-9.738C56.568,39.872,51.912,41.551,46.732,41.551z" fill="#3C4752"/><path d="M60.045,34.491c-0.11-0.459-0.251-0.908-0.424-1.341c-0.119-0.712-0.475-1.306-0.712-1.899   c-0.712-1.424-1.662-2.73-2.73-3.798c-2.023-2.023-4.822-3.442-7.883-3.817v3.932c-0.356-0.503-0.902-0.827-1.495-0.827   c-0.683,0-1.268,0.341-1.602,0.865v-3.99c-4.807,0.521-8.803,3.55-10.743,7.754c-0.356,0.594-0.594,1.187-0.712,1.899   c-0.126,0.421-0.221,0.842-0.293,1.269c3.241,2.746,7.286,4.43,11.749,4.745v-6.048c0.334,0.524,0.919,0.865,1.602,0.865   c0.615,0,1.15-0.276,1.495-0.714v5.891C52.72,38.942,56.809,37.199,60.045,34.491z" fill="#3C4752"/><g><path d="M16.74,14.242c-0.236-0.245-0.518-0.465-0.847-0.659c-0.329-0.195-0.7-0.378-1.114-0.552    c-0.104-0.043-0.204-0.086-0.3-0.127c-0.185-0.081-0.356-0.159-0.514-0.237c-0.234-0.115-0.435-0.232-0.6-0.351    c-0.004-0.003-0.008-0.006-0.013-0.009c-0.168-0.122-0.298-0.252-0.389-0.39c-0.091-0.137-0.137-0.291-0.137-0.465    c0-0.159,0.041-0.302,0.123-0.429c0.081-0.127,0.197-0.236,0.346-0.328c0.023-0.014,0.046-0.027,0.07-0.04    c0.135-0.073,0.294-0.131,0.478-0.173c0.193-0.045,0.405-0.07,0.636-0.074c0.028-0.001,0.056-0.001,0.085-0.001    c0.192,0,0.395,0.015,0.609,0.043c0.214,0.029,0.429,0.074,0.645,0.134c0.216,0.06,0.426,0.136,0.631,0.227    c0.266,0.12,0.566-0.075,0.566-0.367V9.536c0-0.355-0.243-0.663-0.587-0.75c-0.181-0.046-0.369-0.083-0.563-0.114    c-0.404-0.063-0.866-0.095-1.386-0.097V7.881h-1.114v0.775c-0.166,0.026-0.328,0.058-0.488,0.096    c-0.49,0.118-0.922,0.302-1.294,0.552c-0.372,0.25-0.666,0.568-0.883,0.955c-0.216,0.387-0.325,0.85-0.325,1.388    c0,0.687,0.198,1.274,0.595,1.759c0.396,0.485,0.999,0.897,1.806,1.232c0.205,0.084,0.402,0.168,0.589,0.249    c0.102,0.045,0.201,0.09,0.298,0.134c0.274,0.124,0.511,0.255,0.71,0.389c0.037,0.025,0.072,0.05,0.106,0.077    c0.15,0.113,0.272,0.234,0.366,0.364c0.115,0.159,0.173,0.339,0.173,0.54c0,0.149-0.036,0.287-0.109,0.415    c-0.072,0.127-0.182,0.238-0.328,0.332c-0.032,0.021-0.066,0.04-0.102,0.059c-0.127,0.066-0.275,0.12-0.445,0.161    c-0.194,0.047-0.417,0.073-0.669,0.078c-0.033,0.001-0.065,0.001-0.099,0.001c-0.5,0-0.995-0.088-1.486-0.263    c-0.264-0.095-0.517-0.215-0.761-0.36c-0.265-0.159-0.602,0.032-0.602,0.341v1.027c0,0.33,0.211,0.622,0.522,0.731    c0.248,0.086,0.517,0.156,0.808,0.211c0.511,0.096,1.05,0.144,1.616,0.144v0.694h1.114V19.19c0.157-0.022,0.312-0.049,0.463-0.081    c0.497-0.106,0.933-0.28,1.308-0.523c0.375-0.242,0.672-0.56,0.89-0.951c0.219-0.392,0.328-0.876,0.328-1.452    c0-0.419-0.063-0.785-0.188-1.1C17.155,14.767,16.975,14.487,16.74,14.242z" fill="#2F7ABF"/><g><path d="M13.921,3.667c-5.654,0-10.254,4.6-10.254,10.254s4.6,10.254,10.254,10.254s10.254-4.6,10.254-10.254     S19.575,3.667,13.921,3.667z M13.628,23.296v-1.082C9.186,22.059,5.62,18.4,5.62,13.921s3.566-8.139,8.008-8.294V4.546     c5.17,0,9.375,4.206,9.375,9.375S18.798,23.296,13.628,23.296z" fill="#2F7ABF"/><path d="M13.805,22.162v-0.466c4.287,0,7.775-3.488,7.775-7.775s-3.488-7.775-7.775-7.775V5.68     c4.544,0,8.241,3.697,8.241,8.241S18.349,22.162,13.805,22.162z" fill="#2F7ABF"/></g></g><path d="M46.878,17.224c-1.164-1.181-2.708-1.834-4.35-1.834H31.133c-3.901,0-6.957,3.056-6.957,6.958v7.241   c0,1.689-1.325,3.013-3.014,3.013h-2.255c-1.69,0-3.014-1.323-3.014-3.013v-4.162c-0.642,0.11-1.3,0.168-1.972,0.168   c-0.673,0-1.33-0.058-1.972-0.168v4.162c0,3.901,3.056,6.957,6.958,6.957h2.255c1.872,0,3.644-0.732,4.992-2.06   c1.344-1.327,2.085-3.066,2.085-4.897v-7.241c0-1.69,1.323-3.014,3.014-3.014h11.276c1.223,0,2.182,0.959,2.182,2.182v0.729   c0.001,0,0.002,0,0.002,0l1.908-0.01v0l0.257-0.001v-0.001l1.591-0.009l0.002,0c0.062,0.008,0.124,0.018,0.185,0.026v-0.735   C48.654,19.914,48.024,18.39,46.878,17.224z" fill="#3C4752"/></g></svg>