<?xml version="1.0" encoding="utf-8"?>
<!-- Generator: Adobe Illustrator 23.0.3, SVG Export Plug-In . SVG Version: 6.00 Build 0)  -->
<svg version="1.1" id="Layer_1" xmlns="http://www.w3.org/2000/svg" xmlns:xlink="http://www.w3.org/1999/xlink" x="0px" y="0px"
	 viewBox="0 0 64 64" style="enable-background:new 0 0 64 64;" xml:space="preserve">
<style type="text/css">
	.st0{fill:#3C4752;}
	.st1{fill:#8B33BB;}
</style>
<g>
	<path class="st0" d="M48.6,42.8c-5.7,0-11-1.9-15.2-5v10.9c0,8.4,6.8,15.3,15.3,15.3S64,57.2,64,48.7v-11
		C59.7,40.9,54.5,42.8,48.6,42.8z"/>
	<path class="st0" d="M63.7,34.8c-0.1-0.5-0.3-1-0.5-1.5c-0.1-0.8-0.5-1.5-0.8-2.1c-0.8-1.6-1.9-3.1-3.1-4.3
		c-2.3-2.3-5.4-3.9-8.9-4.3V27c-0.4-0.6-1-0.9-1.7-0.9c-0.8,0-1.4,0.4-1.8,1v-4.5c-5.4,0.6-9.9,4-12.1,8.8c-0.4,0.7-0.7,1.3-0.8,2.1
		c-0.1,0.5-0.2,1-0.3,1.4c3.7,3.1,8.2,5,13.3,5.4v-6.8c0.4,0.6,1,1,1.8,1c0.7,0,1.3-0.3,1.7-0.8v6.7C55.4,39.8,60,37.9,63.7,34.8z"
		/>
	<g>
		<path class="st1" d="M14.8,11.9c-0.3-0.3-0.6-0.5-1-0.7c-0.4-0.2-0.8-0.4-1.3-0.6c-0.1,0-0.2-0.1-0.3-0.1
			c-0.2-0.1-0.4-0.2-0.6-0.3C11.4,10,11.1,9.9,11,9.8c0,0,0,0,0,0c-0.2-0.1-0.3-0.3-0.4-0.4c-0.1-0.2-0.2-0.3-0.2-0.5
			c0-0.2,0-0.3,0.1-0.5c0.1-0.1,0.2-0.3,0.4-0.4c0,0,0.1,0,0.1,0c0.2-0.1,0.3-0.1,0.5-0.2c0.2-0.1,0.5-0.1,0.7-0.1c0,0,0.1,0,0.1,0
			c0.2,0,0.4,0,0.7,0c0.2,0,0.5,0.1,0.7,0.2C14,7.9,14.2,8,14.4,8.1c0.3,0.1,0.6-0.1,0.6-0.4v-1c0-0.4-0.3-0.7-0.7-0.8
			c-0.2-0.1-0.4-0.1-0.6-0.1c-0.5-0.1-1-0.1-1.6-0.1V4.8H11v0.9c-0.2,0-0.4,0.1-0.6,0.1c-0.6,0.1-1,0.3-1.5,0.6
			C8.5,6.6,8.2,7,7.9,7.4C7.7,7.9,7.6,8.4,7.6,9c0,0.8,0.2,1.4,0.7,2c0.4,0.5,1.1,1,2,1.4c0.2,0.1,0.5,0.2,0.7,0.3
			c0.1,0.1,0.2,0.1,0.3,0.2c0.3,0.1,0.6,0.3,0.8,0.4c0,0,0.1,0.1,0.1,0.1c0.2,0.1,0.3,0.3,0.4,0.4c0.1,0.2,0.2,0.4,0.2,0.6
			c0,0.2,0,0.3-0.1,0.5c-0.1,0.1-0.2,0.3-0.4,0.4c0,0-0.1,0-0.1,0.1c-0.1,0.1-0.3,0.1-0.5,0.2c-0.2,0.1-0.5,0.1-0.8,0.1
			c0,0-0.1,0-0.1,0c-0.6,0-1.1-0.1-1.7-0.3c-0.3-0.1-0.6-0.2-0.9-0.4c-0.3-0.2-0.7,0-0.7,0.4v1.2c0,0.4,0.2,0.7,0.6,0.8
			c0.3,0.1,0.6,0.2,0.9,0.2c0.6,0.1,1.2,0.2,1.8,0.2v0.8h1.3v-0.9c0.2,0,0.4-0.1,0.5-0.1c0.6-0.1,1.1-0.3,1.5-0.6
			c0.4-0.3,0.8-0.6,1-1.1c0.2-0.4,0.4-1,0.4-1.6c0-0.5-0.1-0.9-0.2-1.2C15.2,12.5,15,12.2,14.8,11.9z"/>
		<g>
			<path class="st1" d="M11.6,0C5.2,0,0,5.2,0,11.6s5.2,11.6,11.6,11.6S23.2,18,23.2,11.6S18,0,11.6,0z M11.3,22.2v-1.2
				c-5-0.2-9-4.3-9-9.4s4-9.2,9-9.4V1c5.8,0,10.6,4.8,10.6,10.6S17.1,22.2,11.3,22.2z"/>
		</g>
	</g>
	<path class="st0" d="M48.8,15.3c-1.3-1.3-3.1-2.1-4.9-2.1H31c-4.4,0-7.9,3.5-7.9,7.9v8.2c0,1.9-1.5,3.4-3.4,3.4h-2.5
		c-1.9,0-3.4-1.5-3.4-3.4v-4.7c-0.7,0.1-1.5,0.2-2.2,0.2c-0.8,0-1.5-0.1-2.2-0.2v4.7c0,4.4,3.5,7.9,7.9,7.9h2.5
		c2.1,0,4.1-0.8,5.6-2.3c1.5-1.5,2.4-3.5,2.4-5.5v-8.2c0-1.9,1.5-3.4,3.4-3.4h12.7c1.4,0,2.5,1.1,2.5,2.5V21c0,0,0,0,0,0l2.2,0l0,0
		l0.3,0v0l1.8,0h0c0.1,0,0.1,0,0.2,0v-0.8C50.8,18.3,50.1,16.6,48.8,15.3z"/>
</g>
</svg>
