<?xml version="1.0" ?><!DOCTYPE svg  PUBLIC '-//W3C//DTD SVG 1.1//EN'  'http://www.w3.org/Graphics/SVG/1.1/DTD/svg11.dtd'><svg height="60px" id="Layer_1" style="enable-background:new 0 0 60 60;" version="1.1" viewBox="0 0 60 60" width="60px" xml:space="preserve" xmlns="http://www.w3.org/2000/svg" xmlns:xlink="http://www.w3.org/1999/xlink"><style type="text/css">
	.st0{fill:#C2E4F8;}
	.st1{fill:#0A94E3;}
	.st2{fill:#FFFFFF;}
	.st3{fill:#E45544;}
	.st4{fill-rule:evenodd;clip-rule:evenodd;fill:#C2E4F8;}
	.st5{fill:#76D03B;}
	.st6{fill:none;stroke:#0A94E3;stroke-width:2;stroke-linecap:round;stroke-linejoin:round;stroke-miterlimit:10;}
	.st7{fill-rule:evenodd;clip-rule:evenodd;fill:#FFFFFF;}
</style><path class="st2" d="M52,18h5c1.1045876,0,2,0.8953991,2,2v39H1V20c0-1.1046009,0.8953878-2,2-2h5"/><path class="st1" d="M59,60H1c-0.5527344,0-1-0.4472656-1-1V20c0-1.6542969,1.3457031-3,3-3h5c0.5527344,0,1,0.4472656,1,1  s-0.4472656,1-1,1H3c-0.5517578,0-1,0.4482422-1,1v38h56V20c0-0.5517578-0.4482422-1-1-1h-5c-0.5527344,0-1-0.4472656-1-1  s0.4472656-1,1-1h5c1.6542969,0,3,1.3457031,3,3v39C60,59.5527344,59.5527344,60,59,60z"/><path class="st0" d="M35,35v1c0,2.7615013-2.2386131,5-5,5c-2.7614136,0-5-2.2384987-5-5v-1H7v18h46V35H35z"/><path class="st1" d="M53,54H7c-0.5527344,0-1-0.4472656-1-1V35c0-0.5527344,0.4472656-1,1-1h18c0.5527344,0,1,0.4472656,1,1v1  c0,2.2060547,1.7939453,4,4,4s4-1.7939453,4-4v-1c0-0.5527344,0.4472656-1,1-1h18c0.5527344,0,1,0.4472656,1,1v18  C54,53.5527344,53.5527344,54,53,54z M8,52h44V36H36c0,3.3085938-2.6914062,6-6,6s-6-2.6914062-6-6H8V52z"/><path class="st0" d="M35,29v7c0,2.7613983-2.2386131,5-5,5l0,0c-2.7614136,0-5-2.2386017-5-5v-7H35z"/><path class="st1" d="M30,42c-3.3085938,0-6-2.6914062-6-6v-7c0-0.5527344,0.4472656-1,1-1h10c0.5527344,0,1,0.4472656,1,1v7  C36,39.3085938,33.3085938,42,30,42z M26,30v6c0,2.2060547,1.7939453,4,4,4s4-1.7939453,4-4v-6H26z"/><path class="st1" d="M21,42h-6c-0.5527344,0-1-0.4472656-1-1s0.4472656-1,1-1h6c0.5527344,0,1,0.4472656,1,1S21.5527344,42,21,42z"/><path class="st1" d="M11,42c-0.1298828,0-0.2597656-0.0302734-0.3798828-0.0800781s-0.2304688-0.1201172-0.3300781-0.2099609  C10.0996094,41.5195312,10,41.2695312,10,41c0-0.2597656,0.109375-0.5205078,0.2900391-0.7099609  c0.2792969-0.2802734,0.7294922-0.3701172,1.0898438-0.2099609c0.1298828,0.0498047,0.2294922,0.1201172,0.3300781,0.2099609  C11.8896484,40.4794922,12,40.7402344,12,41c0,0.1298828-0.0302734,0.2597656-0.0800781,0.3798828  s-0.1201172,0.2294922-0.2099609,0.3300781C11.609375,41.7998047,11.5,41.8701172,11.3798828,41.9199219S11.1298828,42,11,42z"/><path class="st1" d="M41,48h-8c-0.5527344,0-1-0.4472656-1-1s0.4472656-1,1-1h8c0.5527344,0,1,0.4472656,1,1S41.5527344,48,41,48z"/><path class="st1" d="M17,48H7c-0.5527344,0-1-0.4472656-1-1s0.4472656-1,1-1h10c0.5527344,0,1,0.4472656,1,1S17.5527344,48,17,48z"/><path class="st1" d="M53,42h-8c-0.5527344,0-1-0.4472656-1-1s0.4472656-1,1-1h8c0.5527344,0,1,0.4472656,1,1S53.5527344,42,53,42z"/><path class="st1" d="M29,48c-0.2705078,0-0.5205078-0.1005859-0.7099609-0.2900391C28.0996094,47.5195312,28,47.2695312,28,47  c0-0.1298828,0.0195312-0.2597656,0.0800781-0.3798828c0.0498047-0.1201172,0.1201172-0.2304688,0.2099609-0.3300781  c0.3701172-0.3701172,1.0498047-0.3701172,1.4199219,0c0.0898438,0.0996094,0.1601562,0.2099609,0.2099609,0.3300781  S30,46.8701172,30,47c0,0.2695312-0.1005859,0.5195312-0.2900391,0.7099609  C29.609375,47.7998047,29.5,47.8701172,29.3798828,47.9199219S29.1298828,48,29,48z"/><path class="st1" d="M30,38c-0.5527344,0-1-0.4472656-1-1v-3c0-0.5527344,0.4472656-1,1-1s1,0.4472656,1,1v3  C31,37.5527344,30.5527344,38,30,38z"/><path class="st1" d="M30,36c-1.1025391,0-2-0.8974609-2-2s0.8974609-2,2-2s2,0.8974609,2,2S31.1025391,36,30,36z M30,33.9980469V34  V33.9980469z"/><path class="st0" d="M55,28v1H45v-1c0-2.7600002,2.2400017-5,5-5S55,25.2399998,55,28z"/><path class="st0" d="M45,28v1H35v-1c0-2.7600002,2.2400017-5,5-5S45,25.2399998,45,28z"/><path class="st0" d="M35,28v1H25v-1c0-2.7600002,2.2399998-5,5-5S35,25.2399998,35,28z"/><path class="st0" d="M25,28v1H15v-1c0-2.7600002,2.2399998-5,5-5S25,25.2399998,25,28z"/><path class="st0" d="M15,28v1H5v-1c0-2.7600002,2.2399998-5,5-5S15,25.2399998,15,28z"/><path class="st2" d="M30,23c-2.7600002,0-5,2.2399998-5,5c0-2.7600002-2.2399998-5-5-5c0-2.7600002,2.2399998-5,5-5  S30,20.2399998,30,23z"/><path class="st2" d="M40,23c-2.7599983,0-5,2.2399998-5,5c0-2.7600002-2.2400017-5-5-5c0-2.7600002,2.2400017-5,5-5  S40,20.2399998,40,23z"/><path class="st2" d="M50,23c-2.7599983,0-5,2.2399998-5,5c0-2.7600002-2.2400017-5-5-5c0-2.7600002,2.2400017-5,5-5  S50,20.2399998,50,23z"/><path class="st2" d="M20,23c-2.7600002,0-5,2.2399998-5,5c0-2.7600002-2.2399998-5-5-5c0-2.7600002,2.2399998-5,5-5  S20,20.2399998,20,23z"/><path class="st0" d="M35,8c-2.7599983,0-5,2.2399998-5,5c0-2.7600002-2.2399998-5-5-5c0-2.7600002,2.2399998-5,5-5  S35,5.2399998,35,8z"/><path class="st2" d="M30,13c-2.7600002,0-5,2.2399998-5,5c0-2.7600002-2.2399998-5-5-5c0-2.7600002,2.2399998-5,5-5  S30,10.2399998,30,13z"/><path class="st2" d="M40,13c-2.7599983,0-5,2.2399998-5,5c0-2.7600002-2.2400017-5-5-5c0-2.7600002,2.2400017-5,5-5  S40,10.2399998,40,13z"/><path class="st1" d="M5,30c-0.5527344,0-1-0.4472656-1-1v-1c0-3.3085938,2.6914062-6,6-6s6,2.6914062,6,6  c0,0.5527344-0.4472656,1-1,1s-1-0.4472656-1-1c0-2.2060547-1.7939453-4-4-4s-4,1.7939453-4,4v1C6,29.5527344,5.5527344,30,5,30z"/><path class="st1" d="M15,30c-0.5527344,0-1-0.4472656-1-1v-1c0-3.3085938,2.6914062-6,6-6s6,2.6914062,6,6  c0,0.5527344-0.4472656,1-1,1s-1-0.4472656-1-1c0-2.2060547-1.7939453-4-4-4s-4,1.7939453-4,4v1C16,29.5527344,15.5527344,30,15,30z  "/><path class="st1" d="M25,30c-0.5527344,0-1-0.4472656-1-1v-1c0-3.3085938,2.6914062-6,6-6s6,2.6914062,6,6  c0,0.5527344-0.4472656,1-1,1s-1-0.4472656-1-1c0-2.2060547-1.7939453-4-4-4s-4,1.7939453-4,4v1C26,29.5527344,25.5527344,30,25,30z  "/><path class="st1" d="M35,30c-0.5527344,0-1-0.4472656-1-1v-1c0-3.3085938,2.6914062-6,6-6s6,2.6914062,6,6  c0,0.5527344-0.4472656,1-1,1s-1-0.4472656-1-1c0-2.2060547-1.7939453-4-4-4s-4,1.7939453-4,4v1C36,29.5527344,35.5527344,30,35,30z  "/><path class="st1" d="M55,30c-0.5527344,0-1-0.4472656-1-1v-1c0-2.2060547-1.7939453-4-4-4s-4,1.7939453-4,4v1  c0,0.5527344-0.4472656,1-1,1s-1-0.4472656-1-1v-1c0-3.3085938,2.6914062-6,6-6s6,2.6914062,6,6v1  C56,29.5527344,55.5527344,30,55,30z"/><path class="st0" d="M40,23c0-2.7600002-2.2400017-5-5-5c0-2.7600002,2.2400017-5,5-5s5,2.2399998,5,5  C42.2400017,18,40,20.2399998,40,23z"/><path class="st0" d="M35,18c-2.7599983,0-5,2.2399998-5,5c0-2.7600002-2.2399998-5-5-5c0-2.7600002,2.2399998-5,5-5  S35,15.2399998,35,18z"/><path class="st0" d="M25,18c-2.7600002,0-5,2.2399998-5,5c0-2.7600002-2.2399998-5-5-5c0-2.7600002,2.2399998-5,5-5  S25,15.2399998,25,18z"/><path class="st1" d="M59,30H1c-0.5527344,0-1-0.4472656-1-1s0.4472656-1,1-1h58c0.5527344,0,1,0.4472656,1,1S59.5527344,30,59,30z"/><path class="st1" d="M35,9c-0.5527344,0-1-0.4472656-1-1c0-2.2060547-1.7939453-4-4-4s-4,1.7939453-4,4c0,0.5527344-0.4472656,1-1,1  s-1-0.4472656-1-1c0-3.3085938,2.6914062-6,6-6s6,2.6914062,6,6C36,8.5527344,35.5527344,9,35,9z"/><path class="st1" d="M30,14c-0.5527344,0-1-0.4472656-1-1c0-2.2060547-1.7939453-4-4-4s-4,1.7939453-4,4  c0,0.5527344-0.4472656,1-1,1s-1-0.4472656-1-1c0-3.3085938,2.6914062-6,6-6s6,2.6914062,6,6C31,13.5527344,30.5527344,14,30,14z"/><path class="st1" d="M40,14c-0.5527344,0-1-0.4472656-1-1c0-2.2060547-1.7939453-4-4-4s-4,1.7939453-4,4  c0,0.5527344-0.4472656,1-1,1s-1-0.4472656-1-1c0-3.3085938,2.6914062-6,6-6s6,2.6914062,6,6C41,13.5527344,40.5527344,14,40,14z"/><path class="st1" d="M25,19c-0.5527344,0-1-0.4472656-1-1c0-2.2060547-1.7939453-4-4-4s-4,1.7939453-4,4  c0,0.5527344-0.4472656,1-1,1s-1-0.4472656-1-1c0-3.3085938,2.6914062-6,6-6s6,2.6914062,6,6C26,18.5527344,25.5527344,19,25,19z"/><path class="st1" d="M35,19c-0.5527344,0-1-0.4472656-1-1c0-2.2060547-1.7939453-4-4-4s-4,1.7939453-4,4  c0,0.5527344-0.4472656,1-1,1s-1-0.4472656-1-1c0-3.3085938,2.6914062-6,6-6s6,2.6914062,6,6C36,18.5527344,35.5527344,19,35,19z"/><path class="st1" d="M45,19c-0.5527344,0-1-0.4472656-1-1c0-2.2060547-1.7939453-4-4-4s-4,1.7939453-4,4  c0,0.5527344-0.4472656,1-1,1s-1-0.4472656-1-1c0-3.3085938,2.6914062-6,6-6s6,2.6914062,6,6C46,18.5527344,45.5527344,19,45,19z"/><path class="st1" d="M20,24c-0.5527344,0-1-0.4472656-1-1c0-2.2060547-1.7939453-4-4-4s-4,1.7939453-4,4  c0,0.5527344-0.4472656,1-1,1s-1-0.4472656-1-1c0-3.3085938,2.6914062-6,6-6s6,2.6914062,6,6C21,23.5527344,20.5527344,24,20,24z"/><path class="st1" d="M30,24c-0.5527344,0-1-0.4472656-1-1c0-2.2060547-1.7939453-4-4-4s-4,1.7939453-4,4  c0,0.5527344-0.4472656,1-1,1s-1-0.4472656-1-1c0-3.3085938,2.6914062-6,6-6s6,2.6914062,6,6C31,23.5527344,30.5527344,24,30,24z"/><path class="st1" d="M40,24c-0.5527344,0-1-0.4472656-1-1c0-2.2060547-1.7939453-4-4-4s-4,1.7939453-4,4  c0,0.5527344-0.4472656,1-1,1s-1-0.4472656-1-1c0-3.3085938,2.6914062-6,6-6s6,2.6914062,6,6C41,23.5527344,40.5527344,24,40,24z"/><path class="st1" d="M50,24c-0.5527344,0-1-0.4472656-1-1c0-2.2060547-1.7939453-4-4-4s-4,1.7939453-4,4  c0,0.5527344-0.4472656,1-1,1s-1-0.4472656-1-1c0-3.3085938,2.6914062-6,6-6s6,2.6914062,6,6C51,23.5527344,50.5527344,24,50,24z"/></svg>