<?xml version="1.0" ?><svg enable-background="new 0 0 64 64" id="Layer_1" version="1.1" viewBox="0 0 64 64" xml:space="preserve" xmlns="http://www.w3.org/2000/svg" xmlns:xlink="http://www.w3.org/1999/xlink"><g><path d="M55.247,10.042l-6.542-6.395c-0.374-0.365-0.875-0.57-1.398-0.57H10.151c-1.104,0-2,0.895-2,2v53.846   c0,1.104,0.895,2,2,2h43.699c1.104,0,2-0.895,2-2V11.472C55.849,10.934,55.632,10.418,55.247,10.042z M12.15,56.923V7.077h33.158   v4.395c0,1.104,0.895,2,2,2h4.542v43.451H12.15z" fill="#3C4752"/><path d="M46.508,18.763h-18.43c-0.641,0-1.16-0.519-1.16-1.16s0.519-1.16,1.16-1.16h18.43   c0.641,0,1.16,0.519,1.16,1.16S47.148,18.763,46.508,18.763z" fill="#2F7ABF"/><path d="M46.508,28.545h-18.43c-0.641,0-1.16-0.519-1.16-1.16s0.519-1.16,1.16-1.16h18.43   c0.641,0,1.16,0.519,1.16,1.16S47.148,28.545,46.508,28.545z" fill="#2F7ABF"/><path d="M46.508,38.328h-18.43c-0.641,0-1.16-0.519-1.16-1.16s0.519-1.16,1.16-1.16h18.43   c0.641,0,1.16,0.519,1.16,1.16S47.148,38.328,46.508,38.328z" fill="#2F7ABF"/><path d="M46.508,48.11h-18.43c-0.641,0-1.16-0.519-1.16-1.16s0.519-1.16,1.16-1.16h18.43   c0.641,0,1.16,0.519,1.16,1.16S47.148,48.11,46.508,48.11z" fill="#2F7ABF"/><path d="M19.737,19.674c-0.26,0-0.519-0.099-0.717-0.297l-2.391-2.391c-0.396-0.396-0.396-1.038,0-1.434   c0.396-0.396,1.038-0.396,1.434,0l1.674,1.674l3.659-3.717c0.396-0.396,1.038-0.396,1.434,0c0.396,0.396,0.396,1.038,0,1.434   l-4.376,4.434C20.257,19.575,19.997,19.674,19.737,19.674z" fill="#2F7ABF"/><path d="M19.737,29.456c-0.26,0-0.519-0.099-0.717-0.297l-2.391-2.391c-0.396-0.396-0.396-1.038,0-1.434   c0.396-0.396,1.038-0.396,1.434,0l1.674,1.674l3.659-3.717c0.396-0.396,1.038-0.396,1.434,0c0.396,0.396,0.396,1.038,0,1.434   l-4.376,4.434C20.257,29.357,19.997,29.456,19.737,29.456z" fill="#2F7ABF"/><path d="M20.73,41.006c-2.117,0-3.839-1.722-3.839-3.839c0-2.117,1.722-3.839,3.839-3.839   c2.117,0,3.839,1.722,3.839,3.839C24.569,39.284,22.847,41.006,20.73,41.006z M20.73,34.478c-1.483,0-2.689,1.206-2.689,2.689   c0,1.483,1.206,2.689,2.689,2.689c1.483,0,2.689-1.206,2.689-2.689C23.419,35.685,22.213,34.478,20.73,34.478z" fill="#2F7ABF"/><path d="M20.73,50.789c-2.117,0-3.839-1.722-3.839-3.839s1.722-3.839,3.839-3.839c2.117,0,3.839,1.722,3.839,3.839   S22.847,50.789,20.73,50.789z M20.73,44.261c-1.483,0-2.689,1.206-2.689,2.689c0,1.483,1.206,2.689,2.689,2.689   c1.483,0,2.689-1.206,2.689-2.689C23.419,45.467,22.213,44.261,20.73,44.261z" fill="#2F7ABF"/></g></svg>