<?xml version="1.0" encoding="utf-8"?>
<!-- Generator: Adobe Illustrator 23.0.3, SVG Export Plug-In . SVG Version: 6.00 Build 0)  -->
<svg version="1.1" id="Layer_1" xmlns="http://www.w3.org/2000/svg" xmlns:xlink="http://www.w3.org/1999/xlink" x="0px" y="0px"
	 viewBox="0 0 64 64" style="enable-background:new 0 0 64 64;" xml:space="preserve">
<style type="text/css">
	.st0{fill:#3C4752;}
	.st1{fill:#8B33BB;}
</style>
<g>
	<path class="st0" d="M57.7,7.7l-7.2-7.1c-0.4-0.4-1-0.6-1.5-0.6H7.8C6.6,0,5.6,1,5.6,2.2v59.6c0,1.2,1,2.2,2.2,2.2h48.3
		c1.2,0,2.2-1,2.2-2.2V9.3C58.4,8.7,58.1,8.1,57.7,7.7z M10,59.6V4.4h36.7v4.9c0,1.2,1,2.2,2.2,2.2h5v48.1H10z"/>
	<path class="st1" d="M48.1,17.4H27.7c-0.7,0-1.3-0.6-1.3-1.3c0-0.7,0.6-1.3,1.3-1.3h20.4c0.7,0,1.3,0.6,1.3,1.3
		C49.3,16.8,48.8,17.4,48.1,17.4z"/>
	<path class="st1" d="M48.1,28.2H27.7c-0.7,0-1.3-0.6-1.3-1.3s0.6-1.3,1.3-1.3h20.4c0.7,0,1.3,0.6,1.3,1.3S48.8,28.2,48.1,28.2z"/>
	<path class="st1" d="M48.1,39H27.7c-0.7,0-1.3-0.6-1.3-1.3c0-0.7,0.6-1.3,1.3-1.3h20.4c0.7,0,1.3,0.6,1.3,1.3
		C49.3,38.4,48.8,39,48.1,39z"/>
	<path class="st1" d="M48.1,49.8H27.7c-0.7,0-1.3-0.6-1.3-1.3s0.6-1.3,1.3-1.3h20.4c0.7,0,1.3,0.6,1.3,1.3S48.8,49.8,48.1,49.8z"/>
	<path class="st1" d="M18.4,18.4c-0.3,0-0.6-0.1-0.8-0.3L15,15.4c-0.4-0.4-0.4-1.1,0-1.6s1.1-0.4,1.6,0l1.9,1.9l4-4.1
		c0.4-0.4,1.1-0.4,1.6,0s0.4,1.1,0,1.6L19.2,18C19,18.3,18.7,18.4,18.4,18.4z"/>
	<path class="st1" d="M18.4,29.2c-0.3,0-0.6-0.1-0.8-0.3L15,26.2c-0.4-0.4-0.4-1.1,0-1.6c0.4-0.4,1.1-0.4,1.6,0l1.9,1.9l4-4.1
		c0.4-0.4,1.1-0.4,1.6,0s0.4,1.1,0,1.6l-4.8,4.9C19,29.1,18.7,29.2,18.4,29.2z"/>
	<path class="st1" d="M19.5,42c-2.3,0-4.2-1.9-4.2-4.2c0-2.3,1.9-4.2,4.2-4.2s4.2,1.9,4.2,4.2C23.8,40.1,21.9,42,19.5,42z
		 M19.5,34.7c-1.6,0-3,1.3-3,3c0,1.6,1.3,3,3,3s3-1.3,3-3C22.5,36.1,21.2,34.7,19.5,34.7z"/>
	<path class="st1" d="M19.5,52.8c-2.3,0-4.2-1.9-4.2-4.2s1.9-4.2,4.2-4.2s4.2,1.9,4.2,4.2S21.9,52.8,19.5,52.8z M19.5,45.6
		c-1.6,0-3,1.3-3,3c0,1.6,1.3,3,3,3s3-1.3,3-3C22.5,46.9,21.2,45.6,19.5,45.6z"/>
</g>
</svg>
