<?xml version="1.0" ?><svg enable-background="new 0 0 64 64" id="Layer_1" version="1.1" viewBox="0 0 64 64" xml:space="preserve" xmlns="http://www.w3.org/2000/svg" xmlns:xlink="http://www.w3.org/1999/xlink"><g><path d="M60.529,52.352c0.509,0,0.922-0.413,0.922-0.922v-2.521H30.677H2.548v2.521   c0,0.509,0.413,0.922,0.922,0.922h4.488v3.074H3.471c-0.509,0-0.922,0.413-0.922,0.922v3.443c0,0.509,0.413,0.922,0.922,0.922H32   h28.529c0.509,0,0.922-0.413,0.922-0.922v-3.443c0-0.509-0.413-0.922-0.922-0.922h-4.488v-3.074H60.529z M18.289,55.426h-3.566   v-3.074h3.566V55.426z M28.618,55.426h-3.566v-3.074h3.566V55.426z M38.948,55.426h-3.566v-3.074h3.566V55.426z M49.277,55.426   h-3.566v-3.074h3.566V55.426z" fill="#3C4752"/><path d="M3.471,11.156c-0.509,0-0.922,0.413-0.922,0.922v3.013h28.129h30.775v-3.013   c0-0.509-0.413-0.922-0.922-0.922h-4.488V8.082h4.488c0.509,0,0.922-0.413,0.922-0.922V4.209c0-0.509-0.413-0.922-0.922-0.922H32   H3.471c-0.509,0-0.922,0.413-0.922,0.922V7.16c0,0.509,0.413,0.922,0.922,0.922h4.488v3.074H3.471z M45.711,8.082h3.566v3.074   h-3.566V8.082z M35.382,8.082h3.566v3.074h-3.566V8.082z M25.052,8.082h3.566v3.074h-3.566V8.082z M14.723,8.082h3.566v3.074   h-3.566V8.082z" fill="#3C4752"/><path d="M32,18.781c-7.289,0-13.219,5.93-13.219,13.219S24.711,45.219,32,45.219S45.219,39.289,45.219,32   S39.289,18.781,32,18.781z M37.81,32.614l-7.483,6.008c-0.167,0.134-0.371,0.203-0.577,0.203c-0.136,0-0.272-0.03-0.399-0.091   c-0.32-0.153-0.523-0.477-0.523-0.832V26.097c0-0.352,0.2-0.673,0.516-0.828c0.316-0.155,0.692-0.116,0.971,0.099l7.483,5.798   c0.223,0.173,0.355,0.439,0.357,0.721C38.157,32.169,38.03,32.437,37.81,32.614z" fill="#2F7ABF"/></g></svg>