<?xml version="1.0" encoding="utf-8"?>
<!-- Generator: Adobe Illustrator 23.0.3, SVG Export Plug-In . SVG Version: 6.00 Build 0)  -->
<svg version="1.1" id="Layer_1" xmlns="http://www.w3.org/2000/svg" xmlns:xlink="http://www.w3.org/1999/xlink" x="0px" y="0px"
	 viewBox="0 0 24 24" style="enable-background:new 0 0 24 24;" xml:space="preserve">
<style type="text/css">
	.st0{fill:#EFEFEF;}
	.st1{fill:#E0E0E0;}
</style>
<g>
	<g>
		<g>
			<path class="st0" d="M3.9,16.5L3.9,16.5c-0.2,0-0.3-0.1-0.3-0.2c-0.6-1.3-1-2.5-1-4v-0.2v-0.2c0-1.4,0.3-2.7,1-4
				c0.3-0.8,0.8-1.4,1.4-2.1c1.8-2.1,4.5-3.3,7.3-3.3c2.4,0,4.5,0.8,6.4,2.4c0,0.2,0.1,0.2,0.1,0.3c0,0.1,0,0.2-0.1,0.3l-2.7,2.6
				c-0.2,0.2-0.4,0.2-0.6,0c-1-0.6-2-1.1-3.2-1.1c-1,0-2.1,0.3-2.9,0.9c-0.9,0.6-1.6,1.6-1.9,2.6c-0.2,0.4-0.2,0.9-0.2,1.4
				c0,0.1,0,0.2,0,0.2s0,0.2,0,0.2c0,0.5,0.1,0.9,0.2,1.4c0.1,0.2,0,0.3-0.2,0.5l-3.1,2.3C4.1,16.4,4,16.5,3.9,16.5z M12.2,3.3
				c-2.6,0-5,1.1-6.7,2.9C5,6.9,4.5,7.5,4.2,8.2c-0.6,1.1-0.8,2.3-0.9,3.6V12v0.2c0,1.1,0.2,2.1,0.6,3.1l2.5-1.7
				c-0.1-0.4-0.2-0.8-0.2-1.3c0-0.1,0-0.2,0-0.2s0-0.2,0-0.2c0-0.6,0.1-1.1,0.2-1.6c0.4-1.2,1.1-2.1,2.1-2.9c2-1.4,4.8-1.5,6.8-0.1
				l2.1-2.1C16.1,4.1,14.1,3.3,12.2,3.3z"/>
		</g>
		<g>
			<path class="st0" d="M12.2,21.5c-2.8,0-5.5-1.2-7.3-3.3c-0.6-0.6-1-1.4-1.4-2c-0.1-0.2,0-0.4,0.1-0.5l3.1-2.3
				c0.1-0.1,0.2-0.1,0.4-0.1c0.2,0,0.2,0.2,0.2,0.2c0.3,1,1,1.8,1.8,2.5c0.3,0.2,0.8,0.5,1.2,0.6c0.6,0.2,1.2,0.3,1.8,0.3
				c1.1,0,2.1-0.2,2.9-0.7c0.8-0.5,1.3-1.2,1.6-2h-4.4c-0.2,0-0.4-0.2-0.4-0.4v-3.5c0-0.2,0.2-0.4,0.4-0.4h8.7
				c0.2,0,0.3,0.2,0.4,0.3c0.2,0.6,0.2,1.3,0.2,1.7c0,1.6-0.2,2.9-0.9,4.3c-0.5,1.1-1.2,2.1-2.1,2.9c-1,0.9-2.4,1.7-3.7,2.1
				C13.9,21.5,13,21.5,12.2,21.5z M4.4,16.1c0.3,0.6,0.6,1.1,1.1,1.6c1.7,1.9,4.1,2.9,6.8,2.9c0.9,0,1.6-0.1,2.4-0.3
				c1.3-0.3,2.5-1,3.3-1.8c0.8-0.7,1.4-1.6,1.8-2.5c0.5-1.2,0.9-2.5,0.9-4c0-0.4-0.1-0.8-0.2-1.3h-7.9v2.7h4.5
				c0.2,0,0.2,0.1,0.3,0.2s0.1,0.2,0.1,0.3c-0.2,1.3-1,2.3-2.1,2.9c-1,0.6-2,0.8-3.3,0.8c-0.8,0-1.4-0.2-2.1-0.4
				c-0.5-0.2-1-0.4-1.4-0.7c-0.9-0.6-1.5-1.4-1.9-2.3L4.4,16.1z"/>
		</g>
	</g>
	<g>
		<path class="st1" d="M7,10.8c-0.1,0-0.2,0-0.2-0.1L3.7,8.3C3.4,8.3,3.4,7.9,3.6,7.7C3.7,7.5,4,7.5,4.1,7.6l3.1,2.3
			c0.2,0.2,0.2,0.5,0.1,0.6C7.2,10.7,7.1,10.8,7,10.8z"/>
	</g>
	<g>
		<path class="st1" d="M18.2,19.3c-0.1,0-0.2,0-0.2-0.1L15,17c-0.2-0.2-0.2-0.4-0.1-0.6s0.4-0.2,0.6-0.1l2.9,2.2
			c0.2,0.2,0.2,0.4,0.1,0.6C18.4,19.2,18.4,19.3,18.2,19.3z"/>
	</g>
	<g>
		<path class="st1" d="M18.3,14.4h-4.9c-0.2,0-0.4-0.2-0.4-0.4s0.2-0.4,0.4-0.4h4.9c0.2,0,0.4,0.2,0.4,0.4S18.5,14.4,18.3,14.4z"/>
	</g>
</g>
</svg>
