<?xml version="1.0" encoding="utf-8"?>
<!-- Generator: Adobe Illustrator 23.0.3, SVG Export Plug-In . SVG Version: 6.00 Build 0)  -->
<svg version="1.1" id="Layer_1" xmlns="http://www.w3.org/2000/svg" xmlns:xlink="http://www.w3.org/1999/xlink" x="0px" y="0px"
	 viewBox="0 0 128 128" style="enable-background:new 0 0 128 128;" xml:space="preserve">
<style type="text/css">
	.st0{fill:none;stroke:#EFEFEF;stroke-width:6.5;stroke-miterlimit:10;}
</style>
<title></title>
<path class="st0" d="M42.4,57.5v35.8c0,0,1.7,24.2,32.3,24.2c12.5,0,18.6-4.5,20.3-6.1c0.3-0.3,0.5-0.8,0.4-1.2
	C94.9,107.6,93.2,99,90,93c-0.4-0.7-1.2-0.9-1.8-0.5c0,0,0,0-0.1,0c-1.2,0.7-3.4,1.5-7.5,1.5c-4,0.1-7.5-2.5-8.6-6.3V57.5h18.6
	c0.8,0,1.4-0.6,1.4-1.4l0,0V37.1c0-0.8-0.6-1.4-1.4-1.4l0,0H71.9V10.9c0-0.7-0.6-1.4-1.4-1.4h-18c-0.7,0-1.3,0.6-1.3,1.3
	c-0.4,4.6-2.8,20.9-19.7,27c-0.5,0.2-0.9,0.7-0.9,1.2v17.2c0,0.8,0.6,1.4,1.4,1.4c0,0,0,0,0,0H42.4z"/>
</svg>
