<?xml version="1.0" encoding="utf-8"?>
<!-- Generator: Adobe Illustrator 23.0.3, SVG Export Plug-In . SVG Version: 6.00 Build 0)  -->
<svg version="1.1" id="Layer_1" xmlns="http://www.w3.org/2000/svg" xmlns:xlink="http://www.w3.org/1999/xlink" x="0px" y="0px"
	 viewBox="0 0 128 128" style="enable-background:new 0 0 128 128;" xml:space="preserve">
<style type="text/css">
	.st0{fill:#EFEFEF;}
</style>
<title></title>
<path class="st0" d="M86.9,30.7c5.3,0.1,10.4,2.3,14,6.2c0,0,7.6-1.5,11.9-4.5c0,0-1.1,5.9-8.1,10.4h0.1c0.5,0,4.5-0.1,10.7-3
	c0,0-1.2,3.4-9.3,9.8l0,0c0.5,15.3-7.1,43.5-35,53.5c-6.1,2.2-12.6,3.4-19.2,3.4c-10.5,0-20.7-3-29.5-8.7C24,98,25.4,98,26.7,98
	c16.5,0,24.5-8.5,24.1-8.5h-0.6c-14,0-17.4-13.4-17.4-13.4c1.1,0.7,2.4,1,3.7,0.9c1.7,0,3.4-0.3,5-0.7
	c-15.8-3.7-15.2-18.9-15.2-18.9c2.1,1.4,4.6,2.2,7.2,2.3c0.4,0,0.8,0,1.3-0.1c-14.4-11.4-5.7-25-5.7-25c16.3,18.9,36.3,19.5,39,19.5
	h0.3c-1.5-8.9,2.2-17.4,12-22C82.4,31.1,84.6,30.6,86.9,30.7 M106.2,49.6L106.2,49.6 M122,18l-12.9,9.1c-2,1.2-4.1,2.1-6.3,2.6
	c-4.5-3.5-10.1-5.5-15.8-5.5l0,0c-3.2,0-6.4,0.7-9.3,2c-9.2,4.3-14.8,11.8-15.9,20.7c-10.9-2.2-20.7-8.1-27.8-16.6l-5.7-6.6L23.5,31
	c-3,5-4.2,10.9-3.4,16.7l-0.4,9.5c-0.1,6,1.9,11.9,5.7,16.7l1,3.9c1.4,5,4.3,9.5,8.4,12.9c-2.7,0.6-5.4,0.9-8.1,0.9
	c-1.2,0-2.4-0.1-3.7-0.2L0.1,89.5l18.5,13.6c9.9,6.5,21.5,10,33.3,9.9c7.3,0,14.5-1.3,21.4-3.8c13.7-4.9,25.1-14.9,31.7-27.9
	c4.6-8.9,7.2-18.7,7.6-28.7c6.6-5.7,8.4-9.3,8.9-10.7l5.1-14.6l-7,3.3L122,18z"/>
</svg>
