<?xml version="1.0" encoding="utf-8"?>
<!-- Generator: Adobe Illustrator 23.0.3, SVG Export Plug-In . SVG Version: 6.00 Build 0)  -->
<svg version="1.1" id="Layer_1" xmlns="http://www.w3.org/2000/svg" xmlns:xlink="http://www.w3.org/1999/xlink" x="0px" y="0px"
	 viewBox="0 0 128 128" style="enable-background:new 0 0 128 128;" xml:space="preserve">
<style type="text/css">
	.st0{fill:#EFEFEF;}
	.st1{fill:#E0E0E0;}
</style>
<title></title>
<path class="st0" d="M64,32.3c0.2,0,22.9,0,37.9,1.1l0.7,0.1c2,0.2,4.2,0.4,6.3,2.6l0,0l0,0c1,1,2.1,4.5,2.5,7.1
	c0.6,5.5,1,11.1,1,16.7V68c0,5.6-0.4,11.2-1,16.7c-0.4,2.5-1.5,6.1-2.5,7l0,0l0,0c-2.1,2.2-4.3,2.4-6.3,2.6l-0.7,0.1
	c-14.7,1-36.9,1.1-37.9,1.1c-1.2,0-28-0.3-36.6-1c-0.5-0.1-1-0.2-1.6-0.2c-2.3-0.3-4.9-0.6-6.7-2.5l0,0l0,0c-1-1-2.1-4.5-2.5-7.1
	c-0.6-5.5-1-11.1-1-16.7v-8.2c0-5.6,0.4-11.2,1-16.7c0.4-2.5,1.5-6.1,2.5-7.1l0,0l0,0c2.1-2.2,4.3-2.4,6.3-2.6l0.7-0.1
	C41.1,32.4,63.8,32.4,64,32.3L64,32.3 M64,25.9L64,25.9c0,0-23.1,0-38.5,1.1c-2.1,0.3-6.8,0.3-11,4.6c-3.3,3.3-4.4,10.8-4.4,10.8
	C9.5,48.2,9.1,54,9,59.9v8.2c0,5.9,0.4,11.8,1.1,17.6c0,0,1.1,7.5,4.4,10.8c4.2,4.3,9.7,4.2,12.1,4.7c8.8,0.8,37.4,1.1,37.4,1.1
	s23.1,0,38.5-1.1c2.2-0.3,6.8-0.3,11-4.6c3.3-3.3,4.4-10.8,4.4-10.8c0.7-5.8,1.1-11.7,1.1-17.6v-8.2c0-5.9-0.4-11.8-1.1-17.6
	c0,0-1.1-7.5-4.4-10.8c-4.2-4.3-8.9-4.4-11-4.6C87.1,25.8,64,25.8,64,25.9L64,25.9z"/>
<polygon class="st1" points="54.1,47.6 54.1,80.4 82.1,64 "/>
</svg>
