<svg xmlns="http://www.w3.org/2000/svg" viewBox="0 0 1820.5 1592.9"><path d="M1090.8 1364.9V530H717.7v834.9c0 19.4 7 34.4 21 44.9s31.9 15.7 53.6 15.7h223.9c21.8 0 39.6-5.2 53.6-15.7s21-25.5 21-44.9zM559.1 380.8h227.4L639.6 193c-20.2-24.1-47-36.1-80.5-36.1-31.1 0-57.5 10.9-79.3 32.6s-32.6 48.2-32.6 79.3 10.9 57.5 32.6 79.3 48.2 32.7 79.3 32.7zm802.2-112c0-31.1-10.9-57.5-32.6-79.3-21.8-21.8-48.2-32.6-79.3-32.6-33.4 0-60.2 12-80.5 36.1l-145.8 187.7h226.2c31.1 0 57.5-10.9 79.3-32.6 21.8-21.7 32.7-48.2 32.7-79.3zm438.4 298.5v373.1c0 10.9-3.5 19.8-10.5 26.8s-15.9 10.5-26.8 10.5h-111.9v485.1c0 31.1-10.9 57.5-32.6 79.3-21.8 21.8-48.2 32.6-79.3 32.6H269.9c-31.1 0-57.5-10.9-79.3-32.6s-32.6-48.2-32.6-79.3v-485H46.1c-10.9 0-19.8-3.5-26.8-10.5S8.8 951.4 8.8 940.5V567.3c0-10.9 3.5-19.8 10.5-26.8S35.2 530 46.1 530h513c-72.3 0-133.9-25.5-184.8-76.4s-76.4-112.5-76.4-184.8S323.4 134.9 374.3 84 486.8 7.6 559.1 7.6c83.2 0 148.5 29.9 195.9 89.8l149.2 192.4 149.2-192.4c47.4-59.9 112.7-89.8 195.9-89.8 72.3 0 133.9 25.5 184.8 76.4 50.9 50.9 76.4 112.5 76.4 184.8s-25.5 133.9-76.4 184.8c-50.9 50.9-112.5 76.4-184.8 76.4h513c10.9 0 19.8 3.5 26.8 10.5 7.1 7 10.6 16 10.6 26.8z" fill="#dce1e5"/></svg>