<svg height="104" width="104" xmlns="http://www.w3.org/2000/svg"><g transform="translate(2 2)" stroke="#263238" stroke-width="3.5" fill="none" fill-rule="evenodd" stroke-linecap="round" stroke-linejoin="round"><path d="M65.817 82.81a11.87 11.87 0 017.766 2.9l13.284 13.233c1.024.886 4.52 1.038 5.657.31 15.901-10.16 2.521-47.255-4.25-56.253-.443-.59-3.332-5.134-7.6-7.476-4.431-2.43-10.99-1.718-11.498-1.376 0 0-5.6 4.852-6.412 4.852H37.691c-.812 0-6.867-4.852-6.867-4.852-.48-.324-6.582-1.295-10.775.982-4.514 2.45-7.865 7.26-8.323 7.87-6.771 8.998-20.151 46.093-4.25 56.253 1.138.727 4.635.574 5.657-.31L26.417 85.71a11.87 11.87 0 017.766-2.9h31.634z" fill="#597584"/><circle cx="62.069" cy="69.382" fill="#CFD8DC" r="7.5"/><circle cx="24.086" cy="51.477" fill="#CFD8DC" r="7.5"/><path fill="#CFD8DC" d="M41.67 65.675l-.001-5.76h-5.774v5.76H30.12v5.759h5.775v5.76h5.774v-5.76h5.775v-5.76z"/><path d="M73 63a3.5 3.5 0 100-7 3.5 3.5 0 000 7h0zm0-15a3.5 3.5 0 100-7 3.5 3.5 0 000 7h0zm-11 4a3.5 3.5 0 107 0 3.5 3.5 0 00-7 0h0zm15 0a3.5 3.5 0 107 0 3.5 3.5 0 00-7 0h0z" fill="#8BE48F"/><path d="M81 0v14.444c0 2.987-2.375 5.417-5.294 5.417-2.919 0-5.294-2.43-5.294-5.417V9.931C70.412 4.456 67.359 0 60.706 0 54.052 0 51 4.456 51 9.93V39"/></g></svg>