<svg height="60" id="Layer_1" version="1.1" width="60" xml:space="preserve" xmlns="http://www.w3.org/2000/svg"><style>.st1{fill:#0a94e3}.st2{fill:#fff}</style><path d="M50.507 43h-34c-1.104 0-1.76-.895-1.464-2l5.895-22c.296-1.105 1.432-2 2.536-2h34c1.105 0 1.76.895 1.464 2l-5.895 22c-.296 1.105-1.431 2-2.536 2z" fill="#c2e4f8"/><path class="st2" d="M16.507 43h34c.576 0 1.158-.247 1.627-.637L40.554 30h-7.126L15.24 42.397c.264.371.707.603 1.267.603z"/><path class="st1" d="M52.078 43.414a.995.995 0 01-.732-.32L39.82 30.682a1 1 0 011.465-1.362L52.81 41.734a1 1 0 01-.733 1.681zm-36.826 0a1 1 0 01-.565-1.826l18.178-12.414a1 1 0 111.127 1.652L15.814 43.24a.996.996 0 01-.562.174z"/><path class="st2" d="M58.725 17.59l-20.96 14.325c-.912.627-2 .627-2.576 0L21.906 17.591"/><path class="st1" d="M36.353 33.385c-.733 0-1.416-.266-1.9-.793L21.173 18.27a1 1 0 011.467-1.36l13.283 14.324c.2.217.742.224 1.276-.144l20.962-14.325a1 1 0 011.129 1.65L38.33 32.74c-.627.432-1.322.645-1.977.645zM14.991 22h-5a1 1 0 110-2h5a1 1 0 110 2z"/><path class="st1" d="M50.508 44h-34c-.827 0-1.569-.348-2.033-.953-.479-.623-.623-1.464-.398-2.306l5.896-22c.412-1.537 1.949-2.741 3.5-2.741h34c.828 0 1.569.348 2.034.953.478.623.623 1.464.397 2.306l-5.895 22C53.597 42.796 52.059 44 50.508 44zM23.474 18c-.657 0-1.39.588-1.57 1.259l-5.895 22c-.064.236-.044.444.053.57.108.142.302.171.446.171h34c.656 0 1.39-.588 1.57-1.259l5.895-22c.063-.236.044-.444-.053-.571-.108-.14-.303-.17-.446-.17h-34zM12.991 30h-8a1 1 0 110-2h8a1 1 0 110 2zm-2 8h-10a1 1 0 110-2h10a1 1 0 110 2z"/></svg>