<svg version="1.1" id="Icon_Set" xmlns="http://www.w3.org/2000/svg" x="0" y="0" viewBox="0 0 256 256" xml:space="preserve"><style>.st4{fill:#fff}.st6{fill:#4c4372}</style><circle cx="128" cy="128" r="103.9" fill="#17eeff"/><path d="M186.1 203.5H69.9V124c0-32 26-58 58.1-58s58.1 26 58.1 58.1v79.4z" fill="#d4e7f8"/><circle cx="128" cy="45.2" r="7.5" fill="#fd919f"/><path d="M128 66c-2.9 0-5.8.2-8.7.6 28 4.2 49.4 28.3 49.4 57.4v79.5H186V124c.1-32-25.9-58-58-58z" fill="#a0d1f2"/><path class="st4" d="M110.8 150.8h34.5c2 0 3.9-.8 5.2-2.3 5.4-5.9 8.4-14 7.7-22.8-1.2-14.8-13.2-26.6-28-27.6-17.7-1.2-32.4 12.8-32.4 30.2 0 7.8 3 14.9 7.8 20.3 1.3 1.4 3.2 2.2 5.2 2.2z"/><circle cx="128" cy="128.3" r="12.6" fill="#7babf3"/><path class="st4" d="M110.7 177.1h7.2l-3.6 8.6-3.6 8.7-3.6-8.7-3.6-8.6zm34.6 0h7.2l-3.6 8.6-3.6 8.7-3.6-8.7-3.6-8.6z"/><path class="st6" d="M186.1 206.5H69.9c-1.7 0-3-1.3-3-3V124c0-33.6 27.4-61 61.1-61s61.1 27.4 61.1 61.1v79.5c0 1.6-1.4 2.9-3 2.9zm-113.2-6H183V124c0-30.4-24.7-55.1-55.1-55.1s-55 24.8-55 55.1v76.5z"/><path class="st6" d="M128 143.9c-8.6 0-15.6-7-15.6-15.6s7-15.6 15.6-15.6 15.6 7 15.6 15.6-7 15.6-15.6 15.6zm0-25.3c-5.3 0-9.6 4.3-9.6 9.6s4.3 9.6 9.6 9.6 9.6-4.3 9.6-9.6-4.3-9.6-9.6-9.6z"/><path class="st6" d="M145.2 153.8h-34.5c-2.8 0-5.6-1.2-7.4-3.3-5.5-6.1-8.6-14-8.6-22.3 0-18.3 14.9-33.3 33.3-33.3.8 0 1.6 0 2.3.1 16.2 1.1 29.5 14.2 30.8 30.4.8 9.3-2.2 18.2-8.5 25.1-1.8 2.1-4.5 3.3-7.4 3.3zM128 101c-15 0-27.3 12.2-27.3 27.3 0 6.8 2.5 13.3 7 18.3.8.8 1.8 1.3 3 1.3h34.5c1.1 0 2.2-.5 3-1.3 5.1-5.6 7.6-12.9 6.9-20.6-1.1-13.3-11.9-24-25.2-24.9-.6-.1-1.3-.1-1.9-.1zm23.7 79.1h-47.4c-9.4 0-17.1-7.7-17.1-17.1 0-1.7 1.3-3 3-3s3 1.3 3 3c0 6.1 5 11.1 11.1 11.1h47.4c6.1 0 11.1-5 11.1-11.1 0-1.7 1.3-3 3-3s3 1.3 3 3c0 9.4-7.7 17.1-17.1 17.1z"/><path class="st6" d="M110.7 197.4c-1.2 0-2.3-.7-2.8-1.8l-7.2-17.3c-.4-.9-.3-2 .3-2.8s1.5-1.3 2.5-1.3H118c1 0 1.9.5 2.5 1.3s.7 1.9.3 2.8l-7.2 17.3c-.6 1-1.7 1.8-2.9 1.8zm-2.7-17.3l2.7 6.5 2.7-6.5H108zm37.3 17.3c-1.2 0-2.3-.7-2.8-1.8l-7.2-17.3c-.4-.9-.3-2 .3-2.8s1.5-1.3 2.5-1.3h14.5c1 0 1.9.5 2.5 1.3s.7 1.9.3 2.8l-7.2 17.3c-.6 1-1.7 1.8-2.9 1.8zm-2.7-17.3l2.7 6.5 2.7-6.5h-5.4zm33.6-33.7c-1.7 0-3-1.3-3-3v-19c0-1.7 1.3-3 3-3s3 1.3 3 3v19c0 1.6-1.4 3-3 3zm-96.4 0c-1.7 0-3-1.3-3-3v-19c0-1.7 1.3-3 3-3s3 1.3 3 3v19c0 1.6-1.3 3-3 3zM128 69c-1.7 0-3-1.3-3-3V52.8c0-1.7 1.3-3 3-3s3 1.3 3 3V66c0 1.6-1.3 3-3 3z"/><path class="st6" d="M128 55.8c-5.8 0-10.5-4.7-10.5-10.5s4.7-10.5 10.5-10.5 10.5 4.7 10.5 10.5c0 5.7-4.7 10.5-10.5 10.5zm0-15.1c-2.5 0-4.5 2-4.5 4.5s2 4.5 4.5 4.5 4.5-2 4.5-4.5-2-4.5-4.5-4.5z"/></svg>