<?xml version="1.0" encoding="utf-8"?>
<!-- Generator: Adobe Illustrator 23.0.3, SVG Export Plug-In . SVG Version: 6.00 Build 0)  -->
<svg version="1.1" id="Icon_Set" xmlns="http://www.w3.org/2000/svg" xmlns:xlink="http://www.w3.org/1999/xlink" x="0px" y="0px"
	 viewBox="0 0 256 256" style="enable-background:new 0 0 256 256;" xml:space="preserve">
<style type="text/css">
	.st0{fill:#17EEFF;}
	.st1{fill:#D4E7F8;}
	.st2{fill:#FD919F;}
	.st3{fill:#A0D1F2;}
	.st4{fill:#FFFFFF;}
	.st5{fill:#7BABF3;}
	.st6{fill:#4C4372;}
</style>
<g>
	<g>
		<circle class="st0" cx="128" cy="128" r="103.9"/>
	</g>
	<g>
		<path class="st1" d="M186.1,203.5H69.9V124C69.9,92,95.9,66,128,66l0,0c32.1,0,58.1,26,58.1,58.1V203.5z"/>
	</g>
	<g>
		<circle class="st2" cx="128" cy="45.2" r="7.5"/>
	</g>
	<g>
		<path class="st3" d="M128,66L128,66c-2.9,0-5.8,0.2-8.7,0.6c28,4.2,49.4,28.3,49.4,57.4v79.5h17.3V124C186.1,92,160.1,66,128,66z"
			/>
	</g>
	<g>
		<path class="st4" d="M110.8,150.8h34.5c2,0,3.9-0.8,5.2-2.3c5.4-5.9,8.4-14,7.7-22.8c-1.2-14.8-13.2-26.6-28-27.6
			c-17.7-1.2-32.4,12.8-32.4,30.2c0,7.8,3,14.9,7.8,20.3C106.9,150,108.8,150.8,110.8,150.8z"/>
	</g>
	<g>
		<circle class="st5" cx="128" cy="128.3" r="12.6"/>
	</g>
	<g>
		<polygon class="st4" points="110.7,177.1 117.9,177.1 114.3,185.7 110.7,194.4 107.1,185.7 103.5,177.1 		"/>
	</g>
	<g>
		<polygon class="st4" points="145.3,177.1 152.5,177.1 148.9,185.7 145.3,194.4 141.7,185.7 138.1,177.1 		"/>
	</g>
	<g>
		<path class="st6" d="M186.1,206.5H69.9c-1.7,0-3-1.3-3-3V124C66.9,90.4,94.3,63,128,63s61.1,27.4,61.1,61.1v79.5
			C189.1,205.2,187.7,206.5,186.1,206.5z M72.9,200.5h110.1V124c0-30.4-24.7-55.1-55.1-55.1S72.9,93.7,72.9,124V200.5z"/>
	</g>
	<g>
		<path class="st6" d="M128,143.9c-8.6,0-15.6-7-15.6-15.6s7-15.6,15.6-15.6s15.6,7,15.6,15.6S136.6,143.9,128,143.9z M128,118.6
			c-5.3,0-9.6,4.3-9.6,9.6s4.3,9.6,9.6,9.6c5.3,0,9.6-4.3,9.6-9.6S133.3,118.6,128,118.6z"/>
	</g>
	<g>
		<path class="st6" d="M145.2,153.8h-34.5c-2.8,0-5.6-1.2-7.4-3.3c-5.5-6.1-8.6-14-8.6-22.3c0-18.3,14.9-33.3,33.3-33.3
			c0.8,0,1.6,0,2.3,0.1c16.2,1.1,29.5,14.2,30.8,30.4c0.8,9.3-2.2,18.2-8.5,25.1C150.8,152.6,148.1,153.8,145.2,153.8z M128,101
			c-15,0-27.3,12.2-27.3,27.3c0,6.8,2.5,13.3,7,18.3c0.8,0.8,1.8,1.3,3,1.3h34.5c1.1,0,2.2-0.5,3-1.3c5.1-5.6,7.6-12.9,6.9-20.6
			c-1.1-13.3-11.9-24-25.2-24.9C129.3,101,128.6,101,128,101z"/>
	</g>
	<g>
		<path class="st6" d="M151.7,180.1h-47.4c-9.4,0-17.1-7.7-17.1-17.1c0-1.7,1.3-3,3-3s3,1.3,3,3c0,6.1,5,11.1,11.1,11.1h47.4
			c6.1,0,11.1-5,11.1-11.1c0-1.7,1.3-3,3-3s3,1.3,3,3C168.8,172.4,161.1,180.1,151.7,180.1z"/>
	</g>
	<g>
		<path class="st6" d="M110.7,197.4c-1.2,0-2.3-0.7-2.8-1.8l-7.2-17.3c-0.4-0.9-0.3-2,0.3-2.8s1.5-1.3,2.5-1.3h14.5
			c1,0,1.9,0.5,2.5,1.3s0.7,1.9,0.3,2.8l-7.2,17.3C113,196.6,111.9,197.4,110.7,197.4z M108,180.1l2.7,6.5l2.7-6.5H108z"/>
	</g>
	<g>
		<path class="st6" d="M145.3,197.4L145.3,197.4c-1.2,0-2.3-0.7-2.8-1.8l-7.2-17.3c-0.4-0.9-0.3-2,0.3-2.8s1.5-1.3,2.5-1.3h14.5
			c1,0,1.9,0.5,2.5,1.3s0.7,1.9,0.3,2.8l-7.2,17.3C147.6,196.6,146.5,197.4,145.3,197.4z M142.6,180.1l2.7,6.5l2.7-6.5H142.6z"/>
	</g>
	<g>
		<path class="st6" d="M176.2,146.4c-1.7,0-3-1.3-3-3v-19c0-1.7,1.3-3,3-3s3,1.3,3,3v19C179.2,145,177.8,146.4,176.2,146.4z"/>
	</g>
	<g>
		<path class="st6" d="M79.8,146.4c-1.7,0-3-1.3-3-3v-19c0-1.7,1.3-3,3-3s3,1.3,3,3v19C82.8,145,81.5,146.4,79.8,146.4z"/>
	</g>
	<g>
		<path class="st6" d="M128,69c-1.7,0-3-1.3-3-3V52.8c0-1.7,1.3-3,3-3s3,1.3,3,3V66C131,67.6,129.7,69,128,69z"/>
	</g>
	<g>
		<path class="st6" d="M128,55.8c-5.8,0-10.5-4.7-10.5-10.5c0-5.8,4.7-10.5,10.5-10.5s10.5,4.7,10.5,10.5
			C138.5,51,133.8,55.8,128,55.8z M128,40.7c-2.5,0-4.5,2-4.5,4.5s2,4.5,4.5,4.5s4.5-2,4.5-4.5S130.5,40.7,128,40.7z"/>
	</g>
</g>
</svg>
