<svg xmlns="http://www.w3.org/2000/svg" viewBox="0 0 297 297"><path d="M155 6.5c-30.1 0-58.9 9.3-83.3 27-2.8 2-3.5 5.9-1.7 8.8l22.9 37.1c1 1.6 2.5 2.6 4.3 3 1.8.4 3.7-.1 5.1-1.1C116.5 71 133.4 65.5 151 65.5c45.8 0 83 37.2 83 83s-37.2 83-83 83c-17.6 0-34.5-5.5-48.7-15.8-1.5-1.1-3.3-1.5-5.1-1.1-1.8.4-3.4 1.4-4.3 3L70 254.7c-1.8 2.9-1.1 6.8 1.7 8.8 24.3 17.7 53.1 27 83.3 27 78.3 0 142-63.7 142-142s-63.7-142-142-142z" fill="#ff4343"/><path d="M90.4 201.8c1.1-2.1 1-4.7-.3-6.8l-15.5-23.2h93.6c12.8 0 23.3-10.5 23.3-23.3s-10.5-23.3-23.3-23.3H74.6L90.1 102c1.3-2 1.5-4.6.3-6.8-1.1-2.1-3.4-3.5-5.8-3.5H40c-2.2 0-4.3 1.1-5.5 2.9L1.1 144.8c-1.5 2.2-1.5 5.1 0 7.3l33.4 50.1c1.2 1.8 3.3 2.9 5.5 2.9h44.6c2.4.1 4.7-1.2 5.8-3.3z" fill="#f9f9f9"/></svg>