<?xml version="1.0" encoding="utf-8"?>
<!-- Generator: Adobe Illustrator 23.0.3, SVG Export Plug-In . SVG Version: 6.00 Build 0)  -->
<svg version="1.1" id="Layer_1" xmlns="http://www.w3.org/2000/svg" xmlns:xlink="http://www.w3.org/1999/xlink" x="0px" y="0px"
	 viewBox="0 0 297 297" style="enable-background:new 0 0 297 297;" xml:space="preserve">
<style type="text/css">
	.st0{fill:#FF4343;}
	.st1{fill:#F9F9F9;}
</style>
<g>
	<g>
		<g>
			<path class="st0" d="M155,6.5c-30.1,0-58.9,9.3-83.3,27c-2.8,2-3.5,5.9-1.7,8.8l22.9,37.1c1,1.6,2.5,2.6,4.3,3
				c1.8,0.4,3.7-0.1,5.1-1.1c14.2-10.3,31.1-15.8,48.7-15.8c45.8,0,83,37.2,83,83s-37.2,83-83,83c-17.6,0-34.5-5.5-48.7-15.8
				c-1.5-1.1-3.3-1.5-5.1-1.1c-1.8,0.4-3.4,1.4-4.3,3L70,254.7c-1.8,2.9-1.1,6.8,1.7,8.8c24.3,17.7,53.1,27,83.3,27
				c78.3,0,142-63.7,142-142S233.3,6.5,155,6.5z"/>
			<path class="st1" d="M90.4,201.8c1.1-2.1,1-4.7-0.3-6.8l-15.5-23.2h93.6c12.8,0,23.3-10.5,23.3-23.3s-10.5-23.3-23.3-23.3H74.6
				L90.1,102c1.3-2,1.5-4.6,0.3-6.8c-1.1-2.1-3.4-3.5-5.8-3.5H40c-2.2,0-4.3,1.1-5.5,2.9L1.1,144.8c-1.5,2.2-1.5,5.1,0,7.3
				l33.4,50.1c1.2,1.8,3.3,2.9,5.5,2.9h44.6C87,205.2,89.3,203.9,90.4,201.8z"/>
		</g>
	</g>
</g>
</svg>
