<svg height="60" id="Layer_1" version="1.1" width="60" xml:space="preserve" xmlns="http://www.w3.org/2000/svg"><style>.st2{fill:#0a94e3}</style><path d="M9 1h30c1.1 0 2 .9 2 2v42c0 1.1-.9 2-2 2H29V14.19c0-.73-.4-1.41-1.04-1.76L8 1.55l-.27-.09C8.08 1.17 8.52 1 9 1z" fill="#c2e4f8"/><path d="M29 47v10.32c0 .75-.81 1.24-1.48.87L9.45 48.33A4.687 4.687 0 0 1 7 44.21V3c0-.62.28-1.17.73-1.54l.27.09 19.96 10.88c.64.35 1.04 1.03 1.04 1.76V47z" fill="#fff"/><path class="st2" d="M57 28H35a1 1 0 1 1 0-2h22a1 1 0 1 1 0 2z"/><path class="st2" d="M51 34a1 1 0 0 1-.707-1.707l6-6a1 1 0 1 1 1.414 1.414l-6 6A.997.997 0 0 1 51 34z"/><path class="st2" d="M57 28a.997.997 0 0 1-.707-.293l-6-6a1 1 0 1 1 1.414-1.414l6 6A1 1 0 0 1 57 28zM29 48a1 1 0 0 1-1-1V14.187a1 1 0 0 0-.521-.877L7.523 2.425A1 1 0 1 1 8.481.669l19.956 10.885A2.999 2.999 0 0 1 30 14.187V47a1 1 0 0 1-1 1z"/><path class="st2" d="M28 59.318c-.327 0-.656-.082-.958-.247l-18.075-9.86A5.692 5.692 0 0 1 6 44.214V3c0-1.654 1.346-3 3-3h30c1.654 0 3 1.346 3 3v14.03a1 1 0 1 1-2 0V3c0-.552-.449-1-1-1H9c-.551 0-1 .448-1 1v41.213c0 1.352.738 2.596 1.925 3.243L28 57.316V47a1 1 0 0 1 1-1h10c.551 0 1-.448 1-1v-7.97a1 1 0 1 1 2 0V45c0 1.654-1.346 3-3 3h-9v9.315c0 .713-.366 1.356-.979 1.72a1.994 1.994 0 0 1-1.02.283z"/><path class="st2" d="M23 34a1 1 0 0 1-1-1v-4a1 1 0 1 1 2 0v4a1 1 0 0 1-1 1z"/></svg>