<svg xmlns="http://www.w3.org/2000/svg" viewBox="0 0 186.73 159.32"><defs><style>.cls-1{fill:#7d4199}.cls-3{fill:#fff}</style></defs><g id="Layer_2" data-name="Layer 2"><g id="Layer_2-2" data-name="Layer 2"><path class="cls-1" d="M101.42 157.45c-2.94 1.33-3.46 1.57-3.53 1.61a2.42 2.42 0 01-1.08.26 2.35 2.35 0 01-1.4-.46 2.26 2.26 0 01-.91-1.28l-2 1.27-1.94-1.27a2.33 2.33 0 01-.92 1.29 2.37 2.37 0 01-2.47.19l-3.54-1.61 1.44 1.87-6.59-1.81c-.15 0-14.78-4.06-24.35-9a77.29 77.29 0 01-15.12-10.88v6.9l-3.69-4.16a74.68 74.68 0 01-8.15-9.31 30.82 30.82 0 01-3.77-7l-.7 3.14-2.87-5.94c-2.86-5.9-3.34-13.31-3.31-18l-6.25 4.51 1.42-6a105.89 105.89 0 016.49-18l-3.68 1.42L17 80c9.31-19.5 23.06-27.67 23.65-28 23.19-14.84 41.24-18.3 48.53-19.09v-.16l1.88-.11H94l2 .1v.18c7.28.81 25.3 4.3 48.44 19.16 13.05 8.7 20.37 21.25 23.58 28l2.48 5.2-3.68-1.42a106.81 106.81 0 016.48 18l1.42 6-6.24-4.51c0 4.66-.46 12.07-3.31 18l-2.87 5.94-.66-3a33.09 33.09 0 01-3.81 6.79 75.14 75.14 0 01-8.25 9.41l-.09.08-4.32 2.79v-5a74.09 74.09 0 01-14.26 10.1c-9.56 4.92-24.2 8.95-24.34 9l-6.6 1.81zm-24.17-8l8.25 3.77-.69-4.88 7.31 4.81 7.3-4.81-.69 4.88 8.25-3.77 4.1-1.87 1.57 2-.93 1.23a121 121 0 0016.73-6.7c9-4.71 17.57-13.61 17.65-13.7l4-4.14V132l.83.24c1-1.22 2-2.48 3-3.77 3.85-5.13 5.5-13.23 5.57-13.57l.22-1.15H163a52.07 52.07 0 00.77-14.81l-.57-5.13 3.9 2.81a131 131 0 00-6.78-15.92l-2.82-5.39 3.65 1.4C152.73 62.43 142.16 56 142.05 56c-24-15.4-41.75-18.17-48.28-18.64l-1.86-.09-.46.07c-6.6.49-24.42 3.26-48.34 18.62A63.77 63.77 0 0024 76.69l3.65-1.4-2.82 5.38a127.66 127.66 0 00-6.78 15.93l3.89-2.81-.56 5.14a53 53 0 00.57 13.8h2.58l.19 1h1l-.46 2.19c.75 2.89 2.38 8.1 5.1 11.78 1.23 1.66 2.52 3.27 3.85 4.81v-6.28l4 4.13c.08.1 8.63 9 17.65 13.71a121.28 121.28 0 0016.73 6.7l-.93-1.23 1.57-2z"/><path class="cls-1" d="M66.62 76.89s-2 5.28 1.22 17.07l.41 2.23s-12.8 0-16.25-13c0 0 6.09-9.14 15.44-8.53z"/><path class="cls-1" d="M66.83 94.16s3.25-2.23 3.65-10.16-3-9.55-3-9.55 5.28 1.22 7.92 7.72 1.83 8.94 1.83 8.94-3.86 5.08-8.94 5.29m47.21-19.51s2 5.28-1.22 17.07l-.41 2.23s12.8 0 16.25-13c0 0-6.09-9.14-15.44-8.53z"/><path class="cls-1" d="M115.29 94.16S112 91.93 111.64 84s3-9.55 3-9.55-5.28 1.22-7.92 7.72-1.83 8.94-1.83 8.94 3.86 5.08 8.94 5.29"/><path fill="#231f20" d="M98.11 99.14l-3.45-.82-4.07 1.83h-.4l-4.06-1.83-3.46.82-3.05-.82 3.05 3.05 2.85-.81 3.25 2.64-.82 1.22 2.44 3 2.44-3-.81-1.22 3.25-2.64 2.84.81 3.05-3.05-3.05.82z"/><path class="cls-3" d="M40.52 89l.3 5.18h1.63s-.31 4.88 0 4.88 2.54.4 2.54.4l.71 3.46 2.13-.2.61 4.57 3.35-1.29-.79 5.12 4.16-.92 1.43 5.69 3.25-2.64 3 3.55 1.33-2.13 1.32 3.45 1.93-2.53-1.33-.11.11-.81s-11-3.15-13.72-7.31l.11-.92-3-2.13A50.86 50.86 0 0140.52 89zm49.16 23.14l-2.54 8S84 115.29 84 114.07c0 0 2.33-.91 5.68-1.93zm-5.69 1.83l-1.83 4.97-1.83-4.06m-.6.31s-1.93 3.45-1.73 10.56c0 0-3.15-5.08-2.74-10.16m-4.07.51a7.82 7.82 0 002.34 4.17S73.94 117 75 116"/><path class="cls-3" d="M67.23 115.69a7.82 7.82 0 002.34 4.17s.41-3.25 1.42-4.27"/><path class="cls-3" d="M90.2 110.92a44.88 44.88 0 01-24.74 4.22l.09.78 1.62-.6 1.36-.52-1.43-.26c-.1 0-10.66-2.08-15-8l-.38.64 1.63.21.23-.77c-.14-.07-14-7.48-13.79-29.5H39c-.2 22.53 14.1 30.15 14.24 30.22l.24-.76-1.63-.2-.93-.12.55.76c4.52 6.15 15.05 8.2 15.49 8.28l-.06-.78-1.63.61-1.52.57 1.61.22a45.69 45.69 0 0025.24-4.32zM140.47 89l-.31 5.18h-1.62s.3 4.88 0 4.88-2.54.4-2.54.4l-.71 3.46-2.14-.2-.61 4.57-3.35-1.29.81 5.08-4.16-.92-1.42 5.69-3.25-2.64-3 3.55-1.32-2.13-1.32 3.45-1.93-2.53 1.32-.11-.1-.81s11-3.15 13.71-7.31l-.1-.92 3-2.13A50.86 50.86 0 00140.47 89zM91.3 112.14l2.54 8s3.16-4.85 3.16-6.07c0 0-2.34-.91-5.7-1.93zm5.69 1.83l1.83 4.97 1.83-4.06m.61.31s1.93 3.45 1.73 10.56c0 0 3.14-5.08 2.74-10.16m4.06.51a7.76 7.76 0 01-2.33 4.17S107.05 117 106 116"/><path class="cls-3" d="M113.75 115.69a7.76 7.76 0 01-2.33 4.17s-.41-3.25-1.43-4.27"/><path class="cls-3" d="M90.4 111.64a45.69 45.69 0 0025.23 4.36l1.61-.21-1.52-.57-1.62-.61-.07.78c.45-.08 11-2.13 15.49-8.28l.56-.76-.94.11-1.62.21.23.76c.15-.07 14.44-7.69 14.24-30.23h-.81c.2 22-13.66 29.43-13.8 29.5l.24.76 1.62-.2-.38-.64c-4.32 5.89-14.87 7.94-15 8l-1.43.27 1.36.51 1.63.61.09-.78a44.82 44.82 0 01-24.74-4.22zm-47.75-11.11l1.36-.07.2 2.03-1.56-1.96zm2.71 3.52l1.49-.21.41 3.59-2.04-3.25.14-.13zm3.05 4.4l1.69 2.78.54-3.93m1.02 5.08l2.98-.61.81 4.4m1.96.61l2.17-2.17 2.3 4.81m1.22-.27l1-2 1.62 3.12L67 118.2a6.5 6.5 0 003.11 3.45l.55-3.18a28 28 0 002.5 3.66c.75.68 1.15-1.76 1.15-1.76l.88 2.71s-8.46-.41-12.46-3.39"/><path class="cls-3" d="M137.79 100.53l-1.35-.07-.2 2.03 1.55-1.96zm-2.7 3.52l-1.49-.21-.41 3.59 2.03-3.25-.13-.13zm-2.58 4.26l-1.69 2.78-.54-3.93m-.81 4.95l-2.99-.61-.81 4.4m-2.23.88l-2.17-2.17-2.3 4.81m-1.36-.34l-1-2-1.61 3.15-1.28-2.1a6.58 6.58 0 01-3.12 3.46l-.6-3.19a27.33 27.33 0 01-2.51 3.66c-.74.68-1.15-1.76-1.15-1.76l-.88 2.71s8.47-.41 12.46-3.39M79 121.86s.54-4.07.81-4a58.09 58.09 0 012.64 5.49l-3.66-.27m4.09.27l.87-5.29 3.39 5.56 2.78-6.77 4.06 6.77 2.71-5.01 1.89 4.87m.68-.13l1.43-5.89 1.35 5.82M63.68 43.4c.13.1 12.95 10.44 21.69 32.17l1.56-.39c0-.2-2.31-20.79-15.32-36l-1.24 1C83.05 55.06 85.3 75.15 85.32 75.35v.17l1.56-.52c-9-22.43-22.12-32.79-22.24-32.87zm58.51-1.27c-.13.1-13.28 10.68-22.19 32.83l1.56.39c0-.2 2.08-20 14.76-34.78l-1.23-1.06C102.07 54.7 100 75 99.94 75.19l1.57.38c8.75-21.76 21.56-32.07 21.69-32.17zm-35.25-6.31l5.15 40.33h1.61l5.15-40.6-1.61-.2-5.15 40.8h1.61l-5.14-40.53-1.62.2zM36.9 79.81c.1-.15 2.28-3.71 4.88-2.29l.39-.71c-2.63-1.44-5.05 1.06-6 2.58zm102.15-2.25c.11 0 2.77-.67 5.53 3.09l.65-.48c-3.11-4.24-6.26-3.44-6.39-3.4z"/><path class="cls-1" d="M21.66 69.59L32 49.55l.45-.87-.75-.62c-8.53-7.16-21.65-9.9-22.21-10l-1.1-.23L8 38.91.17 66.54l-.17.6.39.49 10.29 13 .94 1.18 1-1.16 8.94-10.84.08-.1zm-9.07 9.58l-10.29-13 .22 1.09 7.85-27.63-1.37.86c.12 0 13.07 2.74 21.13 9.49l-.31-1.49-10.33 20.05.14-.22-8.93 10.83z"/><path class="cls-1" d="M10.65 39.78l14.63-16.53-.98.41 5.15.28-1.12-1.51-1.9 7.86-.16.69.52.49 15.44 14.35-.39-.98-.71 9.04 2.43.19.71-9.05.05-.58-.43-.4-15.44-14.36.35 1.18L30.7 23l.34-1.42-1.46-.08-5.15-.27-.59-.03-.39.44L8.83 38.16l1.82 1.62z"/><path class="cls-1" transform="rotate(-18.44 36.943 47.222)" d="M30.54 46.83h12.85v.81H30.54z"/><path class="cls-1" transform="rotate(-51.85 23.55 70.527)" d="M23.15 68.12h.81v4.82h-.81z"/><path class="cls-1" d="M29.62 24.17l18.69 8.4-.11-.07c.31.29 7.55 7.2 2.63 15.75l.71.4c5.24-9.11-2.71-16.65-2.79-16.75h-.06L30 23.43z"/><path class="cls-1" transform="rotate(-37.82 17.462 50.618)" d="M17.05 37.59h.81v26.06h-.81z"/><path class="cls-1" d="M167.24 68.52L157 48.47l-.3 1.49c8-6.75 21-9.46 21.13-9.49l-1.42-.86 7.85 27.63.22-1.09-10.29 13h1.89L167.1 68.3zm8.81 12.11l10.29-13 .39-.49-.17-.6-7.86-27.63-.31-1.09-1.1.23c-.56.11-13.68 2.85-22.21 10l-.75.62.45.87 10.29 20 .06.12.08.1 8.94 10.84 1 1.16z"/><path class="cls-1" d="M177.9 38.16l-14.62-16.52-.39-.44-.59.03-5.15.27-1.46.08.34 1.42 1.9 7.86.35-1.18-15.44 14.36-.43.4.05.58.7 9.05 2.44-.19-.71-9.04-.39.98 15.44-14.35.53-.49-.17-.69-1.9-7.86-1.12 1.51 5.15-.28-.98-.41 14.63 16.53 1.82-1.62z"/><path class="cls-1" transform="rotate(-71.57 149.759 47.236)" d="M149.36 40.81h.81v12.85h-.81z"/><path class="cls-1" transform="rotate(-38.15 163.188 70.53)" d="M160.76 70.12h4.82v.81h-4.82z"/><path class="cls-1" d="M156.78 23.43l-18.69 8.4h-.11c-.08.08-8 7.64-2.78 16.75l.7-.4c-4.92-8.55 2.32-15.46 2.63-15.75l-.11.07 18.69-8.4z"/><path class="cls-1" transform="rotate(-52.18 169.266 50.618)" d="M156.24 50.21h26.06v.81h-26.06z"/><path class="cls-1" d="M25.66 23.68c.61-.48 61.18-46.85 134.85-.74l1.29-2.07C122.54-3.7 87.22-2.16 64.5 3.45 39.88 9.54 24.31 21.64 24.16 21.76z"/><path class="cls-1" d="M34.44 26.58A51.3 51.3 0 0154 15.5l-1-.1 8.67 4.88.6.33.6-.33c.2-.12 21.25-11.51 61.36.1l.53.16.46-.3 6-3.79-1 .15c.13 0 13.69 3.81 22.07 10.09l1.46-2c-8.75-6.51-22.31-10.29-22.88-10.44l-.52-.15-.46.29-6 3.8 1-.15c-41.19-11.92-62.36-.38-63.24.11h1.2l-8.67-4.87-.42-.28-.49.15a53.07 53.07 0 00-20.56 11.7z"/><path class="cls-1" transform="rotate(-12.26 52.954 11.197)" d="M52.54 8.02h.81v6.37h-.81z"/><path class="cls-1" transform="rotate(-83.88 130.955 11.61)" d="M127.14 11.21h7.63v.81h-7.63z"/></g></g></svg>