<svg id="Icon_Set" version="1.1" viewBox="0 0 256 256" xml:space="preserve" xmlns="http://www.w3.org/2000/svg"><style>.st0{fill:#4c4372}.st7{fill:#a0d1f2}</style><circle cx="128" cy="128" r="103.873" fill="#f1c48b"/><path class="st7" d="M152.91 85.916l-49.82-20-49.819 10v104.168l49.819-10 49.82 20 49.819-10V75.916z"/><path fill="#7babf3" d="M182.333 184.178l20.396-4.094V75.916l-20.396 4.094z"/><path fill="#d4e7f8" d="M152.91 98.299L103.09 81.06l-36.348 7.698v76.182l36.348-7.698 49.82 18.253 36.832-7.794V90.505z"/><circle class="st7" cx="84.628" cy="139.944" r="6.563"/><path fill="#fd919f" d="M179.648 149.954l-9.444-9.444 9.444-9.445-6.794-6.795-9.445 9.445-9.445-9.445-6.794 6.795 9.444 9.445-9.444 9.444 6.794 6.795 9.445-9.445 9.445 9.445z"/><path class="st0" d="M152.91 193.084c-.381 0-.761-.073-1.118-.216l-48.989-19.667-48.942 9.824a3.001 3.001 0 0 1-3.591-2.942V75.916a3 3 0 0 1 2.41-2.941l49.819-10a3.003 3.003 0 0 1 1.708.157l48.989 19.667 48.942-9.824a3.003 3.003 0 0 1 3.591 2.942v104.168a3 3 0 0 1-2.41 2.941l-49.819 10a3.089 3.089 0 0 1-.59.058zm-49.82-26c.381 0 .761.073 1.118.216l48.989 19.667 46.532-9.34V79.578L153.5 88.857a3.003 3.003 0 0 1-1.708-.157l-48.989-19.667-46.532 9.34v98.048l46.229-9.279c.195-.038.393-.058.59-.058z"/><path class="st0" d="M152.91 178.495c-.351 0-.7-.062-1.032-.183l-49.009-17.956-35.504 7.519a2.999 2.999 0 0 1-3.621-2.935V88.758a3 3 0 0 1 2.378-2.935l36.348-7.697a2.995 2.995 0 0 1 1.603.1l49.032 16.966 36.018-7.622a3 3 0 0 1 3.621 2.935v77.196a3 3 0 0 1-2.379 2.935l-36.833 7.794a2.973 2.973 0 0 1-.622.065zm-49.82-24.253c.351 0 .7.062 1.032.183l49.01 17.957 33.61-7.113V94.206l-33.211 7.028a3 3 0 0 1-1.602-.1l-49.032-16.966-33.154 7.021v70.049l32.727-6.931c.204-.043.412-.065.62-.065z"/><path class="st0" d="M156.614 143.51h-22.872a3 3 0 0 1-2.83-2.005l-4.404-12.523a5.298 5.298 0 0 0-6.373-3.341l-9.269 2.532a3 3 0 0 1-3.752-2.417l-3.211-19.933a5.259 5.259 0 0 0-5.213-4.44 5.276 5.276 0 0 0-5.09 3.875l-4.397 26.859a3 3 0 0 1-5.921-.969l4.42-26.999c.014-.084.031-.167.052-.25a11.27 11.27 0 0 1 10.936-8.515 11.234 11.234 0 0 1 11.137 9.486l2.68 16.636 6.048-1.652c5.678-1.552 11.659 1.584 13.614 7.139l3.699 10.519h20.747a3 3 0 1 1-.001 5.998z"/><path class="st0" d="M172.854 159.749a2.998 2.998 0 0 1-2.121-.879l-7.324-7.323-7.324 7.323a3 3 0 0 1-4.243 0l-6.794-6.795a3 3 0 0 1 0-4.242l7.323-7.323-7.323-7.324a3 3 0 0 1 0-4.242l6.794-6.795c1.125-1.126 3.117-1.126 4.243 0l7.324 7.323 7.324-7.323a3 3 0 0 1 4.243 0l6.794 6.795a3 3 0 0 1 0 4.242l-7.323 7.324 7.323 7.323a3 3 0 0 1 0 4.243l-6.794 6.795a3.004 3.004 0 0 1-2.122.878zm-9.445-15.445c.768 0 1.536.293 2.121.879l7.324 7.323 2.552-2.552-7.323-7.323a3 3 0 0 1 0-4.243l7.323-7.324-2.552-2.552-7.324 7.323a2.998 2.998 0 0 1-4.242 0l-7.324-7.323-2.552 2.552 7.323 7.324a3 3 0 0 1 0 4.242l-7.323 7.323 2.552 2.552 7.324-7.323a2.994 2.994 0 0 1 2.121-.878zm-78.781 5.202c-5.273 0-9.563-4.29-9.563-9.563s4.29-9.563 9.563-9.563 9.563 4.29 9.563 9.563-4.29 9.563-9.563 9.563zm0-13.125c-1.964 0-3.563 1.598-3.563 3.563s1.598 3.563 3.563 3.563 3.563-1.598 3.563-3.563-1.599-3.563-3.563-3.563z"/></svg>