<?xml version="1.0" ?><!DOCTYPE svg  PUBLIC '-//W3C//DTD SVG 1.1//EN'  'http://www.w3.org/Graphics/SVG/1.1/DTD/svg11.dtd'><svg id="Icon_Set" style="enable-background:new 0 0 256 256;" version="1.1" viewBox="0 0 256 256" xml:space="preserve" xmlns="http://www.w3.org/2000/svg" xmlns:xlink="http://www.w3.org/1999/xlink"><style type="text/css">
	.st0{fill:#4C4372;}
	.st1{fill:#F1C48B;}
	.st2{fill:#7BABF3;}
	.st3{fill:#FD919F;}
	.st4{fill:#E0667D;}
	.st5{fill:#FFFFFF;}
	.st6{fill:#D4E7F8;}
	.st7{fill:#A0D1F2;}
</style><g><g><circle class="st1" cx="128" cy="128" r="103.873"/></g><g><polygon class="st7" points="152.91,85.916 103.09,65.916 53.271,75.916 53.271,180.084 103.09,170.084 152.91,190.084     202.729,180.084 202.729,75.916   "/></g><g><polygon class="st2" points="182.333,184.178 202.729,180.084 202.729,75.916 182.333,80.01   "/></g><g><polygon class="st6" points="152.91,98.299 103.09,81.06 66.742,88.758 66.742,164.94 103.09,157.242 152.91,175.495     189.742,167.701 189.742,90.505   "/></g><g><circle class="st7" cx="84.628" cy="139.944" r="6.563"/></g><g><polygon class="st3" points="179.648,149.954 170.204,140.51 179.648,131.065 172.854,124.27 163.409,133.715 153.964,124.27     147.17,131.065 156.614,140.51 147.17,149.954 153.964,156.749 163.409,147.304 172.854,156.749   "/></g><g><path class="st0" d="M152.91,193.084c-0.381,0-0.761-0.073-1.118-0.216l-48.989-19.667l-48.942,9.824    c-0.878,0.177-1.795-0.05-2.492-0.621c-0.695-0.57-1.099-1.422-1.099-2.321V75.916c0-1.429,1.008-2.66,2.41-2.941l49.819-10    c0.573-0.115,1.167-0.06,1.708,0.157l48.989,19.667l48.942-9.824c0.88-0.175,1.796,0.051,2.492,0.621    c0.695,0.57,1.099,1.422,1.099,2.321v104.168c0,1.429-1.008,2.66-2.41,2.941l-49.819,10    C153.305,193.064,153.107,193.084,152.91,193.084z M103.09,167.084c0.381,0,0.761,0.073,1.118,0.216l48.989,19.667l46.532-9.34    V79.578L153.5,88.857c-0.572,0.115-1.167,0.06-1.708-0.157l-48.989-19.667l-46.532,9.34v98.048l46.229-9.279    C102.695,167.104,102.893,167.084,103.09,167.084z"/></g><g><path class="st0" d="M152.91,178.495c-0.351,0-0.7-0.062-1.032-0.183l-49.009-17.956l-35.504,7.519    c-0.884,0.187-1.808-0.035-2.51-0.604c-0.703-0.569-1.111-1.426-1.111-2.331V88.758c0-1.417,0.992-2.641,2.378-2.935l36.348-7.697    c0.532-0.113,1.087-0.079,1.603,0.1l49.032,16.966l36.018-7.622c0.884-0.187,1.807,0.035,2.51,0.604    c0.703,0.57,1.111,1.426,1.111,2.331v77.196c0,1.417-0.992,2.642-2.379,2.935l-36.833,7.794    C153.326,178.474,153.118,178.495,152.91,178.495z M103.09,154.242c0.351,0,0.7,0.062,1.032,0.183l49.01,17.957l33.61-7.113    V94.206l-33.211,7.028c-0.533,0.113-1.087,0.078-1.602-0.1l-49.032-16.966l-33.154,7.021v70.049l32.727-6.931    C102.674,154.264,102.882,154.242,103.09,154.242z"/></g><g><path class="st0" d="M156.614,143.51h-22.872c-1.273,0-2.408-0.804-2.83-2.005l-4.404-12.523    c-0.915-2.599-3.711-4.068-6.373-3.341l-9.269,2.532c-0.82,0.224-1.698,0.09-2.415-0.372c-0.716-0.461-1.202-1.204-1.337-2.045    l-3.211-19.933c-0.415-2.573-2.607-4.44-5.213-4.44c-2.382,0-4.459,1.588-5.09,3.875l-4.397,26.859    c-0.268,1.635-1.804,2.745-3.445,2.476c-1.635-0.268-2.743-1.81-2.476-3.445l4.42-26.999c0.014-0.084,0.031-0.167,0.052-0.25    c1.268-5.013,5.765-8.515,10.936-8.515c5.567,0,10.251,3.989,11.137,9.486l2.68,16.636l6.048-1.652    c5.678-1.552,11.659,1.584,13.614,7.139l3.699,10.519h20.747c1.657,0,3,1.343,3,3S158.271,143.51,156.614,143.51z"/></g><g><path class="st0" d="M172.854,159.749c-0.795,0-1.559-0.316-2.121-0.879l-7.324-7.323l-7.324,7.323    c-0.563,0.563-1.326,0.879-2.121,0.879l0,0c-0.796,0-1.559-0.316-2.122-0.879l-6.794-6.795c-1.171-1.171-1.171-3.071,0-4.242    l7.323-7.323l-7.323-7.324c-1.171-1.171-1.171-3.071,0-4.242l6.794-6.795c1.125-1.126,3.117-1.126,4.243,0l7.324,7.323    l7.324-7.323c0.563-0.563,1.326-0.879,2.121-0.879l0,0c0.796,0,1.559,0.316,2.122,0.879l6.794,6.795    c1.171,1.171,1.171,3.071,0,4.242l-7.323,7.324l7.323,7.323c1.172,1.172,1.172,3.071,0,4.243l-6.794,6.795    C174.413,159.433,173.65,159.749,172.854,159.749z M163.409,144.304c0.768,0,1.536,0.293,2.121,0.879l7.324,7.323l2.552-2.552    l-7.323-7.323c-0.563-0.563-0.879-1.326-0.879-2.122c0-0.795,0.316-1.559,0.879-2.121l7.323-7.324l-2.552-2.552l-7.324,7.323    c-1.171,1.172-3.071,1.172-4.242,0l-7.324-7.323l-2.552,2.552l7.323,7.324c1.171,1.171,1.171,3.071,0,4.242l-7.323,7.323    l2.552,2.552l7.324-7.323C161.874,144.597,162.642,144.304,163.409,144.304z"/></g><g><path class="st0" d="M84.628,149.506c-5.273,0-9.563-4.29-9.563-9.563s4.29-9.563,9.563-9.563s9.563,4.29,9.563,9.563    S89.901,149.506,84.628,149.506z M84.628,136.381c-1.964,0-3.563,1.598-3.563,3.563s1.598,3.563,3.563,3.563    s3.563-1.598,3.563-3.563S86.592,136.381,84.628,136.381z"/></g></g></svg>