<svg height="60" id="Layer_1" version="1.1" width="60" xml:space="preserve" xmlns="http://www.w3.org/2000/svg"><style>.st1{fill:#0a94e3}.st2{fill:#fff}</style><path fill="#c2e4f8" d="M9 9h42v50H9z"/><path class="st1" d="M51 60H9a1 1 0 0 1-1-1V9a1 1 0 0 1 1-1h42a1 1 0 0 1 1 1v50a1 1 0 0 1-1 1zm-41-2h40V10H10v48z"/><path class="st2" d="M13 13h34v42H13z"/><path class="st1" d="M47 56H13a1 1 0 0 1-1-1V13a1 1 0 0 1 1-1h34a1 1 0 0 1 1 1v42a1 1 0 0 1-1 1zm-33-2h32V14H14v40z"/><path class="st2" d="M41 15H19V9a2 2 0 0 1 2-2h18a2 2 0 0 1 2 2v6z"/><path class="st1" d="M41 16H19a1 1 0 0 1-1-1V9c0-1.654 1.346-3 3-3h18c1.654 0 3 1.346 3 3v6a1 1 0 0 1-1 1zm-21-2h20V9a1 1 0 0 0-1-1H21a1 1 0 0 0-1 1v5z"/><path class="st2" d="M35 7H25V6a5 5 0 0 1 10 0v1z"/><path class="st1" d="M35 8H25a1 1 0 0 1-1-1V6c0-3.309 2.691-6 6-6s6 2.691 6 6v1a1 1 0 0 1-1 1zm-9-2h8c0-2.206-1.794-4-4-4s-4 1.794-4 4z"/><path class="st1" d="M30 5a.99.99 0 0 1-1-1c0-.13.02-.26.08-.38.05-.12.12-.23.21-.33.37-.37 1.05-.37 1.42 0 .09.1.16.21.21.33a.995.995 0 0 1-.21 1.09c-.1.09-.21.16-.33.21S30.13 5 30 5zm3 23h-6a1 1 0 1 1 0-2h6a1 1 0 1 1 0 2zm6 8H21a1 1 0 1 1 0-2h18a1 1 0 1 1 0 2zm0 8H21a1 1 0 1 1 0-2h18a1 1 0 1 1 0 2z"/></svg>