<svg height="60" width="60" xmlns="http://www.w3.org/2000/svg"><rect height="46" rx="2" ry="2" width="58" x=".999" y="7" fill="#fff"/><path d="M56.999 50h-54a2 2 0 0 1-2-2v3a2 2 0 0 0 2 2h54a2 2 0 0 0 2-2v-3a2 2 0 0 1-2 2z" fill="#2c4b75" opacity=".2"/><path d="M56.999 7h-54a2 2 0 0 0-2 2v3a2 2 0 0 1 2-2h54a2 2 0 0 1 2 2V9a2 2 0 0 0-2-2z" fill="#fff" opacity=".75"/><rect height="46" rx="2" ry="2" width="58" x=".999" y="7" fill="none"/><path d="M56.999 54h-54a3.003 3.003 0 0 1-3-3V9a3.003 3.003 0 0 1 3-3h54a3.003 3.003 0 0 1 3 3v42a3.003 3.003 0 0 1-3 3zm-54-46a1 1 0 0 0-1 1v42a1 1 0 0 0 1 1h54a1 1 0 0 0 1-1V9a1 1 0 0 0-1-1z" fill="#6d6daa"/><path d="M56.999 54h-54a3.003 3.003 0 0 1-3-3V9a3.003 3.003 0 0 1 3-3h54a3.003 3.003 0 0 1 3 3v42a3.003 3.003 0 0 1-3 3zm-54-46a1 1 0 0 0-1 1v42a1 1 0 0 0 1 1h54a1 1 0 0 0 1-1V9a1 1 0 0 0-1-1z" fill="#6d6daa"/><path d="M10.257 38.63A13.025 13.025 0 1 1 18.998 42a13.013 13.013 0 0 1-8.742-3.37z" fill="#2c4b75" opacity=".2"/><path d="M10.929 35.89a12.023 12.023 0 1 1 8.07 3.11 12.012 12.012 0 0 1-8.07-3.11z" fill="#eef6ff"/><path d="M26.539 35.74l.1.52a12.023 12.023 0 0 1-15.71-.37l.53-.15a9.508 9.508 0 0 1 4.54-1.88.582.582 0 0 0 .49-.59c-.02-.32-.02-.66-.02-1.01 0-.86-.96-1.77-1.02-2.89a4.553 4.553 0 0 1-.5-1.85.92.92 0 0 1 .23-.7c-.08-.42-.15-.87-.23-1.32a2.949 2.949 0 0 1 1.88-3.64c.3-.13.07-1.91.4-1.59.9.87 3.31 1.29 3.9 1.49 1.61.58 2.25 1.9 1.92 3.74-.08.45-.15.9-.23 1.32a.92.92 0 0 1 .23.7 4.553 4.553 0 0 1-.5 1.85c-.06 1.12-1.02 2.09-1.02 2.89 0 .35 0 .69-.02 1.01a.582.582 0 0 0 .49.59 9.508 9.508 0 0 1 4.54 1.88z" fill="#c9c1f5"/><path d="M15.11 26.42a3.164 3.164 0 0 1 1.719-1.56c.3-.13.84-1.18 1.17-.86.9.87 2.54.56 3.13.76a2.83 2.83 0 0 1 1.769 1.608c.05-.287.098-.572.151-.868.33-1.84-.31-3.16-1.92-3.74-.59-.2-3-.62-3.9-1.49-.33-.32-.1 1.46-.4 1.59a2.949 2.949 0 0 0-1.88 3.64c.056.314.108.617.16.92z" fill="#fff" opacity=".5"/><path d="M26.639 33.26a11.987 11.987 0 0 1-19.537-7.756 12 12 0 1 0 23.796.01 11.992 11.992 0 0 1-4.259 7.746z" fill="#2c4b75" opacity=".2"/><path d="M18.999 18a11.991 11.991 0 0 1 11.899 10.514 12.001 12.001 0 1 0-23.796-.01A11.991 11.991 0 0 1 18.999 18z" fill="#fff" opacity=".75"/><path d="M26.54 36.74a.998.998 0 0 1-.66-.248 8.631 8.631 0 0 0-4.053-1.646 1.593 1.593 0 0 1-1.317-1.61c.02-.33.02-.648.02-.976a3.767 3.767 0 0 1 .555-1.7 3.464 3.464 0 0 0 .465-1.243 1.02 1.02 0 0 1 .096-.378 3.658 3.658 0 0 0 .403-1.42.56.56 0 0 0-.003-.064 1.003 1.003 0 0 1-.21-.822c.048-.243.09-.497.134-.755l.094-.553c.328-1.823-.57-2.37-1.274-2.625-.097-.032-.29-.079-.53-.138a16.618 16.618 0 0 1-2.334-.72 1.213 1.213 0 0 1-.7.936 1.974 1.974 0 0 0-1.293 2.543l.095.557c.044.258.086.512.133.755a1.003 1.003 0 0 1-.209.822.56.56 0 0 0-.003.065 3.658 3.658 0 0 0 .402 1.419 1.02 1.02 0 0 1 .097.378 3.193 3.193 0 0 0 .45 1.189 3.795 3.795 0 0 1 .57 1.754c0 .328 0 .646.02.945a1.6 1.6 0 0 1-1.316 1.64 8.63 8.63 0 0 0-4.054 1.647 1 1 0 0 1-1.318-1.504 10.184 10.184 0 0 1 4.674-2.047c-.005-.215-.005-.446-.005-.681a2.836 2.836 0 0 0-.345-.828 5.259 5.259 0 0 1-.655-1.8 5.385 5.385 0 0 1-.52-2.112 2.194 2.194 0 0 1 .176-.909 37.898 37.898 0 0 1-.068-.401l-.092-.535a3.89 3.89 0 0 1 2.037-4.52l.015-.257c.03-.619.065-1.32.757-1.593a1.16 1.16 0 0 1 1.15.247 8.27 8.27 0 0 0 2.823 1.07c.308.076.556.14.703.19 2.07.746 3.004 2.516 2.583 4.865l-.092.533c-.022.135-.044.27-.068.401a2.194 2.194 0 0 1 .176.909 5.385 5.385 0 0 1-.52 2.113 5.486 5.486 0 0 1-.665 1.842 3.21 3.21 0 0 0-.335.785c0 .232 0 .46-.006.68a10.174 10.174 0 0 1 4.675 2.048 1 1 0 0 1-.659 1.752zM16.418 20.948l-.024.012z" fill="#6d6daa"/><path d="M46.999 16h-10a1 1 0 0 1 0-2h10a1 1 0 0 1 0 2zm6 4h-16a1 1 0 0 1 0-2h16a1 1 0 0 1 0 2zm0 4h-16a1 1 0 0 1 0-2h16a1 1 0 0 1 0 2zm0 4h-16a1 1 0 0 1 0-2h16a1 1 0 0 1 0 2zm0 4h-16a1 1 0 0 1 0-2h16a1 1 0 0 1 0 2zm0 4h-16a1 1 0 0 1 0-2h16a1 1 0 0 1 0 2zm0 4h-16a1 1 0 0 1 0-2h16a1 1 0 0 1 0 2zm0 8h-12a1 1 0 0 1 0-2h12a1 1 0 0 1 0 2zm-36 0h-10a1 1 0 0 1 0-2h10a1 1 0 1 1 0 2zm18 0h-12a1 1 0 0 1 0-2h12a1 1 0 0 1 0 2z" opacity=".5" fill="#6d6daa"/><path d="M18.999 40a12.991 12.991 0 0 1-8.742-3.37l-.002-.002A13.022 13.022 0 1 1 18.999 40zm-7.397-4.85A11.006 11.006 0 1 0 7.999 27a10.995 10.995 0 0 0 3.603 8.15z" fill="#6d6daa"/></svg>