<svg version="1.1" id="Icon_Set" xmlns="http://www.w3.org/2000/svg" x="0" y="0" viewBox="0 0 256 256" xml:space="preserve"><style>.st1{fill:#fff}.st3{fill:#fd919f}.st4{fill:#e0667d}.st5{fill:#4c4372}</style><circle cx="128" cy="128" r="103.9" fill="#d870ed"/><path class="st1" d="M186 165.6h-4.5V60.2c0-7-5.6-12.6-12.6-12.6H79.7c6 0 10.8 4.8 10.8 10.8v117.1c0 6 4.8 10.8 10.8 10.8h89.9c6 0 10.8-4.8 10.8-10.8v-9.8l-16-.1z"/><path d="M181.4 165.6V60.2c0-7-5.6-12.6-12.6-12.6h-3.1v138.6h25.5c6 0 10.8-4.8 10.8-10.8v-9.8h-20.6z" fill="#d4e7f8"/><path class="st3" d="M202 175.4v-9.8h-89.9v9.8c0 6-4.8 10.8-10.8 10.8h89.9c6-.1 10.8-4.9 10.8-10.8zM90.5 68.1H68.9v-9.8c0-6 4.8-10.8 10.8-10.8 6 0 10.8 4.8 10.8 10.8v9.8z"/><path class="st4" d="M186 165.6h-5.5v9.8c0 6-4.8 10.8-10.8 10.8h21.6c6 0 10.8-4.8 10.8-10.8v-9.8H186z"/><path class="st5" d="M90.5 71.1H68.9c-1.7 0-3-1.3-3-3v-9.8c0-7.6 6.2-13.8 13.8-13.8 7.6 0 13.8 6.2 13.8 13.8v9.8c0 1.7-1.3 3-3 3zm-18.6-6h15.6v-6.8c0-4.3-3.5-7.8-7.8-7.8s-7.8 3.5-7.8 7.8v6.8zm119.3 124h-89.9c-1.7 0-3-1.3-3-3s1.3-3 3-3c4.3 0 7.8-3.5 7.8-7.8v-9.8c0-1.7 1.3-3 3-3H202c1.7 0 3 1.3 3 3v9.8c0 7.6-6.2 13.8-13.8 13.8zm-78.6-6h78.6c4.3 0 7.8-3.5 7.8-7.8v-6.8h-83.9v6.8c0 2.9-.9 5.6-2.5 7.8z"/><path class="st5" d="M191.2 189.1h-89.9c-7.6 0-13.8-6.2-13.8-13.8v-117c0-4.3-3.5-7.8-7.8-7.8-1.7 0-3-1.3-3-3s1.3-3 3-3h89.1c8.6 0 15.6 7 15.6 15.6v102.4H202c1.7 0 3 1.3 3 3v9.8c0 7.6-6.2 13.8-13.8 13.8zM91.1 50.6c1.5 2.2 2.4 4.9 2.4 7.8v117c0 4.3 3.5 7.8 7.8 7.8h89.9c4.3 0 7.8-3.5 7.8-7.8v-6.8h-17.6c-1.7 0-3-1.3-3-3V60.2c0-5.3-4.3-9.6-9.6-9.6H91.1z"/><circle class="st3" cx="90.5" cy="121.2" r="36.5"/><path class="st4" d="M90.5 84.7c-1.9 0-3.8.1-5.6.4 17.5 2.7 30.9 17.8 30.9 36.1s-13.4 33.4-30.9 36.1c1.8.3 3.7.4 5.6.4 20.2 0 36.5-16.3 36.5-36.5s-16.3-36.5-36.5-36.5z"/><circle class="st1" cx="90.5" cy="121.2" r="25.3"/><path class="st3" d="M90.5 157.7c-2.7 0-5.4-.3-7.9-.9v47.7c0 4.4 3.6 7.9 7.9 7.9 4.4 0 7.9-3.6 7.9-7.9v-47.7c-2.5.6-5.2.9-7.9.9z"/><path class="st5" d="M90.5 215.4c-6 0-10.9-4.9-10.9-10.9v-47.7c0-.9.4-1.8 1.1-2.3.7-.6 1.6-.8 2.5-.6 4.8 1.1 9.8 1.1 14.6 0 .9-.2 1.8 0 2.5.6s1.1 1.4 1.1 2.3v47.7c.1 6-4.9 10.9-10.9 10.9zm-4.9-55v44.1c0 2.7 2.2 4.9 4.9 4.9s4.9-2.2 4.9-4.9v-44.1c-3.2.4-6.6.4-9.8 0z"/><path class="st5" d="M90.5 160.7C68.7 160.7 51 143 51 121.2s17.7-39.5 39.5-39.5S130 99.4 130 121.2s-17.7 39.5-39.5 39.5zm0-73c-18.5 0-33.5 15-33.5 33.5s15 33.5 33.5 33.5 33.5-15 33.5-33.5-15-33.5-33.5-33.5z"/><path class="st5" d="M90.5 149.5c-15.6 0-28.3-12.7-28.3-28.3s12.7-28.3 28.3-28.3 28.3 12.7 28.3 28.3-12.7 28.3-28.3 28.3zm0-50.6c-12.3 0-22.3 10-22.3 22.3s10 22.3 22.3 22.3 22.3-10 22.3-22.3-10-22.3-22.3-22.3z"/><path class="st5" d="M93.1 124.4v2.6c0 1.1-.8 2-2 2-1 0-2-.8-2-2v-4.4c0-1 .9-2 2-2 2.5 0 4.6-2 4.6-4.5s-2-4.5-4.6-4.5c-1.6 0-3.1.9-3.8 2.2-.6 1-1.8 1.3-2.7.7-.9-.6-1.2-1.7-.7-2.7 1.4-2.5 4.2-4.2 7.2-4.2 4.6 0 8.4 3.8 8.4 8.4.1 4.2-2.7 7.5-6.4 8.4zm0 8.8v.7c0 1.1-.8 2-2 2-1 0-2-.8-2-2v-.7c0-1.1.9-2 2-2 1.2 0 2 .9 2 2zm72.6-60.4h-56.6c-1.7 0-3-1.3-3-3s1.3-3 3-3h56.6c1.7 0 3 1.3 3 3s-1.3 3-3 3zm0 19.8h-36.1c-1.7 0-3-1.3-3-3s1.3-3 3-3h36.1c1.7 0 3 1.3 3 3s-1.3 3-3 3zm0 19.9h-25.8c-1.7 0-3-1.3-3-3s1.3-3 3-3h25.8c1.7 0 3 1.3 3 3s-1.3 3-3 3zm0 19.8h-25.8c-1.7 0-3-1.3-3-3s1.3-3 3-3h25.8c1.7 0 3 1.3 3 3s-1.3 3-3 3zm0 19.9h-36.1c-1.7 0-3-1.3-3-3s1.3-3 3-3h36.1c1.7 0 3 1.3 3 3s-1.3 3-3 3z"/></svg>