<svg id="Icon_Set" version="1.1" viewBox="0 0 256 256" xml:space="preserve" xmlns="http://www.w3.org/2000/svg"><style>.st0{fill:#4c4372}.st3{fill:#fd919f}.st4{fill:#e0667d}.st5{fill:#fff}</style><circle cx="128" cy="128" r="103.873" fill="#f1c48b"/><path class="st5" d="M185.963 165.592h-4.549V60.172c0-6.967-5.648-12.615-12.615-12.615H79.726c5.952 0 10.778 4.825 10.778 10.778v117.017c0 5.952 4.825 10.778 10.778 10.778h89.946c5.952 0 10.778-4.825 10.778-10.778v-9.76h-16.043z"/><path d="M181.414 165.592V60.172c0-6.967-5.648-12.615-12.615-12.615h-3.061V186.13h25.489c5.952 0 10.778-4.825 10.778-10.778v-9.76h-20.591z" fill="#d4e7f8"/><path class="st3" d="M202.005 175.353v-9.76h-89.946v9.76c0 5.952-4.825 10.778-10.778 10.778h89.946c5.953-.001 10.778-4.826 10.778-10.778zM90.503 68.095H68.948v-9.76c0-5.952 4.825-10.778 10.778-10.778 5.952 0 10.778 4.825 10.778 10.778v9.76z"/><path class="st4" d="M185.963 165.592h-5.513v9.76c0 5.952-4.825 10.778-10.778 10.778h21.555c5.952 0 10.778-4.825 10.778-10.778v-9.76h-16.042z"/><path class="st0" d="M90.503 71.095H68.948a3 3 0 01-3-3v-9.76c0-7.598 6.181-13.778 13.777-13.778 7.597 0 13.778 6.181 13.778 13.778v9.76a3 3 0 01-3 3zm-18.555-6h15.555v-6.76c0-4.289-3.489-7.778-7.778-7.778s-7.777 3.489-7.777 7.778v6.76zM191.227 189.13h-89.946a3 3 0 110-6c4.289 0 7.777-3.489 7.777-7.777v-9.761a3 3 0 013-3h89.946a3 3 0 013 3v9.761c.001 7.596-6.18 13.777-13.777 13.777zm-78.579-6h78.579c4.289 0 7.778-3.489 7.778-7.777v-6.761h-83.946v6.761c0 2.882-.891 5.562-2.411 7.777z"/><path class="st0" d="M191.227 189.13h-89.946c-7.597 0-13.778-6.181-13.778-13.777V58.335c0-4.289-3.489-7.778-7.778-7.778a3 3 0 110-6h89.073c8.61 0 15.615 7.005 15.615 15.615v102.42h17.591a3 3 0 013 3v9.761c.001 7.596-6.18 13.777-13.777 13.777zM91.093 50.557a13.697 13.697 0 012.411 7.778v117.018c0 4.288 3.489 7.777 7.778 7.777h89.946c4.289 0 7.778-3.489 7.778-7.777v-6.761h-17.591a3 3 0 01-3-3V60.172c0-5.302-4.313-9.615-9.615-9.615H91.093z"/><circle class="st3" cx="90.504" cy="121.172" r="36.508"/><path class="st4" d="M90.504 84.664c-1.902 0-3.77.146-5.594.427 17.508 2.692 30.914 17.821 30.914 36.082s-13.407 33.39-30.914 36.082a36.72 36.72 0 005.594.427c20.163 0 36.508-16.345 36.508-36.509s-16.346-36.509-36.508-36.509z"/><circle class="st5" cx="90.504" cy="121.172" r="25.32"/><path class="st3" d="M90.504 157.68c-2.732 0-5.389-.309-7.949-.878v47.692a7.95 7.95 0 0015.898 0v-47.692a36.59 36.59 0 01-7.949.878z"/><path class="st0" d="M90.503 215.443c-6.038 0-10.949-4.912-10.949-10.949v-47.692a2.999 2.999 0 013.651-2.929 33.524 33.524 0 0014.596 0 3 3 0 013.651 2.929v47.692c.001 6.037-4.911 10.949-10.949 10.949zm-4.949-55.077v44.128a4.954 4.954 0 004.949 4.949c2.729 0 4.95-2.22 4.95-4.949v-44.128a39.228 39.228 0 01-9.899 0z"/><path class="st0" d="M90.503 160.681c-21.785 0-39.508-17.724-39.508-39.509s17.723-39.508 39.508-39.508 39.508 17.723 39.508 39.508-17.722 39.509-39.508 39.509zm0-73.017c-18.477 0-33.508 15.031-33.508 33.508s15.032 33.509 33.508 33.509 33.508-15.032 33.508-33.509-15.031-33.508-33.508-33.508z"/><path class="st0" d="M90.503 149.492c-15.616 0-28.32-12.704-28.32-28.32s12.705-28.32 28.32-28.32 28.32 12.704 28.32 28.32-12.704 28.32-28.32 28.32zm0-50.64c-12.308 0-22.32 10.013-22.32 22.32s10.013 22.32 22.32 22.32 22.32-10.013 22.32-22.32-10.012-22.32-22.32-22.32z"/><path class="st0" d="M93.112 124.417v2.602c0 1.121-.84 1.962-1.961 1.962a1.964 1.964 0 01-1.961-1.962v-4.162c0-.04.04-.04.04-.08-.04-.04-.04-.04-.04-.08 0-1.04.921-1.961 1.961-1.961 2.521 0 4.563-2.001 4.563-4.482 0-2.521-2.041-4.483-4.563-4.483a4.422 4.422 0 00-3.842 2.202 1.976 1.976 0 01-2.722.72 1.952 1.952 0 01-.681-2.682 8.393 8.393 0 017.245-4.162c4.643 0 8.445 3.762 8.445 8.405 0 3.961-2.762 7.283-6.484 8.163zm0 8.766v.721c0 1.12-.84 1.961-1.961 1.961a1.964 1.964 0 01-1.961-1.961v-.721c0-1.081.921-1.961 1.961-1.961 1.12 0 1.961.88 1.961 1.961zm72.626-60.418h-56.573a3 3 0 110-6h56.573a3 3 0 110 6zm0 19.856h-36.076a3 3 0 110-6h36.076a3 3 0 110 6zm0 19.857h-25.827a3 3 0 110-6h25.827a3 3 0 110 6zm0 19.857h-25.827a3 3 0 110-6h25.827a3 3 0 110 6zm0 19.856h-36.076a3 3 0 110-6h36.076a3 3 0 110 6z"/></svg>