<svg version="1.1" id="Icon_Set" xmlns="http://www.w3.org/2000/svg" x="0" y="0" viewBox="0 0 256 256" xml:space="preserve"><style>.st1{fill:#7babf3}.st3{fill:#a0d1f2}.st4{fill:#fd919f}.st5{fill:#e0667d}.st6{fill:#4c4372}</style><circle cx="128" cy="128" r="103.9" fill="#f1c4f9"/><path class="st1" d="M64 97l6.9 20.4c.4-6 5.3-10.7 11.4-10.7 6.3 0 11.4 5.1 11.4 11.4v11.4h68.6v-11.4c0-6.3 5.1-11.4 11.4-11.4 6.1 0 11 4.7 11.4 10.7L192 97H64z"/><path d="M180.4 57.9H75.6C69.2 57.9 64 63 64 69.4V97h128V69.4c0-6.4-5.2-11.5-11.6-11.5zM64 129.5h128v68.7H64z" fill="#d4e7f8"/><path class="st3" d="M173.7 129.5H192v68.7h-18.3zm6.7-71.6h-19.3c6.4 0 11.6 5.2 11.6 11.6V97H192V69.4c0-6.4-5.2-11.5-11.6-11.5z"/><path class="st4" d="M64 77.5h128V97H64z"/><path class="st5" d="M172.7 77.5H192V97h-19.3z"/><path class="st4" d="M64 129.5h51.7v17.7H64zm76.3 0H192v17.7h-51.7z"/><path class="st5" d="M173.7 129.5H192v17.7h-18.3z"/><path class="st3" d="M128 164.9c-6.8 0-12.3-5.5-12.3-12.3v-23.1h24.7v23.1c-.1 6.8-5.6 12.3-12.4 12.3zM140.5 97h-25v-7c0-6.9 5.6-12.5 12.5-12.5s12.5 5.6 12.5 12.5v7zM64 177.3c10.1 0 18.3 8.2 18.3 18.3v2.5H64v-20.8z"/><path class="st1" d="M192 177.3c-10.1 0-18.3 8.2-18.3 18.3v2.5H192v-20.8z"/><path class="st5" d="M105.1 115c-6.3 0-11.4 5.1-11.4 11.4v3.1h22.9v-3.1c0-6.3-5.1-11.4-11.5-11.4zm22.9-8.4c-6.3 0-11.4 5.1-11.4 11.4v11.4h22.9V118c-.1-6.3-5.2-11.4-11.5-11.4zm22.9 8.4c-6.3 0-11.4 5.1-11.4 11.4v3.1h22.9v-3.1c-.1-6.3-5.2-11.4-11.5-11.4z"/><path class="st5" d="M173.7 106.6c-6.3 0-11.4 5.1-11.4 11.4v11.4h22.9V118c0-6.3-5.2-11.4-11.5-11.4zm-91.4 0c-6.3 0-11.4 5.1-11.4 11.4v11.4h22.9V118c-.1-6.3-5.2-11.4-11.5-11.4z"/><path class="st6" d="M192 201.1H64c-1.7 0-3-1.3-3-3v-68.7c0-1.7 1.3-3 3-3h128c1.7 0 3 1.3 3 3v68.7c0 1.7-1.3 3-3 3zm-125-6h122v-62.7H67v62.7zM192 100H64c-1.7 0-3-1.3-3-3V69.4c0-8 6.5-14.6 14.6-14.6h104.9c8 0 14.6 6.5 14.6 14.6V97c-.1 1.7-1.4 3-3.1 3zM67 94h122V69.4c0-4.7-3.8-8.6-8.6-8.6H75.6c-4.7 0-8.6 3.8-8.6 8.6V94z"/><path class="st6" d="M128 167.9c-8.5 0-15.3-6.9-15.3-15.3v-23.1c0-1.7 1.3-3 3-3h24.7c1.7 0 3 1.3 3 3v23.1c-.1 8.4-6.9 15.3-15.4 15.3zm-9.3-35.4v20.1c0 5.2 4.2 9.3 9.3 9.3s9.3-4.2 9.3-9.3v-20.1h-18.6zm21.8-32.5h-25c-1.7 0-3-1.3-3-3v-7c0-8.5 7-15.5 15.5-15.5s15.5 7 15.5 15.5v7c0 1.7-1.3 3-3 3zm-22-6h19v-4c0-5.2-4.3-9.5-9.5-9.5s-9.5 4.3-9.5 9.5v4z"/><path class="st6" d="M116.6 132.5H93.7c-1.7 0-3-1.3-3-3v-3.1c0-8 6.5-14.4 14.4-14.4s14.4 6.5 14.4 14.4v3.1c.1 1.6-1.3 3-2.9 3zm-19.9-6h16.9v-.1c0-4.6-3.8-8.4-8.4-8.4-4.7 0-8.5 3.7-8.5 8.5z"/><path class="st6" d="M139.4 132.5h-22.9c-1.7 0-3-1.3-3-3v-11.4c0-8 6.5-14.4 14.4-14.4s14.4 6.5 14.4 14.4v11.4c.1 1.6-1.2 3-2.9 3zm-19.8-6h16.9v-8.4c0-4.6-3.8-8.4-8.4-8.4s-8.4 3.8-8.4 8.4c-.1 0-.1 8.4-.1 8.4z"/><path class="st6" d="M162.3 132.5h-22.9c-1.7 0-3-1.3-3-3v-3.1c0-8 6.5-14.4 14.4-14.4s14.4 6.5 14.4 14.4v3.1c.1 1.6-1.2 3-2.9 3zm-19.9-6h16.9v-.1c0-4.6-3.8-8.4-8.4-8.4s-8.5 3.7-8.5 8.5z"/><path class="st6" d="M185.2 132.5h-22.9c-1.7 0-3-1.3-3-3v-11.4c0-8 6.5-14.4 14.4-14.4 8 0 14.4 6.5 14.4 14.4v11.4c.1 1.6-1.3 3-2.9 3zm-19.9-6h16.9v-8.4c0-4.6-3.8-8.4-8.4-8.4s-8.4 3.8-8.4 8.4l-.1 8.4zm-83 74.6H64c-1.7 0-3-1.3-3-3v-20.8c0-1.7 1.3-3 3-3 11.7 0 21.3 9.5 21.3 21.3v2.5c0 1.7-1.4 3-3 3zm-15.3-6h12.3c-.2-7.2-5.4-13.2-12.3-14.5v14.5zm125 6h-18.3c-1.7 0-3-1.3-3-3v-2.5c0-11.7 9.5-21.3 21.3-21.3 1.7 0 3 1.3 3 3v20.8c0 1.7-1.3 3-3 3zm-15.3-6H189v-14.5c-6.8 1.4-12.1 7.3-12.3 14.5zm-43.9-54.3c0-2.7-2.2-4.8-4.8-4.8-2.7 0-4.8 2.2-4.8 4.8 0 1.8 1 3.3 2.4 4.1v6.4c0 1.4 1.1 2.5 2.5 2.5s2.5-1.1 2.5-2.5v-6.4c1.3-.8 2.2-2.3 2.2-4.1z"/><path class="st6" d="M162.3 132.5H93.7c-1.7 0-3-1.3-3-3v-11.4c0-4.6-3.8-8.4-8.4-8.4-4.4 0-8.1 3.5-8.4 7.9-.1 1.4-1.2 2.6-2.6 2.8-1.4.2-2.8-.7-3.2-2L61.2 98c-.3-.9-.2-1.9.4-2.7S63 94 64 94h128c1 0 1.9.5 2.4 1.3s.7 1.8.4 2.7l-6.9 20.4c-.5 1.4-1.8 2.2-3.2 2-1.4-.2-2.5-1.4-2.6-2.8-.3-4.4-4-7.9-8.4-7.9-4.6 0-8.4 3.8-8.4 8.4v11.4c0 1.6-1.3 3-3 3zm-65.6-6h62.6v-8.4c0-8 6.5-14.4 14.4-14.4 4.4 0 8.4 2 11.1 5.2l3-8.9H68.2l3 8.9c2.7-3.2 6.7-5.2 11.1-5.2 8 0 14.4 6.5 14.4 14.4v8.4z"/><path class="st6" d="M93.7 132.5H70.8c-1.7 0-3-1.3-3-3v-11.4c0-8 6.5-14.4 14.4-14.4s14.4 6.5 14.4 14.4v11.4c.1 1.6-1.2 3-2.9 3zm-19.9-6h16.9v-8.4c0-4.6-3.8-8.4-8.4-8.4s-8.4 3.8-8.4 8.4l-.1 8.4zM192 100H64c-1.7 0-3-1.3-3-3V77.5c0-1.7 1.3-3 3-3h128c1.7 0 3 1.3 3 3V97c0 1.7-1.3 3-3 3zM67 94h122V80.5H67V94z"/><path class="st6" d="M115.7 150.2H64c-1.7 0-3-1.3-3-3v-17.7c0-1.7 1.3-3 3-3h51.7c.8 0 1.6.3 2.1.9.6.6.9 1.3.9 2.1v17.7c0 1.6-1.4 3-3 3zm-48.7-6h45.7v-11.7H67v11.7zm125 6h-51.7c-1.7 0-3-1.3-3-3v-17.7c0-.8.3-1.6.9-2.1s1.3-.9 2.1-.9H192c1.7 0 3 1.3 3 3v17.7c0 1.6-1.3 3-3 3zm-48.7-6H189v-11.7h-45.7v11.7z"/></svg>