<svg viewBox="0 0 64 64" xmlns="http://www.w3.org/2000/svg"><path d="M59.714 53.896l-9.907-9.905-.434-.436a1.43 1.43 0 0 0-1.019-.424c-.4 0-.758.16-1.019.421l-.455.456-2.928-2.931a18.516 18.516 0 0 0 4.089-11.636c.002-10.272-8.327-18.601-18.6-18.601-10.273 0-18.601 8.33-18.601 18.601 0 10.273 8.328 18.599 18.601 18.602a18.531 18.531 0 0 0 11.636-4.091l.94.942 1.439 1.43.553.558-.457.457a1.436 1.436 0 0 0 0 2.036l.437.436-.001.001 9.907 9.905c.745.744 1.773 1.203 2.91 1.203s2.166-.459 2.909-1.201a4.105 4.105 0 0 0 1.206-2.913 4.092 4.092 0 0 0-1.206-2.91zM29.44 42.966c-7.47 0-13.526-6.055-13.526-13.526 0-7.468 6.057-13.525 13.526-13.525 7.468 0 13.524 6.058 13.524 13.525.001 7.47-6.056 13.526-13.524 13.526z" fill="#3C4752"/><path d="M33.529 51.798h.003v-2.961a19.77 19.77 0 0 1-4.091.425c-10.947 0-19.822-8.874-19.822-19.821 0-10.944 8.875-19.821 19.822-19.821 10.948 0 19.822 8.877 19.822 19.821 0 1.402-.147 2.769-.424 4.087h2.972l3.99-1.364v-5.45L51.8 25.349v.004a22.508 22.508 0 0 0-.948-3.55l2.778-3.18-2.725-4.723-4.146.819.013.022a23.698 23.698 0 0 0-2.633-2.633l.023.015.819-4.146-4.723-2.727-3.183 2.78a23.057 23.057 0 0 0-3.549-.951h.004l-1.363-3.997h-5.454L25.35 7.079h.004a23.054 23.054 0 0 0-3.553.951l-3.18-2.78L13.9 7.976l.819 4.146.024-.015a23.688 23.688 0 0 0-2.636 2.633l.016-.022-4.149-.818-2.727 4.723 2.781 3.18a22.954 22.954 0 0 0-.95 3.55v-.004L3.08 26.714v5.452l3.999 1.367v-.005a22.67 22.67 0 0 0 .95 3.548l-2.781 3.183 2.728 4.723 4.146-.818-.016-.024c.404.474.825.931 1.264 1.37.438.439.896.859 1.368 1.259l-.838 4.134 4.723 2.728 3.178-2.781c1.145.409 2.331.726 3.549.948l1.363 4h5.454l1.365-4h-.003z" fill="#2F7ABF"/></svg>