<svg xmlns="http://www.w3.org/2000/svg" viewBox="0 0 64 64"><path d="M62.7 56.2l-11-11-.5-.5c-.3-.3-.7-.5-1.1-.5-.4 0-.8.2-1.1.5l-.5.5-3.3-3.2c2.8-3.5 4.5-8 4.5-12.9 0-11.4-9.2-20.6-20.6-20.6S8.6 17.8 8.6 29.2c0 11.4 9.2 20.6 20.6 20.6 4.9 0 9.3-1.7 12.9-4.5l1 1 1.6 1.6.6.6-.5.5c-.3.3-.5.7-.5 1.1 0 .4.2.8.5 1.1l.5.5 11 11c.8.8 2 1.3 3.2 1.3 1.3 0 2.4-.5 3.2-1.3.8-.8 1.3-2 1.3-3.2 0-1.3-.5-2.5-1.3-3.3zM29.2 44.1c-8.3 0-15-6.7-15-15s6.7-15 15-15 15 6.7 15 15c-.1 8.3-6.8 15-15 15z" fill="#3c4752"/><path d="M33.7 53.9v-3.3c-1.5.3-3 .5-4.5.5-12.1 0-21.9-9.8-21.9-21.9 0-12.1 9.8-21.9 21.9-21.9 12.1 0 21.9 9.8 21.9 21.9 0 1.6-.2 3.1-.5 4.5h3.3l4.4-1.5v-6l-4.4-1.5c-.2-1.4-.6-2.7-1-3.9l3.1-3.5-3-5.2-4.6.9c-.4-.5-.9-1-1.4-1.5-.5-.5-1-1-1.5-1.4l.9-4.6-5.2-3-3.5 3.1c-1.4-.6-2.7-.9-4-1.2L32.2 0h-6l-1.5 4.4c-1.4.3-2.7.6-4 1.1l-3.5-3.1-5.2 3 .9 4.6c-.5.4-1 .9-1.5 1.4-.5.5-1 1-1.4 1.5L5.4 12l-3 5.2 3.1 3.5c-.5 1.3-.8 2.6-1.1 3.9L0 26.2v6l4.4 1.5c.3 1.3.6 2.7 1.1 3.9l-3.1 3.5 3 5.2 4.6-.9c.4.5.9 1 1.4 1.5.5.5 1 1 1.5 1.4l-.9 4.6 5.2 3 3.5-3.1c1.3.5 2.6.8 3.9 1l1.5 4.4h6l1.6-4.3z" fill="#8b33bb"/></svg>