<svg viewBox="0 0 64 64" xmlns="http://www.w3.org/2000/svg"><path d="M32 1.25C15.044 1.25 1.25 15.044 1.25 32S15.044 62.75 32 62.75c16.955 0 30.75-13.794 30.75-30.75S48.956 1.25 32 1.25zm0 57.259C17.383 58.509 5.491 46.617 5.491 32S17.383 5.491 32 5.491 58.509 17.383 58.509 32 46.617 58.509 32 58.509z" fill="#3C4752"/><path d="M32 56.469c7.882 0 14.904-3.747 19.383-9.553-.146-1.459-.317-2.648-.514-3.105-.816-1.89-1.872-3.609-3.711-4.68a23.333 23.333 0 0 0-2.561-1.291c-1.329-.568-2.671-1.107-4.01-1.654a13.085 13.085 0 0 0 4.081-.825c-.094-.039-.164-.07-.235-.096-1.256-.456-2.289-1.198-2.97-2.369a6.322 6.322 0 0 1-.671-1.677h.612c.569.029.817-.214 1.02-.7 1.026-2.463 1.291-5.018.964-7.645-.388-3.109-1.358-5.975-3.291-8.405a8.066 8.066 0 0 0-1.672-1.804c-.94-.89-1.991-1.641-3.31-1.823a22.974 22.974 0 0 0-2.054-.185l-.174-.028h-1.761l-.056.014c-.375.012-.748.029-1.12.056-1.668.119-3.063.873-4.277 1.923a7.127 7.127 0 0 0-1.621 1.672c-2.043 2.486-3.052 5.434-3.441 8.639-.322 2.654-.061 5.241 1.046 7.701.106.234.405.547.61.544h1.013c-.531 1.928-1.694 3.352-3.691 4.107-.057.022-.11.053-.256.123 1.416.44 2.799.769 4.135.79-1.829.761-3.663 1.509-5.478 2.302-1.915.836-3.316 2.234-4.279 4.089-.369.711-.686 2.484-.943 4.521 4.483 5.696 11.437 9.359 19.232 9.359zm-6.864-20.425c1.02-.218 2.006-.679 2.951-1.483.746.422 1.441.842 2.161 1.215 1.154.598 2.333.606 3.496.021.652-.328 1.283-.697 1.933-1.053 1.014.838 2.249 1.252 3.52 1.392-8.229 7.882-14.061-.092-14.061-.092zm-.306-15.778c.084-.756.224-1.468.403-2.134.125-.463.544-.796 1.023-.777h.01c1.656.072 3.306-.037 4.929-.406.54-.123 1.059-.276 1.556-.462.341.256.694.503 1.056.742.941.623 1.899 1.243 2.733 1.991.841.754 1.538 1.668 2.302 2.514.284-1.631-1.1-2.507-1.817-3.698 1.012.64 1.848 1.388 2.415 2.314l.216.385c.331.654.535 1.392.582 2.237.012.201.015.4.012.598.005.23-.114.952-.261 1.752-.634 3.443-2.545 6.543-5.397 8.574-.092.066-.186.131-.281.195-1.601 1.09-2.959.854-4.65-.037-6.827-3.595-4.831-13.788-4.831-13.788z" fill="#2F7ABF"/></svg>