<svg xmlns="http://www.w3.org/2000/svg" viewBox="0 0 64 64"><path d="M32 0C14.4 0 0 14.4 0 32s14.4 32 32 32 32-14.4 32-32S49.6 0 32 0zm0 59.6C16.8 59.6 4.4 47.2 4.4 32S16.8 4.4 32 4.4 59.6 16.8 59.6 32 47.2 59.6 32 59.6z" fill="#3c4752"/><path d="M32 57.5c8.2 0 15.5-3.9 20.2-9.9-.2-1.5-.3-2.8-.5-3.2-.8-2-1.9-3.8-3.9-4.9-.9-.5-1.8-1-2.7-1.3-1.4-.6-2.8-1.2-4.2-1.7 1.6 0 3.1-.4 4.2-.9-.1 0-.2-.1-.2-.1-1.3-.5-2.4-1.2-3.1-2.5-.3-.6-.6-1.1-.7-1.7h.6c.6 0 .9-.2 1.1-.7 1.1-2.6 1.3-5.2 1-8-.4-3.2-1.4-6.2-3.4-8.7-.1-.1-.1-.2-.2-.3-.5-.6-1-1.2-1.6-1.6-1-.9-2.1-1.7-3.4-1.9-.7-.1-1.4-.2-2.1-.2H31c-.4 0-.8 0-1.2.1-1.7.1-3.2.9-4.5 2-.7.5-1.2 1.1-1.7 1.7-2.1 2.6-3.2 5.7-3.6 9-.3 2.8-.1 5.5 1.1 8 .1.2.4.6.6.6h1.1c-.6 2-1.8 3.5-3.8 4.3-.1 0-.1.1-.3.1 1.5.5 2.9.8 4.3.8l-5.7 2.4c-2 .9-3.5 2.3-4.5 4.3-.4.7-.7 2.6-1 4.7 4.9 5.8 12.1 9.6 20.2 9.6zm-7.1-21.3c1.1-.2 2.1-.7 3.1-1.5.8.4 1.5.9 2.2 1.3 1.2.6 2.4.6 3.6 0 .7-.3 1.3-.7 2-1.1 1.1.9 2.3 1.3 3.7 1.4-8.6 8.2-14.6-.1-14.6-.1zm-.4-16.4c.1-.8.2-1.5.4-2.2.1-.5.6-.8 1.1-.8 1.7.1 3.4 0 5.1-.4.6-.1 1.1-.3 1.6-.5.4.3.7.5 1.1.8 1 .6 2 1.3 2.8 2.1.9.8 1.6 1.7 2.4 2.6.3-1.7-1.1-2.6-1.9-3.8 1.1.7 1.9 1.4 2.5 2.4l.2.4c.3.7.6 1.4.6 2.3v.6c0 .2-.1 1-.3 1.8-.7 3.6-2.6 6.8-5.6 8.9-.1.1-.2.1-.3.2-1.7 1.1-3.1.9-4.8 0-6.9-3.8-4.9-14.4-4.9-14.4z" fill="#8b33bb"/></svg>