<svg viewBox="0 0 64 64" xmlns="http://www.w3.org/2000/svg"><g fill="#2F7ABF"><path d="M46.865 40.591a50.223 50.223 0 01-.031-1.949h.024l-.001-4.888c-.003-1.6-.006-3.253.011-4.868.022-1.972-1.101-3.425-3.005-3.887a721.922 721.922 0 01-5.574-1.38l-.814-.204c-1.383-.346-2.813-.705-4.221-1.05a5.298 5.298 0 00-2.488-.005 893.26 893.26 0 00-4.521 1.124c-1.775.444-3.984.997-6.088 1.505-1.904.459-3.036 1.927-3.027 3.926l.009 1.739c.018 3.347.036 6.808-.013 10.196-.049 3.482 1.07 6.636 3.326 9.375 2.434 2.953 5.592 5.214 9.938 7.117.48.21 1.029.32 1.587.32a4.24 4.24 0 001.659-.336c3.668-1.579 6.604-3.554 8.975-6.038 2.975-3.114 4.407-6.715 4.254-10.697zm-6.511 8.728c-2.173 2.276-4.908 4.116-8.358 5.621-4.053-1.802-6.97-3.888-9.166-6.551-1.796-2.181-2.651-4.575-2.612-7.326.056-3.934.034-7.928.014-11.789l-.006-1.437c2.17-.527 4.361-1.074 6.484-1.605 1.673-.419 3.401-.852 5.101-1.269a.944.944 0 01.399.005c1.73.427 3.49.866 5.193 1.293 2.085.522 4.238 1.061 6.371 1.58a439.047 439.047 0 00-.009 5.124v.441l-.002 1.563c0 .602-.006 1.205-.013 1.809-.013 1.343-.027 2.729.027 4.111.119 3.133-1.001 5.89-3.423 8.43z"/><path d="M36.309 28.844c-.905-.227-1.831-.458-2.756-.688L22.616 39.093c-.004.522-.01 1.042-.017 1.562-.018 1.283.208 2.468.684 3.579L38.2 29.317l-1.891-.473zm5.076 5.701v-.352c-.002-1.338-.005-2.72.007-4.088l-.456-.111L24.57 46.361l.113.14a16.005 16.005 0 002.86 2.696l13.842-13.842v-.81zm-18.758 1.123l7.412-7.412-2.26.565c-1.694.424-3.442.861-5.173 1.281l.005 1.146c.007 1.456.015 2.934.016 4.42zm18.738 3.119L29.617 50.536c.734.416 1.525.812 2.38 1.192 2.752-1.201 4.935-2.669 6.669-4.485 1.933-2.027 2.826-4.227 2.73-6.727a45.469 45.469 0 01-.031-1.729z"/></g><path d="M57.951 6.333H6.049a1.948 1.948 0 00-1.948 1.948v38.562c0 1.077.873 1.948 1.948 1.948h8.922a17.363 17.363 0 01-1.203-3.371H7.281V14.606h49.437V45.42h-6.495a17.679 17.679 0 01-1.211 3.371h8.94a1.948 1.948 0 001.948-1.948V8.281a1.95 1.95 0 00-1.949-1.948zM9.043 12.402a1.932 1.932 0 110-3.863 1.932 1.932 0 010 3.863zm5.243 0a1.929 1.929 0 01-1.93-1.93 1.93 1.93 0 113.862 0c0 1.065-.864 1.93-1.932 1.93zm5.244 0a1.932 1.932 0 11.004-3.864 1.932 1.932 0 01-.004 3.864zm35.255 0H31.54a1.93 1.93 0 01-1.366-3.298 1.925 1.925 0 011.366-.566h23.245a1.933 1.933 0 010 3.864z" fill="#3C4752"/></svg>