<svg version="1.1" id="Layer_1" xmlns="http://www.w3.org/2000/svg" x="0" y="0" viewBox="0 0 64 64" xml:space="preserve"><style>.st0{fill:#8b33bb}</style><path class="st0" d="M46.9 40.6V28.9c0-2-1.1-3.4-3-3.9-1.9-.4-3.7-.9-5.6-1.4l-.8-.2c-1.4-.3-2.8-.7-4.2-1-.8-.2-1.7-.2-2.5 0-1.5.4-3.1.8-4.5 1.1-1.8.4-4 1-6.1 1.5-1.9.5-3 1.9-3 3.9v11.9c0 3.5 1.1 6.6 3.3 9.4 2.4 3 5.6 5.2 9.9 7.1.5.2 1 .3 1.6.3.6 0 1.1-.1 1.7-.3 3.7-1.6 6.6-3.6 9-6 2.9-3.1 4.3-6.7 4.2-10.7zm-6.5 8.7c-2.2 2.3-4.9 4.1-8.4 5.6-4.1-1.8-7-3.9-9.2-6.6-1.8-2.2-2.7-4.6-2.6-7.3.1-3.9 0-7.9 0-11.8v-1.4c2.2-.5 4.4-1.1 6.5-1.6 1.7-.4 3.4-.9 5.1-1.3h.4c1.7.4 3.5.9 5.2 1.3 2.1.5 4.2 1.1 6.4 1.6v13c.1 3.2-1 6-3.4 8.5z"/><path class="st0" d="M36.3 28.8c-.9-.2-1.8-.5-2.8-.7l-10.9 11v1.6c0 1.3.2 2.5.7 3.6l14.9-14.9c-.6-.2-1.3-.4-1.9-.6zm5.1 5.7V30c-.2 0-.3-.1-.5-.1L24.6 46.4l.1.1c.8 1 1.8 1.9 2.9 2.7l13.8-13.8v-.9zm-18.8 1.2l7.4-7.4c-.8.2-1.5.4-2.3.6-1.7.4-3.4.9-5.2 1.3v1.1c.1 1.4.1 2.9.1 4.4zm18.8 3.1L29.6 50.5c.7.4 1.5.8 2.4 1.2 2.8-1.2 4.9-2.7 6.7-4.5 1.9-2 2.8-4.2 2.7-6.7v-1.7z"/><path d="M58 6.3H6c-1 0-1.9.9-1.9 2v38.6c0 1.1.9 1.9 1.9 1.9h9c-.5-1.1-.9-2.2-1.2-3.4H7.3V14.6h49.4v30.8h-6.5c-.3 1.2-.7 2.3-1.2 3.4h9c1.1 0 1.9-.9 1.9-1.9V8.3c0-1.1-.9-2-1.9-2zM9 12.4c-1.1 0-1.9-.9-1.9-1.9 0-1.1.9-2 1.9-2 1.1 0 1.9.9 1.9 1.9.1 1.1-.8 2-1.9 2zm5.3 0c-1.1 0-1.9-.9-1.9-1.9 0-1.1.9-1.9 1.9-1.9s1.9.9 1.9 1.9c0 1-.8 1.9-1.9 1.9zm5.2 0c-1.1 0-1.9-.9-1.9-1.9 0-1.1.9-1.9 1.9-1.9 1.1 0 1.9.9 1.9 1.9.1 1-.8 1.9-1.9 1.9zm35.3 0H31.5c-1.1 0-1.9-.9-1.9-1.9 0-.5.2-1 .6-1.4s.8-.6 1.4-.6h23.2c1.1 0 1.9.9 1.9 1.9 0 1.1-.8 2-1.9 2z" fill="#3c4752"/></svg>