<svg viewBox="0 0 64 64" xmlns="http://www.w3.org/2000/svg"><path d="M42.382 7.083h-2.729c-.237-.593-.712-1.305-1.305-1.78a6.104 6.104 0 0 0-4.272-1.78h-4.272c-2.492 0-4.628 1.543-5.458 3.56h-2.729a2.38 2.38 0 0 0-2.373 2.373v4.628a2.38 2.38 0 0 0 2.373 2.373h20.646a2.38 2.38 0 0 0 2.373-2.373V9.456c.119-1.305-.949-2.373-2.254-2.373zm-10.323 2.966c-1.305 0-2.373-1.068-2.373-2.373s1.068-2.373 2.373-2.373c1.305 0 2.373 1.068 2.373 2.373s-1.067 2.373-2.373 2.373z" fill="#3C4752"/><path d="M53.773 10.405h-6.865v2.492h3.899c.831.119 1.543.831 1.543 1.661v40.461c0 .917-.744 1.661-1.661 1.661h-36.93a1.988 1.988 0 0 1-1.988-1.988V14.558c0-.917.744-1.661 1.661-1.661h3.543v-2.492h-6.628a2.492 2.492 0 0 0-2.492 2.492v45.089a2.492 2.492 0 0 0 2.492 2.492h43.309a2.492 2.492 0 0 0 2.492-2.492V12.897c-.002-1.424-1.07-2.492-2.375-2.492z" fill="#3C4752"/><path d="M41.904 32.033c-3.156 0-5.724-2.568-5.724-5.724s2.568-5.724 5.724-5.724 5.724 2.568 5.724 5.724-2.567 5.724-5.724 5.724zm0-9.602c-2.138 0-3.878 1.74-3.878 3.878s1.74 3.878 3.878 3.878 3.878-1.74 3.878-3.878-1.74-3.878-3.878-3.878zm-18.202 3.878l3.022-3.022a1.135 1.135 0 1 0-1.606-1.606l-3.022 3.022-3.022-3.022a1.135 1.135 0 1 0-1.606 1.606l3.022 3.022-3.022 3.022a1.135 1.135 0 1 0 1.606 1.606l3.022-3.022 3.022 3.022a1.131 1.131 0 0 0 1.606 0 1.135 1.135 0 0 0 0-1.606l-3.022-3.022zM43.51 46.233l3.022-3.022a1.135 1.135 0 1 0-1.606-1.606l-3.022 3.022-3.022-3.022a1.135 1.135 0 1 0-1.606 1.606l3.022 3.022-3.022 3.022a1.135 1.135 0 1 0 1.606 1.606l3.022-3.022 3.022 3.022a1.131 1.131 0 0 0 1.606 0 1.135 1.135 0 0 0 0-1.606l-3.022-3.022zm-4.066-10.125l-1.15-3.88a.682.682 0 0 0-.847-.46l-3.907 1.158a.681.681 0 1 0 .387 1.307l1.918-.568c-2.131 3.489-3.508 3.79-4.027 3.744-.358-.032-.636-.221-1.061-.527-.542-.39-1.217-.876-2.209-.851-1.721.043-3.217 1.576-4.617 4.78a5.73 5.73 0 0 0-7.559 5.422c0 3.157 2.568 5.724 5.724 5.724s5.724-2.568 5.724-5.724c0-1.695-.741-3.22-1.914-4.269 1.448-3.43 2.475-3.657 2.697-3.664.208-.005.402.119.827.424.502.362 1.19.857 2.186.946 2.023.18 4.017-1.352 6.076-4.676l.445 1.5a.682.682 0 1 0 1.307-.386zm-13.47 10.125c0 2.138-1.74 3.878-3.878 3.878s-3.878-1.74-3.878-3.878a3.883 3.883 0 0 1 5.028-3.704 3.898 3.898 0 0 1 1.93 1.352c.5.652.798 1.467.798 2.352z" fill="#2F7ABF"/></svg>