<svg version="1.1" id="Layer_1" xmlns="http://www.w3.org/2000/svg" x="0" y="0" viewBox="0 0 64 64" xml:space="preserve"><style>.st0{fill:#3c4752}</style><path class="st0" d="M43.7 4h-3.1c-.3-.7-.8-1.5-1.5-2a6.8 6.8 0 0 0-4.8-2h-4.8c-2.8 0-5.2 1.7-6.1 4h-3.1c-1.5 0-2.7 1.2-2.7 2.7v5.2c0 1.5 1.2 2.7 2.7 2.7h23.2c1.5 0 2.7-1.2 2.7-2.7V6.7c.1-1.5-1.1-2.7-2.5-2.7zM32.1 7.3c-1.5 0-2.7-1.2-2.7-2.7S30.6 2 32.1 2c1.5 0 2.7 1.2 2.7 2.7s-1.3 2.6-2.7 2.6z"/><path class="st0" d="M56.5 7.7h-7.7v2.8h4.4c.9.1 1.7.9 1.7 1.9v45.5c0 1-.8 1.9-1.9 1.9H11.5c-1.2 0-2.2-1-2.2-2.2V12.4c0-1 .8-1.9 1.9-1.9h4V7.7H7.7c-1.5 0-2.8 1.3-2.8 2.8v50.7c0 1.5 1.3 2.8 2.8 2.8h48.7c1.5 0 2.8-1.3 2.8-2.8V10.5c-.1-1.6-1.3-2.8-2.7-2.8z"/><path d="M43.1 32c-3.5 0-6.4-2.9-6.4-6.4s2.9-6.4 6.4-6.4c3.5 0 6.4 2.9 6.4 6.4S46.7 32 43.1 32zm0-10.8c-2.4 0-4.4 2-4.4 4.4s2 4.4 4.4 4.4 4.4-2 4.4-4.4-2-4.4-4.4-4.4zm-20.4 4.4l3.4-3.4c.5-.5.5-1.3 0-1.8s-1.3-.5-1.8 0l-3.4 3.4-3.4-3.4c-.5-.5-1.3-.5-1.8 0s-.5 1.3 0 1.8l3.4 3.4-3.4 3.4c-.5.5-.5 1.3 0 1.8.2.2.6.4.9.4.3 0 .7-.1.9-.4l3.4-3.4 3.4 3.4c.2.2.6.4.9.4s.7-.1.9-.4c.5-.5.5-1.3 0-1.8l-3.4-3.4zM44.9 48l3.4-3.4c.5-.5.5-1.3 0-1.8s-1.3-.5-1.8 0l-3.4 3.4-3.4-3.4c-.5-.5-1.3-.5-1.8 0s-.5 1.3 0 1.8l3.4 3.4-3.4 3.4c-.5.5-.5 1.3 0 1.8.2.2.6.4.9.4s.7-.1.9-.4l3.4-3.4 3.4 3.4c.2.2.6.4.9.4.3 0 .7-.1.9-.4.5-.5.5-1.3 0-1.8L44.9 48zm-4.5-11.4l-1.3-4.4c-.1-.4-.5-.6-1-.5L33.7 33c-.4.1-.6.5-.5 1 .1.4.5.6 1 .5l2.2-.6c-2.4 3.9-3.9 4.3-4.5 4.2-.4 0-.7-.2-1.2-.6-.6-.4-1.4-1-2.5-1-1.9 0-3.6 1.8-5.2 5.4-.6-.2-1.3-.3-2.1-.3-3.5 0-6.4 2.9-6.4 6.4 0 3.5 2.9 6.4 6.4 6.4s6.4-2.9 6.4-6.4c0-1.9-.8-3.6-2.2-4.8 1.6-3.9 2.8-4.1 3-4.1.2 0 .5.1.9.5.6.4 1.3 1 2.5 1.1 2.3.2 4.5-1.5 6.8-5.3l.5 1.7c.1.4.5.6.8.5h.1c.6-.2.8-.6.7-1zM25.2 48c0 2.4-2 4.4-4.4 4.4s-4.4-2-4.4-4.4c0-2.4 2-4.4 4.4-4.4.4 0 .9.1 1.3.2.9.3 1.6.8 2.2 1.5.6.8.9 1.7.9 2.7z" fill="#8b33bb"/></svg>