<svg viewBox="0 0 64 64" xmlns="http://www.w3.org/2000/svg"><path d="M57.67 11H6.33a1.927 1.927 0 00-1.927 1.927v38.147c0 1.063.863 1.926 1.927 1.926h51.34a1.927 1.927 0 001.927-1.927V12.927A1.927 1.927 0 0057.67 11zm-38.005 2.181a1.912 1.912 0 110 3.824 1.912 1.912 0 010-3.824zm-5.187 0a1.91 1.91 0 110 3.82 1.91 1.91 0 010-3.82zm-5.187 0a1.912 1.912 0 11-.003 3.823 1.912 1.912 0 01.003-3.823zm47.16 36.484H7.547V19.184h48.904v30.481zm0-34.573a1.912 1.912 0 01-1.911 1.911H31.544a1.912 1.912 0 010-3.822H54.54c1.055 0 1.911.856 1.911 1.911z" fill="#3C4752"/><path d="M34.459 30.876h-4.933a3.03 3.03 0 01-3.027-3.027v-2.22a3.03 3.03 0 013.027-3.027h4.933a3.03 3.03 0 013.027 3.027v2.22a3.03 3.03 0 01-3.027 3.027zM20.62 46.382h-3.904a2.398 2.398 0 01-2.395-2.395V42.23a2.398 2.398 0 012.395-2.395h3.904a2.398 2.398 0 012.395 2.395v1.757a2.397 2.397 0 01-2.395 2.395zm13.328 0h-3.904a2.398 2.398 0 01-2.395-2.395V42.23a2.398 2.398 0 012.395-2.395h3.904a2.398 2.398 0 012.395 2.395v1.757a2.397 2.397 0 01-2.395 2.395zm13.328 0h-3.904a2.398 2.398 0 01-2.395-2.395V42.23a2.398 2.398 0 012.395-2.395h3.904a2.398 2.398 0 012.395 2.395v1.757a2.397 2.397 0 01-2.395 2.395zm-1.912-11.699H32.678v-1.5a.682.682 0 10-1.364 0v1.5H18.628a.682.682 0 00-.682.682v2.183a.682.682 0 101.364 0v-1.5h12.004v1.5a.682.682 0 101.364 0v-1.5h12.004v1.5a.682.682 0 101.364 0v-2.183a.682.682 0 00-.682-.682z" fill="#2F7ABF"/></svg>