<svg height="60" id="Layer_1" version="1.1" width="60" xml:space="preserve" xmlns="http://www.w3.org/2000/svg"><style>.st0{fill:#c2e4f8}.st1{fill:#0a94e3}.st2{fill:#fff}</style><path class="st2" d="M52 18h5a2 2 0 0 1 2 2v39H1V20a2 2 0 0 1 2-2h5"/><path class="st1" d="M59 60H1a1 1 0 0 1-1-1V20c0-1.654 1.346-3 3-3h5a1 1 0 1 1 0 2H3a1 1 0 0 0-1 1v38h56V20a1 1 0 0 0-1-1h-5a1 1 0 1 1 0-2h5c1.654 0 3 1.346 3 3v39a1 1 0 0 1-1 1z"/><path class="st0" d="M35 35v1a5 5 0 1 1-10 0v-1H7v18h46V35H35z"/><path class="st1" d="M53 54H7a1 1 0 0 1-1-1V35a1 1 0 0 1 1-1h18a1 1 0 0 1 1 1v1c0 2.206 1.794 4 4 4s4-1.794 4-4v-1a1 1 0 0 1 1-1h18a1 1 0 0 1 1 1v18a1 1 0 0 1-1 1zM8 52h44V36H36c0 3.309-2.691 6-6 6s-6-2.691-6-6H8v16z"/><path class="st0" d="M35 29v7a5 5 0 0 1-10 0v-7h10z"/><path class="st1" d="M30 42c-3.309 0-6-2.691-6-6v-7a1 1 0 0 1 1-1h10a1 1 0 0 1 1 1v7c0 3.309-2.691 6-6 6zm-4-12v6c0 2.206 1.794 4 4 4s4-1.794 4-4v-6h-8zm-5 12h-6a1 1 0 1 1 0-2h6a1 1 0 1 1 0 2zm-10 0c-.13 0-.26-.03-.38-.08s-.23-.12-.33-.21A.99.99 0 0 1 10 41c0-.26.11-.52.29-.71a1 1 0 0 1 1.09-.21c.13.05.23.12.33.21.18.19.29.45.29.71 0 .13-.03.26-.08.38s-.12.23-.21.33c-.1.09-.21.16-.33.21s-.25.08-.38.08zm30 6h-8a1 1 0 1 1 0-2h8a1 1 0 1 1 0 2zm-24 0H7a1 1 0 1 1 0-2h10a1 1 0 1 1 0 2zm36-6h-8a1 1 0 1 1 0-2h8a1 1 0 1 1 0 2zm-24 6a.99.99 0 0 1-1-1c0-.13.02-.26.08-.38.05-.12.12-.23.21-.33.37-.37 1.05-.37 1.42 0 .09.1.16.21.21.33a.995.995 0 0 1-.21 1.09c-.1.09-.21.16-.33.21s-.25.08-.38.08z"/><path class="st1" d="M30 38a1 1 0 0 1-1-1v-3a1 1 0 1 1 2 0v3a1 1 0 0 1-1 1z"/><path class="st1" d="M30 36c-1.103 0-2-.897-2-2s.897-2 2-2 2 .897 2 2-.897 2-2 2zm0-2.002V34v-.002z"/><path class="st0" d="M55 28v1H45v-1c0-2.76 2.24-5 5-5s5 2.24 5 5zm-10 0v1H35v-1c0-2.76 2.24-5 5-5s5 2.24 5 5zm-10 0v1H25v-1c0-2.76 2.24-5 5-5s5 2.24 5 5zm-10 0v1H15v-1c0-2.76 2.24-5 5-5s5 2.24 5 5zm-10 0v1H5v-1c0-2.76 2.24-5 5-5s5 2.24 5 5z"/><path class="st2" d="M30 23c-2.76 0-5 2.24-5 5 0-2.76-2.24-5-5-5 0-2.76 2.24-5 5-5s5 2.24 5 5zm10 0c-2.76 0-5 2.24-5 5 0-2.76-2.24-5-5-5 0-2.76 2.24-5 5-5s5 2.24 5 5zm10 0c-2.76 0-5 2.24-5 5 0-2.76-2.24-5-5-5 0-2.76 2.24-5 5-5s5 2.24 5 5zm-30 0c-2.76 0-5 2.24-5 5 0-2.76-2.24-5-5-5 0-2.76 2.24-5 5-5s5 2.24 5 5z"/><path class="st0" d="M35 8c-2.76 0-5 2.24-5 5 0-2.76-2.24-5-5-5 0-2.76 2.24-5 5-5s5 2.24 5 5z"/><path class="st2" d="M30 13c-2.76 0-5 2.24-5 5 0-2.76-2.24-5-5-5 0-2.76 2.24-5 5-5s5 2.24 5 5zm10 0c-2.76 0-5 2.24-5 5 0-2.76-2.24-5-5-5 0-2.76 2.24-5 5-5s5 2.24 5 5z"/><path class="st1" d="M5 30a1 1 0 0 1-1-1v-1c0-3.309 2.691-6 6-6s6 2.691 6 6a1 1 0 1 1-2 0c0-2.206-1.794-4-4-4s-4 1.794-4 4v1a1 1 0 0 1-1 1z"/><path class="st1" d="M15 30a1 1 0 0 1-1-1v-1c0-3.309 2.691-6 6-6s6 2.691 6 6a1 1 0 1 1-2 0c0-2.206-1.794-4-4-4s-4 1.794-4 4v1a1 1 0 0 1-1 1z"/><path class="st1" d="M25 30a1 1 0 0 1-1-1v-1c0-3.309 2.691-6 6-6s6 2.691 6 6a1 1 0 1 1-2 0c0-2.206-1.794-4-4-4s-4 1.794-4 4v1a1 1 0 0 1-1 1z"/><path class="st1" d="M35 30a1 1 0 0 1-1-1v-1c0-3.309 2.691-6 6-6s6 2.691 6 6a1 1 0 1 1-2 0c0-2.206-1.794-4-4-4s-4 1.794-4 4v1a1 1 0 0 1-1 1z"/><path class="st1" d="M55 30a1 1 0 0 1-1-1v-1c0-2.206-1.794-4-4-4s-4 1.794-4 4v1a1 1 0 1 1-2 0v-1c0-3.309 2.691-6 6-6s6 2.691 6 6v1a1 1 0 0 1-1 1z"/><path class="st0" d="M40 23c0-2.76-2.24-5-5-5 0-2.76 2.24-5 5-5s5 2.24 5 5c-2.76 0-5 2.24-5 5zm-5-5c-2.76 0-5 2.24-5 5 0-2.76-2.24-5-5-5 0-2.76 2.24-5 5-5s5 2.24 5 5zm-10 0c-2.76 0-5 2.24-5 5 0-2.76-2.24-5-5-5 0-2.76 2.24-5 5-5s5 2.24 5 5z"/><path class="st1" d="M59 30H1a1 1 0 1 1 0-2h58a1 1 0 1 1 0 2zM35 9a1 1 0 0 1-1-1c0-2.206-1.794-4-4-4s-4 1.794-4 4a1 1 0 1 1-2 0c0-3.309 2.691-6 6-6s6 2.691 6 6a1 1 0 0 1-1 1z"/><path class="st1" d="M30 14a1 1 0 0 1-1-1c0-2.206-1.794-4-4-4s-4 1.794-4 4a1 1 0 1 1-2 0c0-3.309 2.691-6 6-6s6 2.691 6 6a1 1 0 0 1-1 1z"/><path class="st1" d="M40 14a1 1 0 0 1-1-1c0-2.206-1.794-4-4-4s-4 1.794-4 4a1 1 0 1 1-2 0c0-3.309 2.691-6 6-6s6 2.691 6 6a1 1 0 0 1-1 1zm-15 5a1 1 0 0 1-1-1c0-2.206-1.794-4-4-4s-4 1.794-4 4a1 1 0 1 1-2 0c0-3.309 2.691-6 6-6s6 2.691 6 6a1 1 0 0 1-1 1z"/><path class="st1" d="M35 19a1 1 0 0 1-1-1c0-2.206-1.794-4-4-4s-4 1.794-4 4a1 1 0 1 1-2 0c0-3.309 2.691-6 6-6s6 2.691 6 6a1 1 0 0 1-1 1z"/><path class="st1" d="M45 19a1 1 0 0 1-1-1c0-2.206-1.794-4-4-4s-4 1.794-4 4a1 1 0 1 1-2 0c0-3.309 2.691-6 6-6s6 2.691 6 6a1 1 0 0 1-1 1zm-25 5a1 1 0 0 1-1-1c0-2.206-1.794-4-4-4s-4 1.794-4 4a1 1 0 1 1-2 0c0-3.309 2.691-6 6-6s6 2.691 6 6a1 1 0 0 1-1 1z"/><path class="st1" d="M30 24a1 1 0 0 1-1-1c0-2.206-1.794-4-4-4s-4 1.794-4 4a1 1 0 1 1-2 0c0-3.309 2.691-6 6-6s6 2.691 6 6a1 1 0 0 1-1 1z"/><path class="st1" d="M40 24a1 1 0 0 1-1-1c0-2.206-1.794-4-4-4s-4 1.794-4 4a1 1 0 1 1-2 0c0-3.309 2.691-6 6-6s6 2.691 6 6a1 1 0 0 1-1 1z"/><path class="st1" d="M50 24a1 1 0 0 1-1-1c0-2.206-1.794-4-4-4s-4 1.794-4 4a1 1 0 1 1-2 0c0-3.309 2.691-6 6-6s6 2.691 6 6a1 1 0 0 1-1 1z"/></svg>