<svg viewBox="0 0 64 64" xmlns="http://www.w3.org/2000/svg"><path d="M46.732 41.551c-5.06 0-9.699-1.679-13.463-4.396v9.647c0 7.478 6.054 13.532 13.532 13.532s13.532-6.054 13.532-13.532v-9.738c-3.765 2.808-8.421 4.487-13.601 4.487z" fill="#3C4752"/><path d="M60.045 34.491a9.722 9.722 0 0 0-.424-1.341c-.119-.712-.475-1.306-.712-1.899a14.768 14.768 0 0 0-2.73-3.798c-2.023-2.023-4.822-3.442-7.883-3.817v3.932c-.356-.503-.902-.827-1.495-.827a1.88 1.88 0 0 0-1.602.865v-3.99c-4.807.521-8.803 3.55-10.743 7.754a5.237 5.237 0 0 0-.712 1.899c-.126.421-.221.842-.293 1.269 3.241 2.746 7.286 4.43 11.749 4.745v-6.048a1.88 1.88 0 0 0 1.602.865c.615 0 1.15-.276 1.495-.714v5.891a20.77 20.77 0 0 0 11.748-4.786z" fill="#3C4752"/><g fill="#2F7ABF"><path d="M16.74 14.242a3.958 3.958 0 0 0-.847-.659 9.106 9.106 0 0 0-1.114-.552l-.3-.127a12.432 12.432 0 0 1-.514-.237 4.197 4.197 0 0 1-.6-.351l-.013-.009a1.544 1.544 0 0 1-.389-.39.82.82 0 0 1-.137-.465c0-.159.041-.302.123-.429a1.062 1.062 0 0 1 .416-.368c.135-.073.294-.131.478-.173.193-.045.405-.07.636-.074l.085-.001a4.71 4.71 0 0 1 1.885.404.401.401 0 0 0 .566-.367v-.908a.775.775 0 0 0-.587-.75 6.367 6.367 0 0 0-.563-.114 9.312 9.312 0 0 0-1.386-.097v-.694h-1.114v.775a6.378 6.378 0 0 0-.488.096c-.49.118-.922.302-1.294.552-.372.25-.666.568-.883.955-.216.387-.325.85-.325 1.388 0 .687.198 1.274.595 1.759.396.485.999.897 1.806 1.232.205.084.402.168.589.249l.298.134c.274.124.511.255.71.389.037.025.072.05.106.077.15.113.272.234.366.364a.899.899 0 0 1 .064.955.97.97 0 0 1-.328.332 1.24 1.24 0 0 1-.102.059 1.96 1.96 0 0 1-.445.161 3.12 3.12 0 0 1-.669.078l-.099.001a4.398 4.398 0 0 1-2.247-.623.398.398 0 0 0-.602.341v1.027c0 .33.211.622.522.731.248.086.517.156.808.211.511.096 1.05.144 1.616.144v.694h1.114v-.772c.157-.022.312-.049.463-.081.497-.106.933-.28 1.308-.523.375-.242.672-.56.89-.951.219-.392.328-.876.328-1.452 0-.419-.063-.785-.188-1.1a2.53 2.53 0 0 0-.538-.841z"/><path d="M13.921 3.667c-5.654 0-10.254 4.6-10.254 10.254s4.6 10.254 10.254 10.254 10.254-4.6 10.254-10.254-4.6-10.254-10.254-10.254zm-.293 19.629v-1.082C9.186 22.059 5.62 18.4 5.62 13.921s3.566-8.139 8.008-8.294V4.546c5.17 0 9.375 4.206 9.375 9.375s-4.205 9.375-9.375 9.375z"/><path d="M13.805 22.162v-.466c4.287 0 7.775-3.488 7.775-7.775s-3.488-7.775-7.775-7.775V5.68c4.544 0 8.241 3.697 8.241 8.241s-3.697 8.241-8.241 8.241z"/></g><path d="M46.878 17.224a6.07 6.07 0 0 0-4.35-1.834H31.133c-3.901 0-6.957 3.056-6.957 6.958v7.241a2.982 2.982 0 0 1-3.014 3.013h-2.255a2.981 2.981 0 0 1-3.014-3.013v-4.162a11.663 11.663 0 0 1-3.944 0v4.162c0 3.901 3.056 6.957 6.958 6.957h2.255a7.078 7.078 0 0 0 4.992-2.06c1.344-1.327 2.085-3.066 2.085-4.897v-7.241a2.981 2.981 0 0 1 3.014-3.014h11.276a2.16 2.16 0 0 1 2.182 2.182v.729h.002l1.908-.01.257-.001v-.001l1.591-.009h.002l.185.026v-.735a6.107 6.107 0 0 0-1.778-4.291z" fill="#3C4752"/></svg>