<svg version="1.1" id="Layer_1" xmlns="http://www.w3.org/2000/svg" x="0" y="0" viewBox="0 0 64 64" xml:space="preserve"><style>.st0{fill:#3c4752}.st1{fill:#8b33bb}</style><path class="st0" d="M48.6 42.8c-5.7 0-11-1.9-15.2-5v10.9c0 8.4 6.8 15.3 15.3 15.3S64 57.2 64 48.7v-11c-4.3 3.2-9.5 5.1-15.4 5.1z"/><path class="st0" d="M63.7 34.8c-.1-.5-.3-1-.5-1.5-.1-.8-.5-1.5-.8-2.1-.8-1.6-1.9-3.1-3.1-4.3-2.3-2.3-5.4-3.9-8.9-4.3V27c-.4-.6-1-.9-1.7-.9-.8 0-1.4.4-1.8 1v-4.5c-5.4.6-9.9 4-12.1 8.8-.4.7-.7 1.3-.8 2.1-.1.5-.2 1-.3 1.4 3.7 3.1 8.2 5 13.3 5.4v-6.8c.4.6 1 1 1.8 1 .7 0 1.3-.3 1.7-.8v6.7c4.9-.6 9.5-2.5 13.2-5.6z"/><path class="st1" d="M14.8 11.9c-.3-.3-.6-.5-1-.7-.4-.2-.8-.4-1.3-.6-.1 0-.2-.1-.3-.1l-.6-.3c-.2-.2-.5-.3-.6-.4-.2-.1-.3-.3-.4-.4-.1-.2-.2-.3-.2-.5s0-.3.1-.5c.1-.1.2-.3.4-.4h.1c.2-.1.3-.1.5-.2s.5-.1.7-.1h.8c.2 0 .5.1.7.2.3 0 .5.1.7.2.3.1.6-.1.6-.4v-1c0-.4-.3-.7-.7-.8-.2-.1-.4-.1-.6-.1-.5-.1-1-.1-1.6-.1v-.9H11v.9c-.2 0-.4.1-.6.1-.6.1-1 .3-1.5.6-.4.2-.7.6-1 1-.2.5-.3 1-.3 1.6 0 .8.2 1.4.7 2 .4.5 1.1 1 2 1.4.2.1.5.2.7.3.1.1.2.1.3.2.3.1.6.3.8.4l.1.1c.2.1.3.3.4.4.1.2.2.4.2.6 0 .2 0 .3-.1.5-.1.1-.2.3-.4.4 0 0-.1 0-.1.1-.1.1-.3.1-.5.2s-.5.1-.8.1h-.1c-.6 0-1.1-.1-1.7-.3-.3-.1-.6-.2-.9-.4-.3-.2-.7 0-.7.4v1.2c0 .4.2.7.6.8.3.1.6.2.9.2.6.1 1.2.2 1.8.2v.8h1.3v-.9c.2 0 .4-.1.5-.1.6-.1 1.1-.3 1.5-.6.4-.3.8-.6 1-1.1.2-.4.4-1 .4-1.6 0-.5-.1-.9-.2-1.2-.1-.6-.3-.9-.5-1.2z"/><path class="st1" d="M11.6 0C5.2 0 0 5.2 0 11.6s5.2 11.6 11.6 11.6S23.2 18 23.2 11.6 18 0 11.6 0zm-.3 22.2V21c-5-.2-9-4.3-9-9.4s4-9.2 9-9.4V1c5.8 0 10.6 4.8 10.6 10.6s-4.8 10.6-10.6 10.6z"/><path class="st0" d="M48.8 15.3c-1.3-1.3-3.1-2.1-4.9-2.1H31c-4.4 0-7.9 3.5-7.9 7.9v8.2c0 1.9-1.5 3.4-3.4 3.4h-2.5c-1.9 0-3.4-1.5-3.4-3.4v-4.7c-.7.1-1.5.2-2.2.2-.8 0-1.5-.1-2.2-.2v4.7c0 4.4 3.5 7.9 7.9 7.9h2.5c2.1 0 4.1-.8 5.6-2.3 1.5-1.5 2.4-3.5 2.4-5.5v-8.2c0-1.9 1.5-3.4 3.4-3.4h12.7c1.4 0 2.5 1.1 2.5 2.5v.7h4.5v-.8c-.1-1.9-.8-3.6-2.1-4.9z"/></svg>