<svg viewBox="0 0 64 64" xmlns="http://www.w3.org/2000/svg"><path d="M55.247 10.042l-6.542-6.395a2.001 2.001 0 0 0-1.398-.57H10.151a2 2 0 0 0-2 2v53.846a2 2 0 0 0 2 2H53.85a2 2 0 0 0 2-2V11.472a2.004 2.004 0 0 0-.603-1.43zM12.15 56.923V7.077h33.158v4.395a2 2 0 0 0 2 2h4.542v43.451h-39.7z" fill="#3C4752"/><path d="M46.508 18.763h-18.43a1.16 1.16 0 1 1 0-2.32h18.43a1.16 1.16 0 1 1 0 2.32zm0 9.782h-18.43a1.16 1.16 0 1 1 0-2.32h18.43a1.16 1.16 0 1 1 0 2.32zm0 9.783h-18.43a1.16 1.16 0 1 1 0-2.32h18.43a1.16 1.16 0 1 1 0 2.32zm0 9.782h-18.43a1.16 1.16 0 1 1 0-2.32h18.43a1.16 1.16 0 1 1 0 2.32zM19.737 19.674a1.01 1.01 0 0 1-.717-.297l-2.391-2.391a1.014 1.014 0 1 1 1.434-1.434l1.674 1.674 3.659-3.717a1.014 1.014 0 1 1 1.434 1.434l-4.376 4.434a1.008 1.008 0 0 1-.717.297zm0 9.782a1.01 1.01 0 0 1-.717-.297l-2.391-2.391a1.014 1.014 0 1 1 1.434-1.434l1.674 1.674 3.659-3.717a1.014 1.014 0 1 1 1.434 1.434l-4.376 4.434a1.008 1.008 0 0 1-.717.297zm.993 11.55a3.843 3.843 0 0 1-3.839-3.839 3.843 3.843 0 0 1 3.839-3.839 3.843 3.843 0 0 1 3.839 3.839 3.843 3.843 0 0 1-3.839 3.839zm0-6.528a2.692 2.692 0 0 0-2.689 2.689 2.692 2.692 0 0 0 2.689 2.689 2.692 2.692 0 0 0 2.689-2.689 2.692 2.692 0 0 0-2.689-2.689zm0 16.311c-2.117 0-3.839-1.722-3.839-3.839s1.722-3.839 3.839-3.839 3.839 1.722 3.839 3.839-1.722 3.839-3.839 3.839zm0-6.528a2.692 2.692 0 0 0-2.689 2.689 2.692 2.692 0 0 0 2.689 2.689 2.692 2.692 0 0 0 2.689-2.689 2.692 2.692 0 0 0-2.689-2.689z" fill="#2F7ABF"/></svg>