<svg xmlns="http://www.w3.org/2000/svg" viewBox="0 0 64 64"><path d="M57.7 7.7L50.5.6c-.4-.4-1-.6-1.5-.6H7.8C6.6 0 5.6 1 5.6 2.2v59.6c0 1.2 1 2.2 2.2 2.2h48.3c1.2 0 2.2-1 2.2-2.2V9.3c.1-.6-.2-1.2-.6-1.6zM10 59.6V4.4h36.7v4.9c0 1.2 1 2.2 2.2 2.2h5v48.1H10z" fill="#3c4752"/><path d="M48.1 17.4H27.7c-.7 0-1.3-.6-1.3-1.3 0-.7.6-1.3 1.3-1.3h20.4c.7 0 1.3.6 1.3 1.3-.1.7-.6 1.3-1.3 1.3zm0 10.8H27.7c-.7 0-1.3-.6-1.3-1.3s.6-1.3 1.3-1.3h20.4c.7 0 1.3.6 1.3 1.3s-.6 1.3-1.3 1.3zm0 10.8H27.7c-.7 0-1.3-.6-1.3-1.3 0-.7.6-1.3 1.3-1.3h20.4c.7 0 1.3.6 1.3 1.3-.1.7-.6 1.3-1.3 1.3zm0 10.8H27.7c-.7 0-1.3-.6-1.3-1.3s.6-1.3 1.3-1.3h20.4c.7 0 1.3.6 1.3 1.3s-.6 1.3-1.3 1.3zM18.4 18.4c-.3 0-.6-.1-.8-.3L15 15.4c-.4-.4-.4-1.1 0-1.6s1.1-.4 1.6 0l1.9 1.9 4-4.1c.4-.4 1.1-.4 1.6 0s.4 1.1 0 1.6L19.2 18c-.2.3-.5.4-.8.4zm0 10.8c-.3 0-.6-.1-.8-.3L15 26.2c-.4-.4-.4-1.1 0-1.6.4-.4 1.1-.4 1.6 0l1.9 1.9 4-4.1c.4-.4 1.1-.4 1.6 0s.4 1.1 0 1.6l-4.8 4.9c-.3.2-.6.3-.9.3zM19.5 42c-2.3 0-4.2-1.9-4.2-4.2 0-2.3 1.9-4.2 4.2-4.2s4.2 1.9 4.2 4.2c.1 2.3-1.8 4.2-4.2 4.2zm0-7.3c-1.6 0-3 1.3-3 3 0 1.6 1.3 3 3 3s3-1.3 3-3c0-1.6-1.3-3-3-3zm0 18.1c-2.3 0-4.2-1.9-4.2-4.2s1.9-4.2 4.2-4.2 4.2 1.9 4.2 4.2-1.8 4.2-4.2 4.2zm0-7.2c-1.6 0-3 1.3-3 3 0 1.6 1.3 3 3 3s3-1.3 3-3-1.3-3-3-3z" fill="#8b33bb"/></svg>