<svg viewBox="0 0 64 64" xmlns="http://www.w3.org/2000/svg"><path d="M60.529 52.352a.922.922 0 0 0 .922-.922v-2.521H2.548v2.521c0 .509.413.922.922.922h4.488v3.074H3.471a.922.922 0 0 0-.922.922v3.443c0 .509.413.922.922.922h57.058a.922.922 0 0 0 .922-.922v-3.443a.922.922 0 0 0-.922-.922h-4.488v-3.074h4.488zm-42.24 3.074h-3.566v-3.074h3.566v3.074zm10.329 0h-3.566v-3.074h3.566v3.074zm10.33 0h-3.566v-3.074h3.566v3.074zm10.329 0h-3.566v-3.074h3.566v3.074zM3.471 11.156a.922.922 0 0 0-.922.922v3.013h58.904v-3.013a.922.922 0 0 0-.922-.922h-4.488V8.082h4.488a.922.922 0 0 0 .922-.922V4.209a.922.922 0 0 0-.922-.922H3.471a.922.922 0 0 0-.922.922V7.16c0 .509.413.922.922.922h4.488v3.074H3.471zm42.24-3.074h3.566v3.074h-3.566V8.082zm-10.329 0h3.566v3.074h-3.566V8.082zm-10.33 0h3.566v3.074h-3.566V8.082zm-10.329 0h3.566v3.074h-3.566V8.082z" fill="#3C4752"/><path d="M32 18.781c-7.289 0-13.219 5.93-13.219 13.219S24.711 45.219 32 45.219 45.219 39.289 45.219 32 39.289 18.781 32 18.781zm5.81 13.833l-7.483 6.008a.921.921 0 0 1-1.499-.72V26.097a.922.922 0 0 1 1.487-.729l7.483 5.798a.922.922 0 0 1 .012 1.448z" fill="#2F7ABF"/></svg>