<svg xmlns="http://www.w3.org/2000/svg" viewBox="0 0 128 128"><path d="M96.6 14c5.5 0 10 4.4 10 9.8V110l-10.4-9.1-5.9-5.4-6.3-5.7 2.6 8.9H31.5c-5.5 0-10-4.4-10-9.8v-65c0-5.5 4.5-9.9 9.9-9.9h65.2m0-6.5H31.5C22.4 7.5 15 14.8 15 23.9v64.9c0 9.1 7.4 16.4 16.5 16.4h59.7l.6.5.1.1h.1l10.4 9.1 10.8 9.4V23.9c-.2-9.1-7.6-16.4-16.6-16.4z" fill="#efefef"/><path d="M74.3 73.1c1.5 1.8 3.2 3.9 3.2 3.9 10.7-.3 14.9-7.3 14.9-7.3-.2-9.7-2.6-19.3-7-28-3.9-3-8.7-4.8-13.7-5l-.7.8c8.3 2.5 12.1 6.1 12.1 6.1-4.5-2.5-9.5-4-14.6-4.6-3.3-.4-6.6-.3-9.8.1-.3 0-.6 0-.8.1-3.8.4-7.5 1.4-11 3-1.9.8-2.9 1.3-2.9 1.3s4-3.8 12.8-6.3l-.5-.6c-5 .2-9.7 2-13.6 5-4.4 8.7-6.8 18.3-7 28 0 0 4.1 7 14.8 7.3 0 0 1.8-2.2 3.3-4-6.2-1.8-8.5-5.7-8.5-5.7s.5.3 1.4.8c.1.1.1.1.2.1.2.1.3.1.4.2 1.1.6 2.3 1.2 3.5 1.6 2.3.9 4.7 1.6 7.1 2.1 4.2.8 8.4.8 12.6 0 2.4-.4 4.8-1.1 7-2.1 2-.7 3.8-1.7 5.6-2.8 0 .2-2.4 4.2-8.8 6zm-18-6.7c-2.7 0-4.9-2.5-4.9-5.5-.3-2.7 1.6-5.2 4.3-5.5 2.7-.3 5.2 1.6 5.5 4.3v1.2c.2 2.9-2 5.4-4.9 5.5zm17.6 0c-2.7 0-4.9-2.4-4.9-5.5.3-2.7 2.7-4.7 5.5-4.4 2.7.3 4.7 2.7 4.4 5.5-.3 2.5-2.5 4.4-5 4.4z" fill="#e0e0e0"/></svg>