<svg version="1.1" id="Layer_1" xmlns="http://www.w3.org/2000/svg" x="0" y="0" viewBox="0 0 24 24" xml:space="preserve"><style>.st0{fill:#efefef}</style><path class="st0" d="M3.9 16.5c-.2 0-.3-.1-.3-.2-.6-1.3-1-2.5-1-4v-.4c0-1.4.3-2.7 1-4 .3-.8.8-1.4 1.4-2.1 1.8-2.1 4.5-3.3 7.3-3.3 2.4 0 4.5.8 6.4 2.4 0 .2.1.2.1.3 0 .1 0 .2-.1.3L16 8.1c-.2.2-.4.2-.6 0-1-.6-2-1.1-3.2-1.1-1 0-2.1.3-2.9.9-.9.6-1.6 1.6-1.9 2.6-.2.4-.2.9-.2 1.4v.4c0 .5.1.9.2 1.4.1.2 0 .3-.2.5l-3.1 2.3c0-.1-.1 0-.2 0zm8.3-13.2c-2.6 0-5 1.1-6.7 2.9-.5.7-1 1.3-1.3 2-.6 1.1-.8 2.3-.9 3.6v.4c0 1.1.2 2.1.6 3.1l2.5-1.7c-.1-.4-.2-.8-.2-1.3v-.4c0-.6.1-1.1.2-1.6.4-1.2 1.1-2.1 2.1-2.9 2-1.4 4.8-1.5 6.8-.1l2.1-2.1c-1.3-1.1-3.3-1.9-5.2-1.9z"/><path class="st0" d="M12.2 21.5c-2.8 0-5.5-1.2-7.3-3.3-.6-.6-1-1.4-1.4-2-.1-.2 0-.4.1-.5l3.1-2.3c.1-.1.2-.1.4-.1s.2.2.2.2c.3 1 1 1.8 1.8 2.5.3.2.8.5 1.2.6.6.2 1.2.3 1.8.3 1.1 0 2.1-.2 2.9-.7.8-.5 1.3-1.2 1.6-2h-4.4c-.2 0-.4-.2-.4-.4v-3.5c0-.2.2-.4.4-.4h8.7c.2 0 .3.2.4.3.2.6.2 1.3.2 1.7 0 1.6-.2 2.9-.9 4.3-.5 1.1-1.2 2.1-2.1 2.9-1 .9-2.4 1.7-3.7 2.1-.9.3-1.8.3-2.6.3zm-7.8-5.4c.3.6.6 1.1 1.1 1.6 1.7 1.9 4.1 2.9 6.8 2.9.9 0 1.6-.1 2.4-.3 1.3-.3 2.5-1 3.3-1.8.8-.7 1.4-1.6 1.8-2.5.5-1.2.9-2.5.9-4 0-.4-.1-.8-.2-1.3h-7.9v2.7h4.5c.2 0 .2.1.3.2s.1.2.1.3c-.2 1.3-1 2.3-2.1 2.9-1 .6-2 .8-3.3.8-.8 0-1.4-.2-2.1-.4-.5-.2-1-.4-1.4-.7-.9-.6-1.5-1.4-1.9-2.3l-2.3 1.9z"/><path d="M7 10.8c-.1 0-.2 0-.2-.1L3.7 8.3c-.3 0-.3-.4-.1-.6.1-.2.4-.2.5-.1l3.1 2.3c.2.2.2.5.1.6-.1.2-.2.3-.3.3zm11.2 8.5c-.1 0-.2 0-.2-.1L15 17c-.2-.2-.2-.4-.1-.6s.4-.2.6-.1l2.9 2.2c.2.2.2.4.1.6-.1.1-.1.2-.3.2zm.1-4.9h-4.9c-.2 0-.4-.2-.4-.4s.2-.4.4-.4h4.9c.2 0 .4.2.4.4s-.2.4-.4.4z" fill="#e0e0e0"/></svg>