<svg xmlns="http://www.w3.org/2000/svg" viewBox="0 0 128 128"><path d="M83 23c12.2 0 22 9.8 22 22v38c0 12.2-9.8 22-22 22H45c-12.2 0-22-9.8-22-22V45c0-12.2 9.8-22 22-22h38m0-8H45c-16.5 0-30 13.5-30 30v38c0 16.5 13.5 30 30 30h38c16.5 0 30-13.5 30-30V45c0-16.5-13.5-30-30-30z" fill="#efefef"/><path d="M90.1 32c-3.2 0-5.7 2.6-5.7 5.7s2.6 5.7 5.7 5.7c3.2 0 5.7-2.6 5.7-5.7.1-3.1-2.5-5.7-5.7-5.7zM64.3 46.5C74 46.5 82 54.4 82 64.1s-7.9 17.7-17.7 17.7-17.7-7.9-17.7-17.7c0-9.7 7.9-17.6 17.7-17.6m0-8c-14.2 0-25.7 11.5-25.6 25.7 0 14.2 11.5 25.7 25.7 25.6C78.5 89.8 90 78.3 90 64.1 90 50 78.5 38.5 64.3 38.5z" fill="#e0e0e0"/></svg>