<svg xmlns="http://www.w3.org/2000/svg" viewBox="0 0 128 128"><path d="M42.4 57.5v35.8s1.7 24.2 32.3 24.2c12.5 0 18.6-4.5 20.3-6.1.3-.3.5-.8.4-1.2-.5-2.6-2.2-11.2-5.4-17.2-.4-.7-1.2-.9-1.8-.5h-.1c-1.2.7-3.4 1.5-7.5 1.5-4 .1-7.5-2.5-8.6-6.3V57.5h18.6c.8 0 1.4-.6 1.4-1.4h0v-19c0-.8-.6-1.4-1.4-1.4h0-18.7V10.9c0-.7-.6-1.4-1.4-1.4h-18c-.7 0-1.3.6-1.3 1.3-.4 4.6-2.8 20.9-19.7 27-.5.2-.9.7-.9 1.2v17.2c0 .8.6 1.4 1.4 1.4 0 0 0 0 0 0h10.4z" fill="none" stroke="#efefef" stroke-width="6.5" stroke-miterlimit="10"/></svg>