<svg xmlns="http://www.w3.org/2000/svg" viewBox="0 0 128 128"><path d="M86.9 30.7c5.3.1 10.4 2.3 14 6.2 0 0 7.6-1.5 11.9-4.5 0 0-1.1 5.9-8.1 10.4h.1c.5 0 4.5-.1 10.7-3 0 0-1.2 3.4-9.3 9.8.5 15.3-7.1 43.5-35 53.5-6.1 2.2-12.6 3.4-19.2 3.4-10.5 0-20.7-3-29.5-8.7 1.5.2 2.9.2 4.2.2 16.5 0 24.5-8.5 24.1-8.5h-.6c-14 0-17.4-13.4-17.4-13.4 1.1.7 2.4 1 3.7.9 1.7 0 3.4-.3 5-.7-15.8-3.7-15.2-18.9-15.2-18.9 2.1 1.4 4.6 2.2 7.2 2.3.4 0 .8 0 1.3-.1-14.4-11.4-5.7-25-5.7-25 16.3 18.9 36.3 19.5 39 19.5h.3c-1.5-8.9 2.2-17.4 12-22 2-1 4.2-1.5 6.5-1.4M122 18l-12.9 9.1c-2 1.2-4.1 2.1-6.3 2.6-4.5-3.5-10.1-5.5-15.8-5.5-3.2 0-6.4.7-9.3 2-9.2 4.3-14.8 11.8-15.9 20.7-10.9-2.2-20.7-8.1-27.8-16.6l-5.7-6.6-4.8 7.3c-3 5-4.2 10.9-3.4 16.7l-.4 9.5c-.1 6 1.9 11.9 5.7 16.7l1 3.9c1.4 5 4.3 9.5 8.4 12.9-2.7.6-5.4.9-8.1.9-1.2 0-2.4-.1-3.7-.2L.1 89.5l18.5 13.6c9.9 6.5 21.5 10 33.3 9.9 7.3 0 14.5-1.3 21.4-3.8C87 104.3 98.4 94.3 105 81.3c4.6-8.9 7.2-18.7 7.6-28.7 6.6-5.7 8.4-9.3 8.9-10.7l5.1-14.6-7 3.3L122 18z" fill="#efefef"/></svg>