<svg xmlns="http://www.w3.org/2000/svg" viewBox="0 0 128 128"><path d="M64 32.3c.2 0 22.9 0 37.9 1.1l.7.1c2 .2 4.2.4 6.3 2.6 1 1 2.1 4.5 2.5 7.1.6 5.5 1 11.1 1 16.7V68c0 5.6-.4 11.2-1 16.7-.4 2.5-1.5 6.1-2.5 7-2.1 2.2-4.3 2.4-6.3 2.6l-.7.1c-14.7 1-36.9 1.1-37.9 1.1-1.2 0-28-.3-36.6-1-.5-.1-1-.2-1.6-.2-2.3-.3-4.9-.6-6.7-2.5-1-1-2.1-4.5-2.5-7.1-.6-5.5-1-11.1-1-16.7v-8.2c0-5.6.4-11.2 1-16.7.4-2.5 1.5-6.1 2.5-7.1 2.1-2.2 4.3-2.4 6.3-2.6l.7-.1c15-.9 37.7-.9 37.9-1m0-6.4s-23.1 0-38.5 1.1c-2.1.3-6.8.3-11 4.6-3.3 3.3-4.4 10.8-4.4 10.8-.6 5.8-1 11.6-1.1 17.5v8.2c0 5.9.4 11.8 1.1 17.6 0 0 1.1 7.5 4.4 10.8 4.2 4.3 9.7 4.2 12.1 4.7 8.8.8 37.4 1.1 37.4 1.1s23.1 0 38.5-1.1c2.2-.3 6.8-.3 11-4.6 3.3-3.3 4.4-10.8 4.4-10.8.7-5.8 1.1-11.7 1.1-17.6V60c0-5.9-.4-11.8-1.1-17.6 0 0-1.1-7.5-4.4-10.8-4.2-4.3-8.9-4.4-11-4.6C87.1 25.8 64 25.8 64 25.9z" fill="#efefef"/><path fill="#e0e0e0" d="M54.1 47.6v32.8l28-16.4z"/></svg>