<?xml version="1.0" encoding="utf-8"?>
<!-- Generator: Adobe Illustrator 23.0.3, SVG Export Plug-In . SVG Version: 6.00 Build 0)  -->
<svg version="1.1" id="Layer_1" xmlns="http://www.w3.org/2000/svg" xmlns:xlink="http://www.w3.org/1999/xlink" x="0px" y="0px"
	 viewBox="0 0 48 48" style="enable-background:new 0 0 48 48;" xml:space="preserve">
<style type="text/css">
	.st0{fill:#6C5893;}
</style>
<g>
	<path class="st0" d="M29.8,32.3H27V20.2c0-1.7-1.4-3-3-3h-5.8c-1.7,0-3.1,1.4-3.1,3c0,1.7,1.4,3,3.1,3H21v9.1h-2.7
		c-1.7,0-3.1,1.4-3.1,3c0,1.7,1.4,3,3.1,3h11.5c1.7,0,3-1.4,3-3C32.8,33.7,31.5,32.3,29.8,32.3z"/>
	<path class="st0" d="M24,15.2c1.7,0,3-1.4,3-3.1c0-1.7-1.4-3.1-3-3.1h0c-1.7,0-3,1.4-3,3.1C21,13.9,22.3,15.2,24,15.2z"/>
	<path class="st0" d="M24,0C10.8,0,0,10.8,0,24s10.8,24,24,24s24-10.8,24-24S37.2,0,24,0z M24,41.9c-9.9,0-17.9-8-17.9-17.9
		S14.1,6.1,24,6.1s17.9,8,17.9,17.9S33.9,41.9,24,41.9z"/>
</g>
</svg>
