<?xml version="1.0" encoding="utf-8"?>
<!-- Generator: Adobe Illustrator 23.0.3, SVG Export Plug-In . SVG Version: 6.00 Build 0)  -->
<svg version="1.1" id="Layer_1" xmlns="http://www.w3.org/2000/svg" xmlns:xlink="http://www.w3.org/1999/xlink" x="0px" y="0px"
	 viewBox="0 0 70.7 22" style="enable-background:new 0 0 70.7 22;" xml:space="preserve">
<style type="text/css">
	.st0{fill:#7D4199;}
</style>
<path class="st0" d="M14.6,2.4c0,0-2,5.3,1.2,17.1l0.4,2.2c0,0-12.8,0-16.3-13c0,0,6.1-9.1,15.4-8.5L14.6,2.4z"/>
<path class="st0" d="M14.8,19.7c0,0,3.3-2.2,3.7-10.2s-3-9.6-3-9.6s5.3,1.2,7.9,7.7s1.8,8.9,1.8,8.9s-3.9,5.1-8.9,5.3"/>
<path class="st0" d="M56.1,2.4c0,0,2,5.3-1.2,17.1l-0.4,2.2c0,0,12.8,0,16.2-13c0,0-6.1-9.1-15.4-8.5L56.1,2.4z"/>
<path class="st0" d="M55.9,19.7c0,0-3.3-2.2-3.7-10.2s3-9.6,3-9.6s-5.3,1.2-7.9,7.7s-1.8,8.9-1.8,8.9s3.9,5.1,8.9,5.3"/>
</svg>
