<?xml version="1.0" encoding="utf-8"?>
<!-- Generator: Adobe Illustrator 23.0.3, SVG Export Plug-In . SVG Version: 6.00 Build 0)  -->
<svg version="1.1" id="Layer_1" xmlns="http://www.w3.org/2000/svg" xmlns:xlink="http://www.w3.org/1999/xlink" x="0px" y="0px"
	 viewBox="0 0 48 48" style="enable-background:new 0 0 48 48;" xml:space="preserve">
<style type="text/css">
	.st0{fill:#6C5893;}
</style>
<g>
	<path class="st0" d="M47.3,3c0-0.2,0-0.4-0.1-0.6c-0.1-0.6-0.4-1.2-0.9-1.6c0,0-0.1-0.1-0.1-0.1c-0.1-0.1-0.2-0.2-0.4-0.3
		c0,0-0.1,0-0.1-0.1c-0.1-0.1-0.3-0.2-0.4-0.2c0,0-0.1,0-0.1,0c-0.2-0.1-0.3-0.1-0.5-0.1c0,0,0,0,0,0c-0.2,0-0.3,0-0.5,0H16.3
		c-1.7,0-3.1,1.4-3.1,3v3.7c0,1.7,1.4,3.1,3.1,3.1c1.7,0,3-1.4,3-3.1V6.1h15l-6.9,4.7c-0.8,0.6-1.3,1.5-1.3,2.5v19.9h-6.8v-0.7
		c0-1.7-1.4-3-3-3c-1.7,0-3.1,1.4-3.1,3v3.7c0,1.7,1.4,3,3.1,3h9.8v5.6c0,1.1,0.6,2.1,1.5,2.7c0.5,0.3,1,0.4,1.5,0.4
		s1.1-0.1,1.5-0.4l15-8.7c0,0,0.1,0,0.1-0.1c0.1,0,0.2-0.1,0.2-0.2c0.1-0.1,0.2-0.1,0.3-0.2c0.1-0.1,0.1-0.1,0.2-0.2
		c0.1-0.1,0.2-0.2,0.2-0.3c0-0.1,0.1-0.1,0.1-0.2c0.1-0.1,0.1-0.2,0.2-0.3c0-0.1,0.1-0.2,0.1-0.3c0-0.1,0.1-0.2,0.1-0.3
		c0-0.1,0-0.2,0-0.3c0-0.1,0-0.2,0-0.3c0,0,0-0.1,0-0.1L47.3,3L47.3,3z M41.2,34.5l-8.9,5.2V14.9l8.9-6.1V34.5z"/>
	<path class="st0" d="M21,19.7l-7.9-7.9v4.9l0,0H3.8c-1.7,0-3,1.4-3,3c0,1.7,1.4,3,3,3h9.3l0,0v4.9L21,19.7z"/>
</g>
</svg>
