<?xml version="1.0" encoding="utf-8"?>
<!-- Generator: Adobe Illustrator 23.0.3, SVG Export Plug-In . SVG Version: 6.00 Build 0)  -->
<svg version="1.1" id="Layer_1" xmlns="http://www.w3.org/2000/svg" xmlns:xlink="http://www.w3.org/1999/xlink" x="0px" y="0px"
	 viewBox="0 0 48 48" style="enable-background:new 0 0 48 48;" xml:space="preserve">
<style type="text/css">
	.st0{fill:#6C5893;}
</style>
<g>
	<path class="st0" d="M32.3,29.5c-1.7,0-3,1.4-3,3v0.7h-6.8V13.3c0-1-0.5-1.9-1.3-2.5l-6.9-4.7h15v0.7c0,1.7,1.4,3,3,3
		c1.7,0,3-1.4,3-3.1V3c0-1.7-1.4-3-3-3H4.4C4.2,0,4,0,3.9,0.1c0,0,0,0-0.1,0c-0.2,0-0.3,0.1-0.5,0.1c0,0-0.1,0-0.1,0
		C3.1,0.3,3,0.3,2.8,0.4c0,0-0.1,0-0.1,0.1C2.6,0.6,2.5,0.7,2.3,0.8c0,0-0.1,0.1-0.1,0.1c-0.4,0.4-0.7,1-0.9,1.6
		c0,0.2-0.1,0.4-0.1,0.6c0,0,0,0,0,0v33.2c0,0,0,0.1,0,0.1c0,0.1,0,0.2,0,0.3c0,0.1,0,0.2,0,0.3c0,0.1,0.1,0.2,0.1,0.3
		c0,0.1,0.1,0.2,0.1,0.3c0,0.1,0.1,0.2,0.2,0.3c0,0.1,0.1,0.2,0.1,0.2c0.1,0.1,0.1,0.2,0.2,0.3c0,0.1,0.1,0.1,0.2,0.2
		c0.1,0.1,0.2,0.1,0.3,0.2c0.1,0.1,0.1,0.1,0.2,0.2c0,0,0.1,0,0.1,0.1l15,8.7c0.5,0.3,1,0.4,1.5,0.4s1-0.1,1.5-0.4
		c1-0.5,1.5-1.5,1.5-2.7v-5.6h9.8c1.7,0,3-1.4,3-3v-3.7C35.3,30.9,34,29.5,32.3,29.5z M16.3,39.7l-8.9-5.2V8.9l8.9,6.1V39.7z"/>
	<path class="st0" d="M46.4,21c0-0.1,0.1-0.1,0.1-0.2c0-0.1,0.1-0.2,0.1-0.3c0-0.1,0-0.1,0.1-0.2c0-0.2,0.1-0.4,0.1-0.6l0,0l0,0
		c0-0.2,0-0.4-0.1-0.6c0-0.1,0-0.1-0.1-0.2c0-0.1-0.1-0.2-0.1-0.3c0-0.1-0.1-0.2-0.1-0.2c0-0.1-0.1-0.2-0.2-0.3
		c0-0.1-0.1-0.1-0.2-0.2c0-0.1-0.1-0.1-0.1-0.2l-4.4-4.9c-1.1-1.3-3.1-1.4-4.3-0.2c-1.2,1.1-1.3,2.9-0.4,4.1h-9.2c-1.7,0-3,1.4-3,3
		s1.4,3,3,3h9.2c-1,1.3-0.8,3,0.4,4.1c0.6,0.5,1.3,0.8,2,0.8c0.8,0,1.7-0.3,2.3-1l4.4-4.9c0-0.1,0.1-0.1,0.1-0.2
		c0.1-0.1,0.1-0.1,0.2-0.2C46.3,21.2,46.3,21.1,46.4,21z"/>
</g>
</svg>
