<svg version="1.1" id="Layer_1" xmlns="http://www.w3.org/2000/svg" x="0" y="0" viewBox="0 0 48 48" xml:space="preserve"><style>.st0{fill:#6c5893}</style><path class="st0" d="M29.8 32.3H27V20.2c0-1.7-1.4-3-3-3h-5.8c-1.7 0-3.1 1.4-3.1 3 0 1.7 1.4 3 3.1 3H21v9.1h-2.7c-1.7 0-3.1 1.4-3.1 3 0 1.7 1.4 3 3.1 3h11.5c1.7 0 3-1.4 3-3s-1.3-3-3-3zM24 15.2c1.7 0 3-1.4 3-3.1 0-1.7-1.4-3.1-3-3.1-1.7 0-3 1.4-3 3.1 0 1.8 1.3 3.1 3 3.1z"/><path class="st0" d="M24 0C10.8 0 0 10.8 0 24s10.8 24 24 24 24-10.8 24-24S37.2 0 24 0zm0 41.9c-9.9 0-17.9-8-17.9-17.9S14.1 6.1 24 6.1s17.9 8 17.9 17.9-8 17.9-17.9 17.9z"/></svg>