<svg version="1.1" id="Layer_1" xmlns="http://www.w3.org/2000/svg" x="0" y="0" viewBox="0 0 70.7 22" xml:space="preserve"><style>.st0{fill:#7d4199}</style><path class="st0" d="M14.6 2.4s-2 5.3 1.2 17.1l.4 2.2s-12.8 0-16.3-13C-.1 8.7 6-.4 15.3.2l-.7 2.2z"/><path class="st0" d="M14.8 19.7s3.3-2.2 3.7-10.2-3-9.6-3-9.6 5.3 1.2 7.9 7.7 1.8 8.9 1.8 8.9-3.9 5.1-8.9 5.3M56.1 2.4s2 5.3-1.2 17.1l-.4 2.2s12.8 0 16.2-13c0 0-6.1-9.1-15.4-8.5l.8 2.2z"/><path class="st0" d="M55.9 19.7s-3.3-2.2-3.7-10.2 3-9.6 3-9.6-5.3 1.2-7.9 7.7-1.8 8.9-1.8 8.9 3.9 5.1 8.9 5.3"/></svg>