<svg version="1.1" id="Layer_1" xmlns="http://www.w3.org/2000/svg" x="0" y="0" viewBox="0 0 48 48" xml:space="preserve"><style>.st0{fill:#6c5893}</style><path class="st0" d="M47.3 3c0-.2 0-.4-.1-.6-.1-.6-.4-1.2-.9-1.6l-.1-.1c-.1-.1-.2-.2-.4-.3 0 0-.1 0-.1-.1-.1-.1-.3-.2-.4-.2h-.1c-.2-.1-.3-.1-.5-.1H16.3c-1.7 0-3.1 1.4-3.1 3v3.7c0 1.7 1.4 3.1 3.1 3.1 1.7 0 3-1.4 3-3.1v-.6h15l-6.9 4.7c-.8.6-1.3 1.5-1.3 2.5v19.9h-6.8v-.7c0-1.7-1.4-3-3-3-1.7 0-3.1 1.4-3.1 3v3.7c0 1.7 1.4 3 3.1 3h9.8v5.6c0 1.1.6 2.1 1.5 2.7.5.3 1 .4 1.5.4s1.1-.1 1.5-.4l15-8.7s.1 0 .1-.1c.1 0 .2-.1.2-.2.1-.1.2-.1.3-.2l.2-.2c.1-.1.2-.2.2-.3 0-.1.1-.1.1-.2.1-.1.1-.2.2-.3 0-.1.1-.2.1-.3 0-.1.1-.2.1-.3V36l.2-33zm-6.1 31.5l-8.9 5.2V14.9l8.9-6.1v25.7z"/><path class="st0" d="M21 19.7l-7.9-7.9v4.9H3.8c-1.7 0-3 1.4-3 3 0 1.7 1.4 3 3 3h9.3v4.9l7.9-7.9z"/></svg>