<svg version="1.1" id="Layer_1" xmlns="http://www.w3.org/2000/svg" x="0" y="0" viewBox="0 0 48 48" xml:space="preserve"><style>.st0{fill:#6c5893}</style><path class="st0" d="M32.3 29.5c-1.7 0-3 1.4-3 3v.7h-6.8V13.3c0-1-.5-1.9-1.3-2.5l-6.9-4.7h15v.7c0 1.7 1.4 3 3 3 1.7 0 3-1.4 3-3.1V3c0-1.7-1.4-3-3-3H4.4c-.2 0-.4 0-.5.1h-.1c-.2 0-.3.1-.5.1h-.1c-.1.1-.2.1-.4.2 0 0-.1 0-.1.1-.1.1-.2.2-.4.3l-.1.1c-.4.4-.7 1-.9 1.6 0 .2-.1.4-.1.6V37c0 .1.1.2.1.3 0 .1.1.2.1.3 0 .1.1.2.2.3 0 .1.1.2.1.2.1.1.1.2.2.3 0 .1.1.1.2.2s.2.1.3.2l.2.2s.1 0 .1.1l15 8.7c.5.3 1 .4 1.5.4s1-.1 1.5-.4c1-.5 1.5-1.5 1.5-2.7v-5.6H32c1.7 0 3-1.4 3-3v-3.7c.3-1.9-1-3.3-2.7-3.3zm-16 10.2l-8.9-5.2V8.9l8.9 6.1v24.7z"/><path class="st0" d="M46.4 21c0-.1.1-.1.1-.2s.1-.2.1-.3c0-.1 0-.1.1-.2 0-.2.1-.4.1-.6 0-.2 0-.4-.1-.6 0-.1 0-.1-.1-.2 0-.1-.1-.2-.1-.3 0-.1-.1-.2-.1-.2 0-.1-.1-.2-.2-.3 0-.1-.1-.1-.2-.2 0-.1-.1-.1-.1-.2l-4.4-4.9c-1.1-1.3-3.1-1.4-4.3-.2-1.2 1.1-1.3 2.9-.4 4.1h-9.2c-1.7 0-3 1.4-3 3s1.4 3 3 3h9.2c-1 1.3-.8 3 .4 4.1.6.5 1.3.8 2 .8.8 0 1.7-.3 2.3-1l4.4-4.9c0-.1.1-.1.1-.2l.2-.2c.1-.1.1-.2.2-.3z"/></svg>